<mxfile host="app.diagrams.net" agent="Mozilla/5.0 (Windows NT 10.0; Win64; x64) AppleWebKit/537.36 (KHTML, like Gecko) Chrome/129.0.0.0 Safari/537.36" version="24.7.17">
  <diagram name="Page-1" id="pAJlL8oXBMcgppv0DupN">
    <mxGraphModel dx="1050" dy="557" grid="1" gridSize="10" guides="1" tooltips="1" connect="1" arrows="1" fold="1" page="1" pageScale="1" pageWidth="827" pageHeight="1169" math="0" shadow="0">
      <root>
        <mxCell id="0" />
        <mxCell id="1" parent="0" />
        <mxCell id="hGl0rO2TJFmCRSFBddJ_-1" value="" style="shape=image;verticalLabelPosition=bottom;labelBackgroundColor=default;verticalAlign=top;aspect=fixed;imageAspect=0;image=data:image/png,iVBORw0KGgoAAAANSUhEUgAAAZAAAAIBCAYAAABnbem3AAAAAXNSR0IArs4c6QAAAARnQU1BAACxjwv8YQUAAAAJcEhZcwAADsMAAA7DAcdvqGQAAP+lSURBVHhe7P0HkF5Jlh0Gn8+V9wZVBe99A4323dNmerzdWUeRS4q7JEXyF82SEqmgaCVSZunECEZICjK0IrnLHZK7M9rZ8dPeWzTQ6Ib3prz3vj7zn3Pz5WfKoVAoNNA77wD5vffS3Lx58+a9mflMRTIEQoQIESJEiFtENDiGCBEiRIgQt4TQgYQIESJEiFUhdCAhQoQIEWJVCB1IiBAhQoRYFUIHEiJEiBAhVoXQgYQIESJEiFUhdCAhQoQIEWJVCB1IiBAhQoRYFUIHEiJEiBAhVoXQgYQIESJEiFUhdCAhQoQIEWJVCB1IiBAhQoRYFUIHEiJEiBAhVoXQgYQIESJEiFUh/Jx7iBDz8EkPiEhwXA3E6+2UD7E8vC44Ga9MM26e6+Y99mnp09CBhAiRh7s1GFZrMMTvnTU2XiKfgEm7E8IX27fRBBUtlLEjNv/aI7PCSiKrYeYeROhAQvzcwxuJmw0En66hv5JR47NklrEVlsSM+VkivFimSBb5LCi/D2sF0ffh04isTHwDViGcpdq/lKxXIq9VsLFmWOu6QwcS4uceqfQcYlHdDlzKLCyFOzF0Vli/qs5mzThO+GMzW3mgW4YouPYUkNaZRad56lMWu3Xqyt46VltuOYimZOL4jWTidsxr1IqRTnFNESWlTBppzQS8bM1sZhDNk7Vvyc1alM9GzvoWllqcxmINYM6sh3RwuTyf6WBCEuUxxhNeqMhipFaB0IGE+DlHiv/HkUlOMshQMCqq0UWDqYv80bFGg255qJJFKvJ8OGtA9sRfcE3DFonHES0q5XWC/BcpQblvASJGmgYd55CZnUZmZoJJaVe95BKZ72gDxuabkZtVX5B9XtnbgqfFI/mNxIsRjVfyvIRxq3hmSHKmLJChLOZ4TFNfrHFBPQXtvlmjF8E8MS6LRcmroO+3PFAvslxG6TjiZey6EnOCEaVZP94+QgcS4uccHHyT7Wh/50X0d/YiE43T6ERoF5IMd2to5FkKsuC4cHE2cxRfnHVmaNyiNAiztGkldQ3Y9+jTKGrcRINBR3LLxlK1BO3ligzJUQx99CaunzuJeDyGJGJMjVBaC60YpZWbBHurZdkW5s1mY5I1Y2GWwCb7nKsAHZ6IpGk4q5o3Y+cjzyBWuZ4JtyYTJ2YKNzmGZH8bxns6EJ2d4WpVLXYze/WBz+vgDPTiWNim+TmzdHyCeFiKnEEFcnSzxVlIxdRf6VgxUqV1KF+/A4nKWpcup7Kg9ltH6EBC/JyDBmDwAs7/8NsoraxB/ZYdmOGqJKJZt0bGkmPsDg4bf9OkwHIEM0oype0UJUVotenuMDU6gfOXruHg019E/f6HmWuVs21rr4zvDDAzgCvPfQcTo33YdeAgJuZkGONkzbiw7IKuzIG4yyWhEotKLK9g9tT4uBnFhfD0IzTqCRbv7+rBtZ4+PPMrv45Y/U6m3JpMUukMYinJYhA9H7+D3rMfomhumlToPrgS0daWlMQ4DX4cDwHvPARnhsVMrdIXxFpELtZ6Pp9QAXy+XH6dyYFEWSjFCdFEMobZqo3Y+ujnUbt5J6LRKGLxBPm//VVI6EBC/JyD6t9/Dpee/w427rsfpUceB+ZoRLP7/QH8aXa03KFhY/UElc1zIA6s1w9Z8ajZ9mAvjj7/PLbe/xDW3fckE4oZVulA5FAj08BELy689AOUVZZh02e/yOgE47U1JgQ8ZE2HPxL5LN8M2WJ55QVr960QEvLkY4Y9iZkL5/He0ffx5Dd+BbGGXUzTvZCVI60V3uwEMNqJ7uOvYOTSxyibmyR53Q+RExffzoHYllDQX/Q7BH94vVwrJL6CLs6DzHIuSc7bxa0EyqV7MyqfjCUwNkcnUrUFLY98EbXb9yNRVIxEgg4kFjqQECFuE1T/gfM489x30XLgEdTd/1nG5Q8sDUMNET+c5w+XtR4+vp75x3zQyGfjOUPub8M7z/0QO4/QgRx4jHGr2cIirJmknZ4Epgdw8qWfoLS6Brue+ToT5DzoRBbw49s/Xw6L8T0fayk7X5/uUbgwfO4jnPjgHTzztW8h2rCDceJ/JRBfGczOJelLxxAbvIG+j17D1PVTqExNImarU5fHbgvRWNulWOB5Whf5TWO8olYiEQ+XN7/EPIIFxOal+V9Gz0ViGM8UY6hsE6rvfxZVO+5DeUUFiouLEY1pG+v2cPsuKESITzuCfex0RsMhznHnjaWCZq3+6M/np61lyNWXySjECoKPB3TOkFbQvQlZKJmN2xjS/kaG0RHNGJImE9UtnlSnu86FxeTi+L95mF/mdoKTS9pk467Fu1sNiOcCi3sTqJBCBMlkGjPTM5hliKSSiKaTdCBJ1pBGPJNCLK1AR5OcQTQ5hxjzxBUYlw3BtfJZSCmfCy5PakHwdN1Rgb2RDaLhQ47W/OuoAvNGGNLkb2Zmmu2ZQ4o0gp6+bdyGtoUI8ccF2i64+T7+QjhDe6eCe1omFxTnNwzcI6q5oFQ7dWe3CZoFuw/jbtQb4WwFVsk9CbGc4y7gn/JycauTi8SdTGaQ0uO8JhdGWB8EtLWdJYPsK+aJ3Qnx+YIQyQ9BVtefSva05ofF0wqh64XB5QuCJgZcWabTc64/7ZpJa4DQgYQIYaNp/ojycXcjLAUZBA+fLzAS2bB65Js2nbor0XQzVkd9Of7uLsRZNPuYcWBweXrLUgmMdJrLFxlcM7q61+QDVwRpzvYzPOppLN0PkVGmm2EZPb3Ha5MZ07lKKQyKz6XruHTIbcflhzRXQKrHAmm6ID7cufEV1KWb/bDzFJJzc7YCyaRI+5aFsjhCBxLi5xx+JN27htHDrULsLAgeagODbUHJ8KwBREr1WTWfHhk5kE8az5SMp06z/K8McqSuhJ62Ih05i8ApaGPPZEyDbOdBvIJ3Dt5Z5Kdl89ABeOOudJ936aC6C4PqzjoUnRstfxTnDL5uq0N8C4FTDcJaIHQgIUJ8ypBzJIRO18gYLI9Poo41RLDl59jOk9ctQrKO6oVEOues82CwLc8grjCowqWDlePZzfK5kKuvMOTyBK3M0vR0bduTZ/qxo8U7+Pxr4UxCBxIiRN7g+nTBmYZPCp9sbbcD15/OzzqDuhI4Q7p4fkeKxtuCZv/+PD+w3IK4+SGXR+8aLR20wnGrnIXBpzk+bNVjQf8cbVsNWV05J5FtX/4E5DYROpAQIT61kEG4U6CRka0Jqvi0OQ93zGvAilugfC6vrT4CY+vvhdjWkx7tkkEOrn0JWwEwfvnA/CsNpL9cQBAi5MeFID6PhvjUNX/UDIKc+tM1QOhAQoT4FKFg+2pRrJV1cHSsNp7erNZ7C14G84+3Am0B8V/wtnbWUQSy0FEpetu7wEGwrrUJQT3LBFc/z7WVlg0+3dGJasUiZsW/0kx/JI/VyGQhQgcSIsQfF5hxUFgDkJaR+9TidgwkG26PMXsZyAA7g5wLziDb7D4I9vQTVwArC8p7s7BYucJgT17ZE1k6BkFxQdCDBPYkVgAtSNZMR4jQgYQI8WmHswqBWVibmSX8zNt+P42gkb8tDxhI02TrZvF6KopW24JtZdl9B3duaTz36TcPpHvbIZ+e503H3Lkcnc7JPR2J+GS5tfMfa+FAyJCFOw2JIESItYbTqk9Ki9cOsgI5SxCYuyDcDkTp0ycNwclgnkxu2WDOb7f/XIkciGb87v0LGWetEsxYBzeznaNZYVBe0l6wqvFhsTLzgvbRVE5GXB94LAxpdyTP+o4ylyJOFHpPxpqoDboAtySfQqzhCmS+4BfDUnkYr6QlSXjnETqREGsIjShpFAeQPaViI+k2RtMnDs9rYICsPe769hHI5tOK4IvG3jirLTdvTdBm3TOQTuhKemHBOQhbaQTG2zmNQPZB8I7kpsFoLHKdpX3zkKuXDoVHu98RhPy6fLpJJFiVec1hdPYQnN4SbtuBeLE5LHaWjyzb88B4JeUlu+72VOQt52UIEeI24bSLvxxUKzEvS6Gg5AIyilg97ZvijpCex7MZnU/T2HO85jheYR9YgVw+2+7xQfFMlygsBDTdjfMcdL58cBbTG/rsze8CQy/DH9S5wuDL5Oi7uPzrHMSJg9vmc9e52JVjjVYgC6tejJn8Jt8Mq2lMiBCrwqqVzWlyQfEFtBSxeAUrGQfLYenyq27QPMjwCEu34Y815hlXM8LmULQSocEO7inYeRDcNtdywa9oXLncG+eelgv8WWFQvcE5+fE8WDD+gpvxSif0684Etsr9XzVu24E4wfqzxVDIssfCmKVRSOFWSoYIsQKsqUo5YouSVKQPxO0MXIM3HHccn0Qd9xbUYrNtQSfJAKd1HyHtn45yRp8nwbUPdAA3Cf5mtv3LP+YF/qwwGHP8r5Djgz92bekuU0Gw6OBXWK0urs0KJMdHwB6dYRCXl0QmfWo+8uPUMH9t3afIvMbNL3v3oT4UNLOwj6/5Tg2gUx9C/HHD4sPO9/WSfa5i+YqRH1aI+TXbJu/i7Kwhbq2CVTTr7sIYdRs+dsGD8W/bTLkU3VS3G+t27bee0oxzN7BjSisIKq/0NNPcvQp9kNFe/KOR9y//mTHRtQXdoE8ynwsRy884y6t8Lm++w2FVuWCMu3g5LZ4wBHCJ7vw2sTYORBwTaohvgH7Eor934VnOOgg1bhH4vTwPkwH/+c4z2nnpdw/igR0dUUfPIaqAOdfx1gb+incGHc3BMFhnh/hjBKcHvs8Fp6M5KIf1ek6Bc7A4pkqPFPLo3Brull751vn6xT9n5xwLGSQZXJsWcpdfZjE4Ou64XL6lceulch3kuOO/wNgqVm+ly3E4o6Q4jn9LC8459u3zIoGRV0m1YI5hliFJQ6C/xeFoyfiynDkOlXN16GgOyOJZnnUmEUMyEuN5zKSh4J8My/GgKgP7okDIeenvtyso3Qha8L+3j9t0IIVs2PfyGecbKfXR0asBfWm2ublntHXMnVN8zC9T7ATvHqZQvJTQU74HoE5KzzCMID18Fan24xZm2k9hur+dkwfOGoKsbhain+AixD2NYPwtCxunOuo3M81JogL1gUc/kcpHLn8QmMGMU2aWujKB9NwYy4/RlkwzTiPmFvEJ65UzVv7IMamgGbLNmqcohwkO4HEeGaxNMqEeksBCONloC2aGIqBMWNYF0uMEzaUvRNZwzsPqROKnvIKj6a55zjZqG0sv5vmtLMU556HVgNqfslWGMJOKYDwdxxBKGcowwvMZFVEimXM6ILvm+Nc/wVYMKZ1HMJOJYzhThEGUYCiTwBivRSOZ4mQ1TQsZ1OnqdnzoaPHkz/Pq+BTNoA6r7/Zxmw7EsWR/wtEuyWhqlrPxWcSpAInUOKKpKcQYp7+ipQa5JizGOuO0VKOixFgmYeWn7a9q2fKNOVyn3iMwhjgoRtoxePwFXH7+27j60/+Acz/7Ni6+/SJGe9uZhZ3GfJ5vPw8Ice9jMYNUABrKCOeVkfQ4MkOt6D31GjrPvIPZ8UHGaaqU3+8OnqJo28fwUpNI9V7FwMk30fn+8+j64GWMXD7OOUknx4IMLkcKjYkN9nx+lmDNZbmTOsYKVIn4p2KbbgdHM1oc/+mpQUy2nkW/2vTBC+g+8QpGrxxFZryLmegsc1LICw42g+e4z4x1Yezyxyz/MrpJo/fU65juvULbMsXW+RvRQaE8FMjIxLA6WdiCMCAlC6c/sa55qzkM8WsGWjJwNVjQasCqy2CWaTOxYiRrW1C26340P/I5ND/2RTTxWL7zECZLakDrhqT4tYrc1DiokhNtrjpiRRih00g1bEX1oSfQ+OizDJ9DxX1PAM3bMRsvZT2qV6sity0WlU4Zo85h6BihnmZMH1WDg+sDX/ftIfaPieB8VTCZSYlsnUGlz3DmMHgNqRsfItN3GSnOxlPjo4jEixAvLWM+57P0DZkc1Dh60whnb9P9SLedRqbzHNJ91zAz1M9kCqeoFBEK1dpuPZVf/pOFsWDtnQR6rmDo+CuYvHoKxRN9mBgcwvhsBDUbd6C8sYGsqr2OV8/x3eM8xHzYC1lTA+i9fBYV6zahvGUb+9dpp60aF4MGZpTGcHoQKerq6Iev4sLxtzE4PITGlg0ormlg4TjzuUHqVdZNIESdup4aRurqCVx672W0Xj6Hgb5ODHZcw8iNCzSg/aisrkGkok4lrbzBxlluCMjsyEBgcgjt1y6ijnWXNW5iqv6k6xK83wSulPibQs/Vi4gVFaNh227G6c/8khdfuR3Emz9nwswY2k68gzMfvIH+9qsY6+nAwNWzGLl2ipPCaVQ0b0QmVmrlXUs8jzxqOEW5yqDtGPjwFZz/6Ci62q5imBOxbtIY72lDTXkpElW1Zgd83yxw9Ix2EkthkjLt7mzF1t37EC2rZ/zN58uern7tT7/OTCEz2ouZbjqwkW6UcLUZZ1utvapHhjrIL6R4Pa2r2mY0febLKNl3BPENWxFfvw2J7ftR1LwJyXQMw/19KMrMwP7UrdXJYP+56kAMI1E6iHXbseWJL6L08MOINTWTzg6U7HwQ5fUbMDXUg+nRISRYRi8KyoGYppk81CvumKH9maMuThRRbo3bUUr9KC2lHBMJ+5vorh9Wj1WvQPysSGyKURc0GIfQeeJ1XHzlu7j68ndx4eU/womXfojeKxeYLA8ZZDXklbMNrinMtp/H5bd+gkssf4nlT774PZx9+xVMDw0yXaV9uNuQxpNvrphKOFusiMyhMpZGRTyNBJeW+lvE+crlOb4XOA+RD987Ck4xNZ7nOw/bWmGfu7kij8kpjF34mHr+IwxeP4syrZi1jTU3zVEV6LXRcEPMm0zTGepKZqgNl99+DkOd17Bt7148/NnP4cgjj6A2kUbbx2+h7exx1jFjfKhcbqD7ma6H4/lOoYD6vKp0md19EH8zE5gYH0bThhbc9+ijeOjJp3Do4D4Uj/fi2vE3MXT1PIcEV21Bi7JBJMwBjWPi3HFcOvE26mrK8fAzT+OhZ57Bnt3bMN5xCRfffQnpoW5mvlMQP7ljJJOTunOVwdvd/mg2UFtEmuVTPzjeZRHT0SjixaVIJ0owfe0G2t55B9fe5ATj/FWgfjOqH3wKFU2bbMdP8xepS9RWC9ItrWCoYbXrsOmxZ0Hvh9nrbWh7+x1cfft9TPSOA7uOoP7wY8iUVGJyZsb+4JV97yrPeZgOi5usjXatMsfC/2qZ2ne7WLUDEcSaG1A+cAk7OYrR7huY7uYqpLcVqb52jLZdwXgfl7BspGuMLbTsmAuMoeGdGOikslxhuVZgoB3TXdcxeOMK5qbGVMBlvScg0ak1KcSoAbYioTNx+5FumX2b4g3xicHN1xxyZx6KUXe62S71lMZudngAF65cRaasCjsefwrVTesxl+RskrM6D08pZ4Z0zvKcjU9zxdDb040tew9jw+NfRNnex1B15CnsfuKzKC0uQefVy5gZHWAJbYOSAkmIirGQpeyPdxB+pm0QB4UD0GLMEDGUVGDvw89g77PfRO2hJ1G0/2FUP/457DxwP2YnuKK5cRUR3ScicmZNoEy0outrw/lzp1FUWY+9T3we1YeeQvn+J7Dpqa9i145d6L9xGcNdtAt2d/RmcPTtN7+qZbFURsUH9xBsfGusawKpCbEz2Josui/ycq1GZ5Ie7kHfaz9C61s/Q++Hb6Lz+Os4+97rSHZ2AtWNqGtsxtycHrqRkXf0MnQE+pOz06k0qjdsR/HuA0DnDVx57cfoZ/neD9/C6TdfRKarHdi2C1Utm7maodyNhixq4MR0rqOuLc6ni9f5PajY1eM2LZxjxf2KwSSi0SRKOROvTmRc4Mq3isfiKNPlJQmbQbmRUMh9ag4xzlDKY3OoiSc5G0uiOs6ZPcvb91wYnIB0vHm447CGy9uzLgbHG9vI+FiUhiT4IF2Iexleh3l0p0tAiZx3BmoVLSrH1sMP48DnvgZs34tkooyDmblMuX1YDMw0NYKujhuIlJSgdsseGt5GqlEFkKiz/e2auhbMTY4xmxyIGzM53Eyv11Lv2QYjR922X0XJmQXBLoO2ZqjrRZWI1G7kke2J1DCukm2rRVFNE2LxIq6oaPh145dtEsUcVe0+zGJmuBsjYxMoa9kO1G5mXBXzk07FRjSt34yizCyG+zkR1U31PHh+5uNWbUCOhi9XWF6OwtkWjXMX3NQjCEzTaiJBGxAZH0S65yqq5gbRVEx7SJumFVYqeEhiboZH0ZMsbPWgR4dEJ2JbTkXVTUBpJTI3LqFi6Dq2JSaxITaOSN9ljHZyJVNUhpK69cjEKFf+M85Zv3NodpE992kWlsDSKcvjti1cbl9RLDCwE2w5RmXRNo57npmDRkffIGbzf6jFIXeuB9WiukFJRVPQM1l6kM2tWZTP12eUlg6kH3Bk4XaQTydHT7+yGO5KbYxSe+Qz1DQpl+sw8XNzeLrzw+1iMZo+rCXuNP07gQKjY30WnC8Kn8gOTkeRqKpH446DQNNWlk1wTiwN5TrUbrQqLEWMaTMTGB4ZQqysgoZC9zkSjE2wCAMdUXlNHVKaiY6PMM2NmywKWc7+OuaXbcBtwtEuGLZE9pKrkAzlkuGMOMN2ZNSeaDGNfQajwyNMjqCiqgpROhKHeYQyM5gZG8RcKoXy+hagrJqRgVwYohVVKC4pxuToKB2wcyBq8mKOY63gJxWqQ3Vl9cMen9JRF6o/4IHXciD+m2QRriTTpVVI0RnEODHYeeRBFNdVIHX9DEa6rqNI+1fmhGTztILRU1NpxIpKUFpdy4XWHGYHelA0M4zSzDSKkxNIzAxhbnyIahRDonod4gnpDe0OWXBBN9VNS0nXxd9BEd2+AymEOHXzCpOmCcchzxfmQdIOjgLPnWPhwotCyfehXgjqTBd0rgjmywZ2SIQORyHreDQA0/LzwVm2tmWhPJxjWHBLVQWV9hRYuRRFDkR1WxwD2+xmJ7w0uJT5UKxoiy+qjZ25mViuHp/HnS2GhbGKKSwnWjlZeHm4XI5ujsri9ETH8elLOHgKinc0RTuX0/0uBsUunnJXkOusJZCfLsXj6jId5zkNZISBzdYeuNRRA9bBlcnNgvOOXGlr+yJRUo5YosTi3P43CxeVoqS6hquZNPNou8fTsV/mcBXo0lMU8s/XEjejq/Q09T+tx1FtDGoGpf+6BziN9GAPetpaafzL0LR5B2eIlJe1Qu0IxrcG8vQkncMgYrEoSiq4crGHT9yo0LQSiWLKqsjkttTKYk2dCWlZPdmqdO6C23FglFWnDEGQ/ZH+sy+T5L+0sQUbHv4Mtj3zFRz88i+h5dGngfEJ3PjgXYwN9CHBtpqBN4fknFSSZROlZQzlXJTNYm56HLH0DOKkG+PEOkFHm5kZc1VW0Mnq3RDqit2DscD6deSE3Z37awXPq1hfG1mt2oFkjXhWgGJIR+dRBfOCNjAUb1eOfclL/9ggC4oLICquf6Rapl4M/Gf7rA72nLTR1Q25SVIepwcfRjTFJf9MN9KTbUhNXEdq/BrSU+3U425E54bt8WC98JelZBX72nUUXR3VBr0YOM1V1DCVmzTHW0nvBtLTPYjMMi41yXwcJFwlqZPM8bGjXCv1FI87c3SdDHItkCGfYY4JKscIeesDJtuRnmhFZrLV+E9PdSNCnqN6FJpKYzK1Nvvg+RYC3s1JqH2knZ5g2SHS7kWGMkhTHmnJQ22Y6ODsZpirxDHKVTJ05bP/KAP33R7neFR/LE05k5eInvHntdodMb4YzzZI7sY768F0JyIz/YgmmV9PCQlWhefTQXU4pb734HVTUL/5iYv1sxlJORA5El6n2LcpzSDVx7leduV0Nq+NzGfvE4i+bXM62paNM8oYg+6nuD8EpEgfCuHqWhi/diDtQAY3B+VlTdDY0SPIE8iMt2Hg1AfoHZlAw+7DKN6wk0xrRRE85aZiBtVDeczNul0La5N0nNGWiTLSljDlrrGWK7dWUH0+BGC73RV/1S6Tg87Zx8YAz5UniJeBVn+lOGZS2qajnYmm6EBpc1Kzoy5oC6+yEbVb70O8ah3mtFpTa0lQH11Ps316/SMSp27RWQqaDGdIy09/tSuTEX2pDXXHycfxYmc6+nEVnKuc1+W1hthYNXIdmdelYtg3RkHeQAK2GJfPN4XNMjXJN62CXdEYK7jiislnVSVlmGjIUoM0XDS4veeRvPgOJt77MXpf/C/o/OnvWuhm6HvpDzB17DkkL7+P1Fg3y0wzqJPd/MYJOTiawZOBHKXh7UDqxnFMH/0Jel74dkDzP2Ls/Z8hee0kjT4dCRmM6hs5Se1hBq6DChHRLNVmUQ65QaFHnVk/HVOGTiPVdRLJ069i8JU/QBfp9/zsd+3Y9dzvYvTdHyB54R2kh64jM0sjrSe7ZFSyypAvN7WFbUqP89CP9BgdaOuHmP7gZ+T9P5Pe71nofpHnlM845ZS89iFSw3RadCSufA5G2eQySz57kew8RVkcw9yNjylyvadAGWXGmUYZsZ7Rd39Iuf8ndP7kd1jPtzHyzg+RvHKc7FDeNqCsI0XVfi0w7k4p9q0if/a6kCeZavcvC38qBeU0Uv1u6SqqCY6gg+muMxQOyuPOk8lZe4LG4lS/pqOzM5iZmiANxRsBZQ34c+WymHd5t2Atp77rkXV9roNKwXYMYPLj93Hm5Ieo3LQTG+57jKurKmqZxkQ+44GsaDQTXGUkucKYm9X9AcFtwVievFn0WuvM0vRy8a5ujQdXf5YPHYN3dTQh0GO8vLJ332b6OzB84i10vf5jXH/+u+h8+Secd86h9rEvYOv9T2CWk5A52g1te+qfdEAkk5w8ZFIcj5xIZOgkaF5sa08jNC05a9uK5kUTOf1tEuPDy8lqd0cX52RtefKRp++3g9tyIAshppZiTA0yMdnMVo20QcH/zo0oC482680NN99R+QKIcDaSkaFPDiPdfgYjr30P3T/7Nq7/9PfQ9sYfYeD4ixj++FWMnnwdIydfw+Dx59H22ndwgca//aXvYerqGXtE0lWijjOqDKpDBn4c6a6zmHz7B2inMW99kzQ/egWjp17H0PEX0P7m93D5uf+EmXdfQmagF9rxjWuGFLCYMzQ6utmWIXBOmXEa3baTGHrlO7jx/d/GdRr4ftIdI/3hj17FyMevUPFeQMeb38G152X4v43hY69yBaRHmSXHvEGoOk2xFcj7GGlfeBtDL34bbT/597j+2ncxeOJFDJx4BYOnXsPIKdI/+TLb9F1cpbNqffE7GD3zPlc8XJEEM17rFgbd08HcGOYuH8Ol7/+/uP6D/xdnfvDv0fbBa8B4H9J9VzD29vco99+h3L+PUfI9fvp1Hl9Ex1t/RN6/jZ43fsjFyQ3XX15ABhmdrGTuLsjHqjgx2TN4Pc42T9QCihaZP0XiWawIRUVFSNNZzE3R2LL/zOco79wMJkYGUVJchPLyCkauZohmGflEYa3WbHm0B7On3se5j4+jrLoO+5/4HEo27zYp2OaBy054vSV0U7i6hr41jelxrfA56RA0keRkMUO5pLhCKSsvR6RY22BETqi3CU9oCYJBx5odkrMwZ+ZskvsworvmjzVO73XYuxmzU0gO9QADbYj2XEDXx2/j2kfH6BjKEd2yDYmycnuZUKsWs4kMMa44ZsZHMDvJSR1XIXp3LhMvYh69PRRDMlGCeAn1Qo5jmBNFyiTLR+DI3LUCswXni2Hx2FvDGjsQdXaOLVMou5ZgaEC0rAu2WTRbdt/LmWMjdc10Kk/c+rCQzkKwc/RUFzum550X0PvBy5i+cgLR/hsonR5CFaZQE02iOjqLqswEqpJDKKPRTvRdQt/Hb+DcW89jquO60ckpDenZHiY7ZKQbfUdfROv7LyDdfQllU32oxSSqI9OoikyheLIHqc5zuHGMxvKjozQC4yjirCCqJSUpmDIJdqET1UHjHGE76fRmyGvrK99H97HXMNd+HpHhdpSnxlAZnUM5WAd5rs2MoXyiBxHyPH7+fVx/62fo+vAtzug5uERUdLXeNeXQNWnPDSN18QN0vP4Da+d062kkxjpRSYdYGZ1BeXoSJckRVGdGUTLRhUz3eQyfeQfnX/0R+j9+F2muqEwapoQy+AxcraWGOpFsP2v5kx3nrO2py8fR98aP0Pb+S0w7h6rpftQkR1EbnUA1V28Vs32I9F5A70dv4OrxNzCrJ4pkaMWuQebEOZGsvO4aVlt/IPsgaCNCbwVDjlf6RIOge3KaOOj9B7cSYzxn2pV0DlHOtNNTulHuxoPp36zuBQyhuKQEZRVVjHcQxWWRleFNc645qC38p60r1p2exiQnaB+99wYyRQns+8xTKNmyk7noMLnyimnLTrxKv/ROiFZakhO4AimvdouwUU6UprUqTtJeuBX7zFAfVydJ1DU02X0i1epH7tpBsssPgmudGWWNC1rl7D0Hcxzu2stfXMnY0+JZyPC8iJPLingMseQ0xkfY37NsM51CVPd0mF/fuUpyNSLLKGOfnJ7CzBjzRRMoqmvGTFElJtMJzGaKkSqqRUIvmHKFM9rNcUkdsmHF6r3zcOfuWubBn+ufs0ULsVpZroEDmV91bnYsdiXQmDxrapLjZwyZ2VFOwnnUjSCGyMwoBxJn/DMjTBtnPvpZdoooOOPi6Hhkz7l8y/TcwOj18ygljQoO1NJEjP1CReVsJl1cjkyijNOBOFcHaZTHU6gvTqEuMoGZtnNoPX2MKwEZYym0EWRgx9IBjZ9+H4PnP0TZzDCq4hmUUqv1gTPRAgd2UUkcVUUpxCf6MNJ+GbMTI+TXcealMV8qZlDSY0hd+RA3jr6MietnUJ4cR2N5HGWcbaa0nI0WIUO+I2yDHKk9Dk2+q6JTdATtdCCvo/vUB2w6V0+CNMcCB+DcCFLnP0A7nVKy+xoqOPBqSuMoTrB9ypMoRbS4lPIpJm8plMXTqC1Jmzzig9fReuxlDF782Bk5rnDcG/QaGEkkoilUFkdQWQQ0cuwWj7ai4+hzGDx3FOVz46hORFAWi1q/xbiK0VAoYZmqeBKVdJg9p4+i6+JJMxi+BxfK59MGGo6Uvtmk7cgk4nTgRWy33rjWS4YZDnDYo+uzSA/3YqLjKmYGu9lPzF9WhvUbNyA2O4Huy2eQHOdEQd/DmhrA3I0LGBroRt26dShvaGY9wRDVQFgGOamusWRXQE5ZbOrEtor/ayfeoQ6kcfjRJ1GxbbfNhFNcQUQ4tnVPzB7kmB3GLCciU52X6HPGjU5pVR0aa2ox2n4N05RXmjqtz70k+9vRdu0aZ+xVqG3ewMp0H2U5xpaXVSGU14WciP1JPh2la6WoGb1zHL6cjX1OHHSV5M80+ctUr0OmaQumyuowGi3BSKQE0ZomrN+5hw6wBOmhQYyOjmImHcFMSQ0SXKFF122mHeDYZx0zenF6Zoorld3Aui0YjpVjJFqB0vV7ULFhBzA4iOn+LkS1BWqMOwfhnYjiLFopeedrjdv8lInrRPFmN3k1i5ocxMjl08j0t6FIyTSM7q/yZjA92IuRtkuYuHGOhv8Mw1kLEwxzN84gzbixa2eBsQEkNENh2fFMGVLlTWjccz8StY1Wl2bzkdQ4Z8MX0XPpHDuU9MsbEGvYirLN+1G96whqth1A1aZdKKlrxCyVV0oa5aCO0zCm0lGM0QbXrt9CD99o90GN/8yUfUal7f3nEO27hsqYlpYxTEYrMVfZgort96HlvkdR3ryRs4ykzR7jNBb22DJpaPY5mS7CVEkzanceQVlTCwlzaHHmFdHqo+8Cut/+ISaunkI1ZVVC28A1F6ZLG5HYsB/1+x5G4+5DLMdBwhnK7PQkM5A2jbqewpidnsHo5BwqGjeimHxbpXJ6Ebav4zRaX/8eZtsv0ZlSqWMxzEU4Y6loROnmg2jc+zAadt6H0noapXiCujlqWwJFMeoz889OjWFkKon6jbsQK68hz2qTRj6dO1dJo/Y5CsovTqb1PPv4AOXJNkVLEavgrLCyCamSKqRZr/ZwbTZuczBgYiqFccq7edM2RCtqGOP0RhMEH+4e2MapfvRdOY/yxg3Bp0z0iQeHxXmjFnI2OUBdnabOJrquor/tBqOmUcKV6PTYKGeGdKKVXEHQkfaeP4G3Xn4eo2PD2LBxPSI0hEXFMUy0t6KN5VKTk4hSniPXzuHiyWOIcIWy65HPoqhlF+tyN52FQl50zn7WypMrx7arF1G/Pv9TJoHjuUW4GkiThlufMolywtG4jUbPPmWiiYVlKICLSiEz2InTXFmPtV3E+qZmtr+e5mAYI93dGO5ux9hwP0qKy2xbBkOtOPHCH+LqpQuop1MoqaY+c2JWQafade0SRoaGkKD+z/Z3oO3jD9Db24fNBx9B7b6H2LwyN6YCGTjw3P0ntKJJYrKvC92dbdi2e799ymQ5mfh2ORk7msmkJmacDIz1YIq2BiOdKOYKy4/3XH060o3ItnDFMUUn0Lz/AVQ8+gxqqE+JeraPRr/l4IOo3rmX88hBDB97BbNdnHyyjopte1H7xW+gtHk9Yj1d9qjydJKTxzKuyDZtQk1dA4qq61G9dR+2HHmCtq4ESa78hy99hER6ysawf3R4PvQF3+lMwj5lEm/eiTI6oxI95aWJJFeDNv6CvKvBbTmQfJbzHcjo5ZNIc9ZQTMOkLkvQEM2ND2KsSzMLCq3jPKZbz2CmgwOw/RxmuSLQJ0xmOi4hNdyDYn2MkQJJ0XiPp7maoHFq3EsHUuMciOqKcGBGJkbR1TuMWONOrH/gc6h/6EsoPfgZJLbdT899gMLfjfjWPSgvL8Z0Nwf4+BCiXEUkRTcZRc3G7SjbsNko2qxobggjutdx4ShKOSMs4ax6NFmCscptaH70m6h77CuI7DiCKGcLZc3NiNMIT3JWqSfN1IGahU1xmSkHUk8HUtpIY80OkmSiEa7ATr2KgROvcsU0gXJ2YCpNBxmvQe3hr2DdM7+Kon2PAhv3kv5OFG/aipLkLIYG+5DiTKSIqwwt78do5OdKatGwdSd7T5rDmW6KCnn8JYyefhtV6oMIjVikAjPlLWh5+EuoffqXEN/xILB5H2Jb9qJ0w0ZEuEQeGqAToHMqinDmTIc4MplBvHYzqjZsCwYUnZM+bsf+Gr1+2s2wmRC1dXEEc4lqxFoOsI4vo4qyqdh/GJU1NZggz7NTXE1qS1Jtp0EeJ5tVzVvt0UbdwxJuT3XXCs6B9F45RweykQ5kO3sxd99qvgPRbM6i5ibtkxvXTr6P8f4ezM3OmW6NjI6gvaPNnrBp2riFdpcThK7ruH79Mkqra7B51252TzlXIeWoL6/E1MQ0+rs7MNDViuFBGlgair2P6aN7Ryi4UtbnVoMLHZmupXd3yoG4b2FFuRrOORD22AI+cmXmhrrRfoGTx1kaXdbf0zuIzo52tq0NPZTJyPAIqmgMyzX5ocw7z53ADA1ly459KOHsXBOb4irOsjlpGuEMu7ezFX10AJPTc9i0/yFsfuizQEWDbYVpYpYF1dHYyvKmEadvYXkH4r6F5TnNHQXR0ioir3gA+xYWHQhGezFpDqTLORDSNsObV0CntmrXuJD8OUlIrOdkpGEjJwKbUdK8GbHqamR6b2Dg3Rcwcu4D21aeY/6iBvbbrr1clc0gefkc7RQnd7QRg8MDqKGOYP1mFK9bjxKuSjURnjnxJgZOvY2iqUGUckJn9ifgI98qi78UbcEM+ZkoqitwINqJ0Jb7Yv15K7jtjyl6ODNJK2ErkJO2AimmAdGsnHNSqt8sSjMzKOPMpjQ5hvL0OMMEytKTDFM8n6bizJiRsj+4Qsj8TGgFUrHOrUACByIh2SOTxVWo5CytZvfDKN9xGKjngC2mosS1daVQbLMVVCYQab+ISS759EZskgLlXNHeAi6joVbv69FXTHVh7PiLSPde0xP+NoAHIvTcOz+DzU//MlCznnGiy06t4aygogQzAz2YGR2zpaQ+4+wdiK1A1nFQUAYRfV5ttgdjHzyHubYz7HR2aqYE49FaJLYcwbrPfAvRFipQrMLxHeeRChgt4WpmeAjTQwMojXnXWUTDXclV7U7OZMkHaWPoCgY5o4n1X0cxFYpSxWhiHSp3P4YGGvdI/W5kyHNE9BOcFVdUopiGbaC312ZDZXTG+q7PTJKt5mqvYQuXyEUyQnSq3oFc40xbxooynY1UmuNLbH0Q68l70Z7HKHvKkcYPjfWIcTUz2tdNQzLLyYOW/JQul/HFdZvs8wucfucp/O0p8O2DujZJB3JZK5CbO5DsNX1gdVkRGtjHzdv3o3HHATTt5HHrLqzbvAN1nJwUaVbNGWBxcTGatmzHhh17UFxRSx2inCMliHCG3sDVbCMdehP1sGn7bjTv5cRjA3VB/RQ82cQTV2cBFPdJO5ClDI50nOM8HkMdVx7N2/dQh3ajgROhJupSy+btaOZx/bbddB5NXIGUklQUtQ3r6DwOomrdZkTsvganG1yhlK9rQSP1pKZlI5q37sZ6yqSB4zuit7MjzCOH6io2ZFnKnizlQLxMCtuQm8joqBCMNe290RliTA7kQuBA9Pi9cyDz6aiYONMka5Kr0LHODky2tXH10orJVk6ez3+E8bPvckV/DmW0gZpY64nNJCcfaU06Lp23m+4y+SXRJNKTIxjr6+Gkux0TN1j+ymmMnnkHY9dPonhyCKUqL59V4EBy0OPBWoHIgYxzspdo5sSXsi4OViBZB2JG1bV5UULLYHVadlN4LjL2VIVeNEpyVqHl2owm+hx92pSheWGQa5FBjZo3dqroBo01bkGD2FCbgXAQVjTa8q9cq4jiEuoNO1x70vobBHO6WcUwN8r8SZTQGEfjXH3omX3+Uw22RCUtd/+CijLYw9lzLzlK0xAnOIuks+HSr4l1oJIDnzzadpw9y876Nu/HuiOfob2vIQXRyWfWeoVIcpBPAL3XMd7XSf44OCmPaW2NJWrQsPMwYrbXTWjGYzfFOUjkqDbsQcueI0jR4CSTlAoHThFXDMnRIYxzie+EM4dU5zVOkjrtxaSUHIFuyJXVoXHnIUQ4uxEvJlfWqbeoEeFg3bIPVRu1iqFhYJ1aVRSlk5hh+1Njoq1BKFn7PVV3mdTfJ6CjiTbtwbYnv4ri3XTc+uSC8ojvknqUHTyCqvVb2Z+UF+nqW2G66TfMAZ2c0M1RB5W4V6At1lsCdaB0/S7U3fcUSvc9jtL9T6LYjo+h+uDjqNhMnYnLUJYgVr8Z9dsPoZKD1+JM+2QsOUngrLB890NcvT2GCh6Lmui8E3r6iunWvwsGwD0GN3vXlhJKa1C29RDKKIeSA09QD55AxcHPWKilTKp3HEJJ3TpmZvu5ii7dzhUr5RIp19v4WpUycNJGxUR822FU3/ckKg88jvJt9yFa1RDkceNMtsEH/rhw2whoGL3sVQ5SEdNzjSU3LmxoBOe6kDHXn7Monh1DpvsKJi8dx/iZtzF66g2MXTiKZPcNJGYn2LuanHFiTdsUH+vD2OXTGG+/xGGid6dSiDNeuyCZ7ksYP/cuy7+JUTqf2fYLiE8MUhJJspNCKqWnt3I8FJxz7Plzj2g0kFkBcum3CmnyGkFM+BAYHyJF5zBFY6vtlLnGPZhatx+TjQcw0XjQwqQdD2CqcR9mGndiurwRszSYziCrL32DCxvpnIxOuHKY60dm/AZSPSeRuvYukmdfxezHz3Op9wKSJ15C6sRbmOCMmHbbjLSkLKG6GgTFJelDxpCcnKAx1ZMVnNvTWGZoiCsbZYQJ8iEjrof0bEYmZa9vts8OmN03GNfGv4Oc1DQyo31cfk5ScRjPuqk2yHA5XqwZY1TGggTYJHub18rRSdHBgA4gVlLm9iupnLYKmB7FzAQdo+WcxQxnLemZMXuLV8+Jz9BR2GcOanUPxs0c3bsprEAzONGOV6KqictqGrQ0HalmI9rbTU2O0QfrJUn1oZBtGDnnjIa0J7g+izdyxdHMFR9lZDeRJBOdy/BVcnVGQ5Gmw/af9tDnaVLTE3bfxcvIhU8j1IfqLLVXa1W9Te6PchAKkjvT5bT1iRJ/7eNMf3UMJiNWhpMGy6c0L3cdc33wyWMlfcQ8tjJQWxS8DLxcfHDt1wtzuXxsr5xPvkxNXkorD466VplPAvntzZ27XsgZZP5fcG5Paen+CCdi+rhNRWQWtbFpVKfHUcNQRTtQFkmimE3RVFRWQg8YFaVm2POzlJb//BPHDCfcug9sD8NwAlrPUVejJzS5MimLchrLcqozy5kdcuc6EyxKR3fIw8KY1WCNeiXLbl7QL2fEXKqPZSpQtv1h7Pjqb2DHN/4Stn/9L2Lb1/4ij38J2xh03Pmtv4jNX/uv0XDgMczFy+3DdIvDKZuvITM1iGTrxxh//0fo/tm/Q/tP/1+0Pf/v0fbCf0D7i/8RbS/+F3S98RNMdHVQdbXycKZdxtDeKjaQmjptZoqdr3sNzgHoo2bJogpOCPVdHmZxlQZ1S3SB+Gh8LY4/2S+TZsFIKsXc6LCWPIjTWdBUU31oPEoqEdNNZT3dpfqtVkF3ZALjwqVmrIjOxkrQgcRp5OcmMD2lJ1eYOzmDpJ5i4Qyf0mCcFthxxMtrONnVY6Cio9YGPFmbWR9nxomKWvouDc4A5CE5R3p6yss10qowumobLzX45xRUTo5PQQbBVoU8F+04aZdX2fJZrVI5cZHWi3NzdIAWk+Xo3oDv3JVCcjRD6NrioGvJQK0lskk+3fWF6wPBH1VOaTp6muInrxM+cahOBtPn5eFHlD+6kN+eXFAeNwHzcYSXo5epXXvk0/yEkC/2bF8xmjpi/3TkWHFHZs7qjkvXhEmrCD3Iq5VEIkInwZCQ4Wea+yuBzKmJKlchlleORzaAtLR1ZisLBsUnbEQrOMcRZXm7aR7Uv2jIW324p8YcjzrYubvMA9u5ChHn99Sq4OpcWLP4k7LoPsYMZx+RWs7iuWQtsnA/incw8Fhi54eBbQeYvh8lnO3rkVa1UVS9EAqhGS2N3HQ3ps+8hcvP/wE6j76I2dbTiPRdRWy4C7HxAWBiyPaH5RjAWXaE/SOaPhRACqGXcihsvyxOyyDqee0izQotU3D0CK6zPOaoF+Rkh8twOtoSuQYSVxQJzq7inJllB4zqdeekaL96Qzca11NsLlZ/gF+PFNubqoIpWpKzH610XCmthvTRuogc0wIEPLJtMTkBrnjy3HH2n8uXUw/F+G6QU9A3e2xwkR8hN86CstEY6VPlA3nqM+dp8prNdi9hgX7dKkw67jSLvJYWNHopCSjeh08TPL85PVquDfdmC5fpf68bPNipBY4Qi9axMFjCvLiC4P8F146KCw5eQk5KyqNtYOewck4rdy2H5OJyjxj769y5q4A9FBztf3bQuuvV4LYdiLBY3bn5pXMic7bcl8HyM1caZR/8zJXGU394XiW1UeRBEQQNFzWZXs5iZwcwd/YNtL75Q6TbLqB8ZgwlFFgkUoRUSS0i9dtQvHEfEhv2ILFuC4oqqoyOKBRCcS5I+L4DJNw4DbB3JgvBOBVTGdbrkKNVUCKlGYWMvONAsOGm2Z3ugumcdbhSQfAN5jmrsKP+afUSo5y05eRMubKy3TrauWJ05RzJQrg0eh2emmR1YQXNwfE0tzIjFml7UMLxbnwQlk0/QX7y6LbMeC2mGCwl264QS8PL0YebYZ6+3QXc7frXBk6zTUMXVVOmaZz4K9NldxWoeAA3Vgv7cF7guNDQyAXFO+hU9yo0Dn1g7BLh5iigvViZlZFZFMHoX2vIGPqjAhdztreprRjOSrXXyaoVz7UEnYa7lj1M6iNzvJJttV0RUcp2jCDDRwcy2oaRs28hPngD9fRB8UgMs9FKoHEnig9+Hg1P/So2fvHXsfHLfxZNn/9FVG3YypJ0DqQgeXnOrLcEOjV97dOtAJwC2Ofkk1yVzHK1sxhUljNtt6oQ5RyjeX1mTcvE2N7AYBsXNOCZ2UlEjHaOK1e3oDi2NZlESjf7FcMobe1pIaw/SWl5WJGtNMSDLvlPj/tqK0ork4WQdBXmkLY8cpgsJToM+jy00S5ogOjmoHN7U8KPGEXYaZBLTlirOS3B6WDkOJNafXAlZR/FCxCUvifhjMPdhGQZyHMRFKaYJodYNbw0nczd1SISDaKUw/Jw3EhNnEtxwamNG+c+brEg/bKVQ7B60CRQEF2jqbi8f/llCwPLBOwb93nj1p2xtGPKkDtbG8jyrTk8k+YErBmqRsE1yTdRR+sKazQDGxqh9XNfpwzidMiDUtxb6G2Y6G63G03aHRxPJjBX0YwNj30Z67/6X6P8gS8Cux8FdjwC7DqEaHkF83mh+6CDKqBR08pIjxLSGKt+GdlokvVMjQR/2CcHY0k33WXg5Qj0hi0jc1T5qxPLyJ9ECYrKy+nl6DBttSA3Sic4NYzZ0T5Ze8ZZZktzLkK0Wf/oIOam6WhEn7LR02qx0gqUVtJZSha6p1JUwjQZZjkPd2MuOTmClH0OwnEkmCJp5QHynp5mu/rpn8iHlz9Xgva2eolu5qq/gnYEkAPU3msRQ5zOB/ZGvMvglDxwTvrTpkP9SM1O20xKj6NqRzheUo64npaz/PcuJA7vUJdHILeCcKeRq2N+bZ+ETOfX8Um1ejW4Nd6WzunbbKZCRwX+KOjCn3tHYF9avknQal+F7J+Otl2Qu04tUmZ+sDzmgBxXRiH3YwfnPBxNYa37ak0ciGMtD+TSsZ07XxxBLmuVjs585n/B182Og+0Qj7lpzNCoZ2YmkYjJ4cQxmS5GYt1WRDfvB0rW0VjrjWeuKOQcSMitPhREVeDRJKxzrY7oQIor6EeKzNHoaYriyDRikwMY62lletLizEDqSaiI7sEMIt11DbNjw+4bP2ZwHH3VRa3gGeNiZSiuWYcEHZQ4UFQJV1HF032Y6b0Gff/IFXI8ittImnFMn+25aisVfcZadxCmo0WIVDagpEqPPpJQvBRFVY2IFNFBsX79YZrSKJ3qUAdm+0nbvrQbKJAeqU7L8U0D4/0Y674BvUgYoRNSy+bixYhXNwB0UM4Z5MO1KxFJojoyidjAdSRbz5F30qds0nKomXELGcprrq8LCfssjUomkIqRT/IdLdaTNeI8WAHeMzAlzOLedB4eqkuCzclPZ3dCmk4OhW27l3rtziHXZidtN4Zk53X08rag6/xwK//yy9i5EfQ1LvvP8vjyvMzRciTsTDaFF9n7IUxbS9yWAwnU2BjLolDXAlguBhklf55Xxp9rthoQyDVVLMoJ5BFmL0YYbBOMCi7novcfEmWcOeslJXMXdAMy9JxpY3wAKfub6qyfzinrRuSo9Oir6tB7JbXraIxrMKenhyhwfeosMTuIoevnkB7rZS4ZSc26dVN+GOmrH2Ho5Hv2ldw4ec8ZHVFnMLmQtpyT3kil0Z9THOstogMqne3FyOUPkRpoI8v6uxwMop+ZZZhApv0cBq+cRiJJR8YVRorOYzZRiaLGTSgirw5F9ihwUVWDo812l2IGReOdGLp0FJkROj99tI5xkcwURaz3ZCaRvn4aE60XENdTIHQgc+RxNlGB2k07gEo6J5M3A2nmK4m+c1UF97Xi9vefw9yF42R3gI6CdFOjyNCxzJw/wTZ1o4LOPcoV00yKtKNlqNXbuHqzNisfI3mXwTaq33zXhShEIJdPp3huj2tncPOMrp04vbWhZj+Cr0fH1QeRyxn5xfPMD/onWLmAHUfHndghy/Da47YcSCE8g3kCXwDX2PlwQmDIXyMaHUepcBLEkziNZmmZzfq1zy6jVkKjOzPQiXRfO6fSY4gmRxGhkc8MXkLyo7cw1HGD+XRrPljlZOkHqwQ5qfIa1G3abh9i1EZTnNPniugMZmjI+z94Ganus7TrbUgPXEDy/JsYef8ljHdc4WpCT4WRjkJA3XWY6Or+RAmN8jpUtGwh7RLMJemYOJMv52x9tvMMeo89j7m2D5AevUpHdQPp4cv2tduxY29guvMaKvS5Ahp5GWLRadi2m46SM3lVoQcT6jeifv029+IeVwKJzCSqaeSnrn2MsQ9fQbLzOFLDpK0/itV/Fskr72LgxJvAYAfdj5wtJUgDX1y3HvX2V+PIc1Y1KDHWEzw3hhhXMMWRWfI+ium2U2h95/uYev9HmLvMes69jpk3foqBcx8hPjtOztL2pJfe69HfeK7Rh/DsiTZjnL/8JyW/Q8od4ucdt6NXLOv1MjgW6KuOPim4vtXg9N6F/PPs9U2C58VtfwmcHLslkp27bAGt7OR2bbGGDsTDMVrgCywuF9yc1l/rV0fGcSVhbQ9KuaM2brjiCARg6Xqbt67R3jWQydZH/qpis0j1XMPAh29h7hJnwK1nkLz4AcbeeR6tR2mIh0dYQ4zGkHQCQ69/RsD4YSiqQOX2g0jUNGNWtyDSac7mp1Ey1o4BGvnuV/8Qo2/9AMOvfw+dL30Pw9cv0QBrls3SIiu6YtPY54nxLNo0yNEqlO4+jLLmrZhiJ+tVwphoc/Y+8PEruPHc76H/NdJ850cYIf2ul/4Qg+c/Rnxmwh7bnU3FMRmvRj35a9ixz9E13km7vBH1Ow6iqGE9kmyfHnEu5QqmbLKHzukldLzw++h/648wQmPf9+ofoOv538fUjXOosM8ywD62NlNSj+a996NYRl4oUDinhD5G96l0V6MsOYJI1ym0vf4dXPv+b6PtJ/8JfSfftY9hxu3LqxlMp6KYKqpGw879XDm5b4M5majX8+u4iyBP9wgnt46Cfgrh4GRihvN2kCdbb4gV7HFZjnV7YpPBnt7018qzwn9+XCkERsNgl0Ge5f75PO4FRlfe86dLT1vhTmmJRvJtw8lZDeCJZsFptxzLNpDRaWXS0fIJKpRvRHhkUor5tB3l5rtuxWA3nn0xrRQ0667biOJNezAdK8FscgZFekOTBm3kwlG0v/aH6H3jj9Dx2o/Q8fEHmJ2YQqKyDqmSSpo999SUVhjuLemAAz0Zpk98NOvbWkcwV1KBKT1FhDlUxyZQOdmOyQvvovNtzrBPvo3USD+m03GkKltQvG4T0kUlZrz1oTdzdkZb0N8EEM+ceTfvQc3BJ5GqXo9ROqg5tisWmUNVegyZzrPoP/4yOt/5KXqOvYoknaHeTNVfehtPxtGXqUTJtiNYd+BhoKScKy9KUvWYpy4GNh1A5d5HMVNej4k5ptGAy/mVTw8gdeMk+ulI2t/+MYbPvMdVWRfTuGqKJTCaLkJ/tMbeyanZfYj+iLIl3FMhcojsC9c11kXqR73pPhvnqoorI323R3JXPWXTQ3RcUyiOswxXh9OZIgxnKhBZtwN1Ow/S0VUaSQdNC/hPyq12hFgFsoPiE8TdqPMuI1BPb4z54yI8vPoG48RnudWg1YN/p2N+2tKBP8E4kgOzSLt2zsyuGRTrGM0Pt4+1cSBZhkhO73UUlSHJ41Sac+x0FKmo/3yBGiKDoVKCa7i75K++o5+g2YsWYyITxxSD/uyj3mi2PxGrXFaY59XNqH7gGVRx5j0dK9ZtYSQ1o54dxmTHeQxe/hiTvZ1IpWIobdqGpkOPId64CWM0+lOM09w7Tb6CynkUfzSeNO6VR55E3d7DmCuutKee7AW41AxKOLPXhwcT5GE2UoJM3WY0P/wsyu97BLMlNZikyde3vTL6iKNoW6+5DjXZlNaj+NBT2PjwF+ybR5PREvKhd03oAiKc0esPSkWSKNGdZxruSc7eZ+Ll9in5mn2PYddTX0fp1r0kJ1lJ1gye75oNqCbdliPPIFq3HlOUpftL6ml7C7aMzqg8kkYJK4uSx+lMMSYjFUjWbkbdwcex7emvomjjNqPnnEfAt5hTHTyor+xTJukEVyrb0bDvCNJlVeznCOiz6EAzdIqUDeuejBRjLFaFOB3ytoeeQs3W3aShFyJzUwjpdog7Aa/Ua41PS4cFurtWICnpav7b3X7bSPbM0iz4dBnvTyKoUmPD+DDM63rFKlvORq+tbqzB13jlAIxNBmfkU1PTnIlHEatu4UphK43lbtTuPIRyztRlRLSfroaYAAQaKGsWr+M0RHP6cKD+yAoNdKpuC6q3HCSZvYiWBfv+yqxjVRXKahtYvJgzYhpElpXRlMPKsHyseiOqdxzGJhr52J77WaAU4+kSRGo3cVa81T5kWKqPDcpBOQ5Il20oq7TvW8XjpZihEZ+gE1SYi5ViLlFln5cv2XIfNjz4LIoPP2GfJJmcStsLjNH6rUi07EOdtpSq3CdQ1C7ze6qjqBSJ+hZU1zUjnSinsS1BirxP64u1lN8sHa85jeJac1Blmw6i+f7PYt0DzyKyYRenKXQWcTlUJzvHtX7Jd2kVitY1o7K6AbMxOvFEhTk1OeK5SMKcXpr8zxTXIUMZlG87hKYjn8O6w08DTVtIRg5VDkm0xXOSXmEC6DiH0aun7cNvSa7ShjNVqN71AKof+yybU8MVEhgi9lfTJpk+U9KAdPUmVO16CM3ku3KvVk0V5F00tUITz4Jbrd3dFQjbOqWv8eY+5y5nfzc5Wjmo8Jwc2Nd4r7iv8ZZnv8a7uha4UnMaxPY13liR/3sgAU3rq+xoWQQu/e5CE6AkJ5Bd6Olqw9abfI13IdzY0rtLeuJTf6J3rP08UoNtKOZEUl/dzsGtpG082n/ZQ2cRPxGwKarPj6GsSQ2aaF/j5difLG5A8fq9KOM4LymlDSoq4vzTy2P1iNCI31ZbneeT0NRpQRjrQ2q4F7GotqOoeEXViNWs41EfSbQ2G1zVQePpUe3ditQkMNyH9NQYomy8PgQfr2wE9Bls/f0LlVFn6bskNLnMCP197mRPK0b6uzA3MUJSFEyiGiU161G7eSdQry95UhmGB5EcG2F9pOsffy3VU0FcZcjIkweznxpAelppfACZ7usY6evEzMSYPp6JSKIMpbVNqNqwHVF9RVc8zY0Bo/psyjg7rAjpknpWz7SEViFOPk42PNpjtDzXy5ATvUj2dmByqBsTQwNMSjpZxEsQLa5AWT1XQ3Q2kYb1rIfOM8U0MWhPq4me4M5Vg+QXkUHRI8DDPZjt78ZYP2UzRSegd1rIiwxCpqgc5XSc5U0bueJiv+ijkJK/Nd47dtHSo8o9SL33fXS8/Aeo4ApsKlaLG6kGND38Jez48ldYLoWZjhsY7m6jzZkyGRWVV6G4qsH+3gq4GrLPl6tPTKtJOzsATdh3EeKD7R44j9PP/SHW7X8M6458nnFuInRvg7zrKUONgZ5reOelH2HnA4+wDY8zzr/Hs3L4HjHTl6H+zAzi5Is/QaKiEvue/SZjSdO2edWH8x2ISucouHC3ID4kl2n0nT6Oj4+/g89+/ZcRb9Af5/L9ehP+pP8cDzP6/NAkbUbbSXS/+33MXnoXVXMjtEgcY1mIFvMbSbcFZe8+fQJwEmddqj6oP4j00eY8Rtl3g1V7UPnQL6Lx0NOoqqm1vy0fj9M+3SbW0IG4KwcZNy9kKbKbvWjZpWPOW+ZdGxldM/i/KW1SkNLKcbgy1rk6tUvWIaejmTINHjg7sD/JKkWRUdTTT/rzl6YQAU3r3CAYTd2j4JXYVJU27pSX9Ox9D9HVY7Wqi4mipy/cyigaDcUzn5UTdKL2BspqxEUvOFcZVWvvlJCuDL7o08BnefP16GEBnYuWfe6FIAmx7eY4yi/ow86uJ+QE3QxJjSFdWfS0eNQ14yVr0dLfTIG+OaZr8cp0y6P61J8sFziQ5Lt/hK5XvoNKOpDxWD2uJhtQ99CXcPCr37T7MUZXdWhZr7/THpOMWIfJKma3g/QVY6fl4o1BB7v2bbhbIHPmQL6HJjqQRq7InAzudbC/qXdat6L3Gt5+8cfYZQ7kMaZRb7LGcuWwLrG+8Q7kx1kHYl/G1eqc3eXm2PkI+tRwsz71+RbDWuiC6FN3zYEcu00HkkRmYhCp9pPoeuePMHPxXVQnhzlqNHZlt5RZq1Xmt3N3H8Jm9jbuFZeH5Zq+CpjV5X+RdfYgQHCqoT0rB5JxDqTqkV9Cw33P0IFUozRwIPNZvFXc9khxquSDyCnI2OlxTRlSBcemeyHQTg3uOoiw4ixrb1QrBGXNcDJR6ZZH5/5CCq16NGC4kqBxQ6KJgbPqmP6cqIw8acpA6p6E7s8Yb0EdZtTcweCPBqWrPAcOZ93UQNKtC+iqPmX2tJXPB/GdR0hsOsZdXqtM5+RDDs7TL9aKhXwnuNoqYl32IiTT1T4z8AHErz/JQvc19I9Hy6s2ig86CfGbIP0iykZ0EzzGtbUmXt29JVGyQLk60foY8anvbjknK8U03WSSnsSytmiFqTZESTOudlBGcfUF69bb/eLL7tWInhDQztZxL0BarLYw6EhoXnWbc6s7C7JW8HKtl2s2rBZqsyYSCr79hXJw1HNxOpMxywUfNz/46eZS4WbpyweHXIyPc1+WcLytDMynMgxZuv4GdRDh9IN57MiD7o9oi1b16FzxQVw2WN5bCUGVSwbmIV1duPy6L6L337QjIX7dE6y6ZaCv+0q/Yxzvro/c3UiWvi3ka+CqUehEfBBpGTOd52P+9Xz4sgorzat68g2nzn35+SGftsJi8Pk83fwwv+xi+fLp5ufNh+IKy+lpLffElkJ+PYuVL4RyyIHk+mIhX/rzqLnr+XRz1/p1iuXidK6x4lY5VD8OLPeBN9KTgxPPFhhnYT7vCvlYLO5uQa1zA87fV/o0wPrEWxKKUv2R6/vVwZXMlS+UhtUYBCGXz9Xs/7mUxcPtpi8fHDyPXkdJ01j2OXI5l4JRoHNWkBtVjPsKBUNEBjoIvLYXloOgL2I7s8zASucHPdCy8n9ZSksG/RNvtvWuwFgd9Qcd9F6aHqPXXxpVHD0N+SO3LOJKOeSfrwYa6SHuEbgVwM0VfLW4JdrZvOSJqw2bj+YVd7MvRTAor53mnX8qEAwf8quvDETTM7QRDMlZe+pOAUm9ub/SoPzLh8yi5VYW8ss6/mbp+7RlyzZwhuzEvhbCp1lg37qpBo2mvpdGmXjZFLZJ1/lBceLRH+eH/LLzw0ryLBVUbpJBX4lQ0PONznB63IpknGYEJajTaa7C9ce254KQ5Kp6jpksMJ/FcXbv0mOYTUcXhDlOsnyYvUnQS8G3FvQkJEP+tY4Wx14kb3oEX67JScKH28Nt3wMJ8ccFbsjkIEWjQdDfXHnve2gL7oFMRurRmlqHdY99Ffu/9E2gWFttn+Z5CA3kwHlc/Nl3UNGwHvX6E71suv/7Kn6ImWSC2b5h/qixeP1oXrhwYLoYpuWRuFWoSpXNTQT0lyQzSI4M48OPT2L/48+gbt8jjNf25Gr7hLXoIYypPlx5+cf0HZPYdv+DSKUSrDvGyYRzLsrn1gt+JuxgVya3+a2cL7DlML/sSqA65URVj1YKQG/rDVxqbcXTv/hriNXuZPzKZKI+EhW7iT4xhFTXebS+80MMn38P5alx51TZB/ZBxKAvrHX8yW+34ryM8qErF1MYnw9PJ0dtOYiOxqujl19yDgmMoQTDVdvQ8ti3sP7QU6isqkZZeRmiMe1ZuJwrq2chQgcSIsB8NeAgofohOYjJYz/F5Rd/H6VzM5iO1aErs86+enzg81/hFLWM41Jz1U8r2O7R62h/4ycYGOhHorTcDKCfucpYSzL5A2zhgFF+F698C9Nz5W93hZlfhzjTVwqm2U16bPu+Zz6PkpYdTNG9vtU6ELabEwXMDqPv/VfQefksSivL7W/h69F81e2bkGuLuHGt9m1f1KxEFombD3NOy2ARGj7KlaQjYd+p/qm5NKI1Dbj/2W8AFeuZ4vj3OZeCdyCzs3P2RevZ3mvoOPUWhq+epkMZ4eJmCsmU/ia58uk3Ry//L5IuVot3t+53aeSoLI+sg8rLrK0rbXHpHlk0UYJkogzpui1Yf+RZNO24DxV0IKVlpdaPK61nKYQOJEQevCpIpWRIaJn0JFb3OQycfhcxDpypdDkmi5tQv+t+1GyTsdJ9p08xtNLgrBID7ZgaGWJ7AyMTDIvFHQhjFhk1Lt/yw/E2/UcWri4aCnaTXu7UnycuXtdM31HOFH+P61YhqmobZaLH40d6MTvYS1+aol2PWcjJRvn0Pzi3sAIsx5aRUIabZmKWvPp46ku4I+Wi5FgcieoaxPUoOR2s7gG6Bw+Wo+8gsziXTCE9O4mJ/k4MdV7DWH83xgf7MDk+5hwI63DTjABZPlQ5NcFXo8sAd8KBSEezeXmiG+u63xGPJVBcUoKi0goU17egbusBVDdtQGl5BYqKivQhiRXVsRxCBxJiUbghoF8Zkwmu50cZqUeCObuNVzhDZUbFqeDtKuJdg1Ya9k6Rb4GO+a3R+WJDJD9ufv7lsNbDLb8+miWSX+0qx3GmrSBBMlGMnJE3d35VU9gGl78wbvUQteX49/UsV5/SxKtvA4O+pyS6ciArkI+eZErqz2DzODk6jJHhAUxOTmBsZBQzMzOwvzAqLxX1q5p8zr2bWBo3SxduOhnxx3xSbJttrRF6TLcokUA0FkNZZS2qG5tQXl2LRHGx/Ylp+4K45Vw9QgcSYnmYdui5ep6YtvGHMzmpjZ5SKZj9fOqQU30bBWqTs8AuMtsyN9xd8zlA5w2ZQgnkTMN8uRSWymF+vpXCm3pnwnJ8Z9m/TVgfuxP9zzFq57zwDVrJ1pRhJflUyRINyNann0JaYmF+KZsA2YIjn+YStAsg2nr0NU0nQUcyN2fOY2Jq2v5ianKOKxMenYMKODEBBXpi8nD1eGduKZbRIacliyOnU8vza6l5+mgrZlt+UTvo3OJ0FIor4UqkorKSK49icyzReCx4Su32EDqQEEtDmuE0NKvuwaU0R2eEn5V+WuGMgGuZQrbRt42lhpYN8nmD/t7A4vwuKw9fZLksbOtKmyix3LI8FmVbkaRzi6QcHEH/dV0RmZ2dwezcLM+p74picO9buLy+P3Xt2HcV+7bMdyArg8ou14BgCpFHV9U5VsSH3sFy5eVMbDUS5cpDn0LSwxBrgNCBhFgGOdUIVDVPnfPVJhf76cNi6r+wPc4Iung/ZPIN3fy4/PzC/OuVYrXlVofFZCEU1h80lXy541JYCe8rbd8nKweBJp91+ramdR/IeMgZXl0vioBNn6xL72h05ZrhJhHZNrlM9lNINkhXouJ56Yr7eJ5akqPleM7RtaPPG8Trxd5svbeJ0IGECHETaCY6OztrQdB2gG5C+oHqj1NTU7Y/rv3l0tJSO/qBKhoKk5OTll/lRcenTU9PI5nUVmEhtN0gWmvx4bu1gjcZ+UbIy8Bjfh5dK+S3w8f5PIuVF3y85KTz/Hx3Evk8LIb5fIg/weL5320lOXhaLq1w09PTkROwbEFe/fptJn2rzyJUXIcgXlfZU2K+TA3+PKBbkHabCB1IiBDLQEahs7MTH330Ea5evWpxhw8fxgMPPIDKysrsgO3v78dbb72FCxcuoKqqCo8//jj27dtnTkIDdnx8HGfPnsXRo0fNiezYsQPPPvss6urqMDExgeeee87oJxKJrKGUM1K+r33taygv19NV9wbk6MSzgngtLi62NuvoofixsTFrtz6jIf6VR+3Lh2ShfJJTdXV11vjp6OuQ45bDraioQFlZ2ZoawLXE3NyctVX8id98qA2K9x8w1LlvZz7u1bYthdCBhAixDEZGRvC7v/u7eOedd2wlIGcyPDyMv/gX/yL+/J//82YQOjo68M//+T/Hxx9/jPXr12NwcNAMw1/7a38N3/zmN82o/N7v/R7+4A/+wIys6LS2tuKLX/wi/u7f/buW91//63+NDz/80NJ0LSP95ptv4uGHH8a/+3f/Dg0N+qL03YX4koG7fv06fvSjH+HYsWMYHR1FS0sLfvVXfxVPPvlkdmXW1taG3//938eJEyfMeO7evRu//Mu/jPvvv9+ciGSisj/72c/wgx/8AJ/97GfxV/7KX8nWIafyk5/8BK+99hr6+vrMWX/+85/HL/zCL5ijudeg9hw/ftzaLUf50EMPoba21tLUFk0u5AAlo0+bk1gOa/D3QEKE+OMLzSplFLWi+BN/4k+YAZRh02pCDqCmpgb//t//e3zve98zp/K3//bfxqFDh/DjH/8Y58+ft9WDDOA/+Af/ABs2bICGm4ygnIwMrAzrwYMHsXfvXjOQX/jCF/CNb3wDW7ZsMQdy3333mXG+VyDj9/7775vz2LlzJ7Zv346XXnoJr7zyijk7ORMZzH/2z/4ZXn75ZTz22GOWT+kyopJjfX09uru78e1vfxu/8zu/gzfeeAPNzc34+te/njWuV65cwauvvmqOQ/KRLP/Lf/kv2Lx5s8nkXoF3eFop/f2///et3WqP5CA9UNrp06fxp/7UnzLH+1/9V/+VbeOp3GLBt18OKf9a0KrOxyn4MkJ+vk8S987GaogQ9yC09SIj+Oijj2LdunV2/sgjj5gDkKHUQJdxPHDgAP7Mn/kztlKQkZQxlBHUttTJkycxNDSEv/AX/oIZw02bNuHP/tk/azPx9957zwyDaMtpyEDKwGqFom0dzdoFbyjuJryRUvv/h//hf8Bf/+t/Hf/df/ff4c/9uT9nxlHbfMKpU6fwwgsvmMP9O3/n7+Bv/a2/hf/mv/lvcObMGVvJCV1dXeacf/3Xf92c8nwDuHXrVvy3/+1/a2W1kvsf/8f/0WSg8l4W94JMPLTdqG1M6UN7ezu+//3v2/adIOei9vb29lpfe4h/rc50/0uy8O1RHl0rCIpX0LW/T6Zr5VN5n+9uIHQgIUIsA3/T1w987dnLEMhRKMgx9PT0mMHLv0+h+x8qqy0NzZ51Q133MzzkMDTrvnHjhhkBQcZH0Oz8u9/9rq1ONKsXvHG5F6CtGW3V+YcA5BB17vnXSkPO8Utf+lI2z1NPPYXGxkZbuagtu3btwl/9q38VX/nKV0xuMozeiShd9zpUh7aDBMlLqz1vOO8FiBffL+JJ25nbtm2zyYbaqRWUoHi1TUevT3Ialy5dwvPPP48/+qM/wosvvmh6IkekiYm27rSy0xaqysg56T6ZZKuHNURPTumnP/2pbZ0t9gDGJ4HQgYQIsQLIQGiQamatmbQMnxzAwMCAGZH5N4d1rXg5GO31C97ACqKnPErLj1eZt99+G9euXbNVjLZwBG947iWoDZr9aktL9260DSfIKcpxyAl4aBtQKysZQhlAOQa1TTL1DtQjfzUi2UgmqkOy2r9/vzljYf6q5ZOGdx6CeFI71E5tU+la987kELwDUR8qqM1atWq7U9uef+Nv/A07/vf//X9v7ZRO/dN/+k/xl/7SXzJdE+RgtCLTPTOtTgXdh9Kq9jvf+U7WgeTz9EkgdCAhQtwEGpQyAJoh/vZv/7atDP7kn/yTlqaBq7T5A9eXkfHIv/bwZXRT3TsHGR3NPjUrbWpqshuu9zLEv278656QboJrK0rwDmG+TNRmyWu+I82XSz5UXrLRiu8P//APbdWi+0T3CubzrXZpwrBnzx48/fTTNhHQSkRt8HqgcznY/+P/+D/w+uuv48EHH7QtQJXRiuXf/Jt/Y+2Wjmklqnttkpm2QbXSlQ5qu1COW6sRbZP5p/2EpWR5pxA6kBAhVgDdy9CsUDNK7cfr5rGgJ2u0ktCsWsbQQwNbDkGOQDNvP1v3kFEQLa1ivHER9Jjvu+++azffN27cGMTee1B7ZMz+xb/4F8bnb/7mb2Yfa/ZOMb+9ileZ+e+06Hwxo6f8iteKRcZW2zV/82/+TTO0SrvXIF7VFm1Nqb///J//89a/elBAcWq3h55M0xaV7iX93//3/41/9a/+lemWHrLQCldt1QMa0h/llcOQ/mlFJ+f8wQcf2P21c+fOmf7czYlG6EBChFgC3lDp0d3/6//6v2wm/E/+yT+xgS/jKIMoB6G9er3/oRmi4uQ8dENZ2zTaE9dTSDIm2o6QAVBZ5Zdx1JaMdyByQnqsVbNJbZEJ95qxVPsE3duR89AjzbqhrlmwIEOqJ5B041j79x7aftLqSg8J+Nmyh2h6ByNoJi86yv///D//j83UtcUjp5qf716C7yfPmx6k0H0fPSQhB6BJhnec0idBfe8nIlpx6FwrGD2gceTIEdMtrWC03aVHxZ955hlbhelBAj3hJtlr5Xc3JxqhAwkRYgnIiMng/9t/+29tn1nbDbrhq/c9NDOUA5Ax/MxnPmM3RDXb1Kxcj/Rqhql4ORDdG5BR1WO7Gvza9tGjv7ox/MQTT1g9grYrtI0hB+XvJ/i0ewUygmq3Zs2XL18256HHVeUs/Fv2etJMxk0zZRlEBbVbTkQvYWpmrRWYnEy+4ZXDkBMVdJQ8tc//a7/2a/iVX/kVK+/L+HJ3E0vxoAmCVmF6Kk95NCnQBELtFrRSkxzlWLRNpQmHZCnHondctNLQgwnSN8X/8Ic/tDzf+ta37AVWTU50Q12ykI7lP7zxSSN8DyREiEWggS/jrZvZeglQBlGDXu9maO9ZQU9haUtFTkIGVE5DM04NcN0P0A1OzSL19JCMhpyOymuLSkbmL//lv2wzSA+V18pEj8eK5r0GGXnJRM7vt37rt+zJM62+9NiunKIchVYY2oqRQ1VbNZtWmhyBXq7Tfr8Mnu4D6MawVhd6b0LGUE5F2z1asUmOekRY/SAHJUMqOtq6kePNf2v9bkM8yOHpRVGtQvXOhxyA5CAnofs30g/J6zd+4zdshaUnrLQilVPUe0LSMa029ODEn/7Tf9q+UKBVh5zPxYsXbZWhm+7qA7146eWgbT3Vc7cQOpAQIRaBN0wyUhqgmunpBTZtNWi7Ro5DM209mqr7IFo1yOjLcGj/WrNPnau8HI/eE1HQnrVm4UrP37uWYVAQHW19qP57xUB6iBfxKEeo1YK26ORgtXKSkZNTlJOQY9UKSisVGX1td+n9Gb3PIYcjyCHIEWlvX4ZQtHSjWPcK1H6t5JRH8pUhlbFVHbo/IIeiFZ148dtCdwO+b3TUCkMOUTLQi59qp9qidumhCEH9rjTdI9G2pWSnp65UTqsP3XjX5EH5BNGSU5FT/dznPmeOSVthmoDI4WqbTO/RqJ67pSvhp0xChFgF/ICVEROWMmTKp+DTfTkPbwT9MJxvBObnvxegrSoZTEH8aUatdsi4aWXgt2pk+LT1ovbJyOXfSFb5/HskguhoS1ArNs3oVV7QykQyUFAeGeW7aTTz4XlQe7QykGPVVpOcqCBZ6aVCOT+906MVhqC2y7nKGetcL5FqNapVim+rHufV9pVWG3r6TPdARM+vQERPXy6Q3O+WLEIHEiJEiDXDzRzqSnAvOIa7iaXaL+fpnXM+7uZKLHQgIUKEWBMsZvh+3p3BWuJelOXd20AMESLEHyuEjmJxrNUc3ctX9NaK5u0iXIGECBEiRIhVIVyBhAgRIkSIVSF0ICFChAgRYlUIHUiIECFChFgVQgcSIkSIECFWhdCBhAgRIkSIVSF0ICFChAgRYlUIHUiIECFChFgVQgcSIkSIECFWhdCBhAgRIkSIVSF0ICFChAgRYlUIHUiIECFChFgVQgcSIkSIECFWhdCBhAgRIkSIVSF0ICFChAgRYlUIHUiIECFChFgVQgcSIkSIECFWhdCBhAgRIkSIVSF0ICFChAgRYlUIHUiIECFChFgVQgcSIkSIECFWhdCBhAgRIkSIVSF0ICFChAgRYlUIHUiIECFChFgVQgcSIkSIECFWhdCBhAgRIkSIVSF0ICFChAgRYlUIHUiIECFChFgVQgcSIkSIECFWhdCBhAgRIkSIVSF0ICFChAgRYlW4ZQeSyWQshAgRIkSIn29E6AxW5A2841CIRCIWp6M/DxEiRIgQP19YsQMRZmZmkEwmzWkkEgkLIUKECBHi5xMrciDj4+MYHBzEpUuXMDAwgGg0ig0bNmDr1q2or69HUVFRkDNEiBAhQvy84KYOZGhoCC+++CJ+9rOf4ezZs+jt7bX4LVu24MiRI/iN3/gN3H///QVbWyFChAgR4o8/FnUg3hlMTEzgd37nd/Bv/s2/MedRV1eHqqoqS5ucnDTn8j//z/8z/t7f+3ufqAMJnVWIECFC3H0s6kDS6bQZ6Oeffx5/7a/9NVy9ehUbN27Er/3ar+HBBx9EPB637SytTD772c/iH/2jf2RltLUlp6Mtr7m5OaOh7a2ysjKUl5dnDf/09LRtiSl/bW0tpqamrExFRQWqq6uNB+UdHR21NN130f0WpYuWdx6hEwkRIkSIu4clt7DkCP76X//rtgIpLS3F3/7bfxt/62/9LdTU1Fi6HMSpU6fMCRw+fNiO2t564403cOzYMTP+imtsbMR9992Hp59+Gg0NDVZWq5n/8B/+gzmXb37zm/joo48sPPbYY/gzf+bPmIOS05KDunjxIsbGxszRPPDAA3j00Uexbds2oyN4pxQiRIgQIT5hyIEsBhruDB2DnEuGDiBz4cIFi6fjyKRSqQxXHHbtwRVF5rd+67cy+/bty8RisUxlZWWGq4VMcXFx5sCBA5l/9a/+VWZoaMjy/vSnP83U1dVluKLI/PIv/3Jm8+bNllfnk5OTmdbW1sxf/at/NdPS0pKh88pUVVVl6Gwye/bsyfydv/N3rK4QIUKECHF3seSLhH19fejs7LTzXbt22RaWQOdgKwuB5e04OzuLH/3oR/jX//pf49q1a9i/fz9+8Rd/EV/72tdsBXLu3Dn8n//n/2mrE0HlSkpKbNuKzsSe5Pryl7+MJ554wlYbuufy27/927bK+cIXvmBbZ48//jhu3LhhKxfd0A8RIkSIEHcXSzoQGW/d1xC0faRtJQ85AG0b+a2jjo4OfPe737UtrL179+J//V//V/zTf/pP8S//5b8EVxLmIK5fv47XXnvNymrryjuhgwcP4n/5X/4XcIViT3S1tbXhP//n/2z1P/vss+CKA//gH/wD/OZv/qY5MTm2l156ycoK3omFCBEiRIhPFks6kPz7CnriKpVK2bmcikK+4dZK5fz583auexRf//rXsX79entP5Fvf+hb27dtnacqnG+JyHt45ff7zn7fVh+5r6B5Ja2urPd0lDA8P4yc/+YmtOl5//fUsD11dXXYMESJEiBB3D0s6ED3tpJvnglYP3qgLcgD5DkZPSummu+BXK3IwchJ6+kpPTwlyHv5Ndg89deVXI4JuvnvndPLkSXznO9+xG/k//vGPbftsx44d9hJjiBAhQoS4u1jSgchI696HoNWF7jvIuHvjr1WJnpTSqkL3M7yT0BaUf0RXeXXfwt9LkXPR9lX+CkZbVfnQU16+Dq1O/qf/6X/Cb/3Wb1n43/63/w1//+//ffy5P/fnLD1EiBAhQtw9LHAg3rCvW7fObmDLMWj18W//7b/F9773PXvc9vTp0/aOyD/+x/8Y//E//kc0NzfbvQzh6NGjdg9Dq4fjx4/jP/2n/2QOSHT0uK9WEXIa3knkrz6E7du32413QVtY2tbSTfkDBw6YA1JZOSHBb6eFCBEiRIi7ADqMJXH58uXMr/zKr2RoxDM09Jn169dnHnjggcyjjz6a2bZtW4Yrj8xv/uZvZqampjK/93u/l+GqJROPxzN0KJmHHnrIHgPWo7oKv/RLv5R9FPhHP/pRpqmpSZ4q87//7/97JplMZh8LHhsby/zDf/gPM3Qils5VUObhhx/OPPLIIxk6l8ymTZsyv/u7v2t5VcaXCxEiRIgQnyxiXEX8Y/Mki0CfLtmzZ4+9Ba4tKz2uq8dsdb9D90do2PHrv/7r2L17N2jY7X6Htrn0prmOyq+VjN5W/5t/82/aN7OEnp4evPvuu7b60A10vd3uVyTFxcV2n4O82QrE01Kd4kP16Ma8f5nQlwsRIkSIEJ8slnwTXdEyzjqOjIzYltSVK1fMkOsmuQy47pHoo4ralhJk7PV2ut77UBk5mc2bN9tTWDL8nqYe933hhRfQ39+PL33pS7ZFpa0opXmHIOdx4sQJu4EvByLH0tLSYk93aTtLN/k9PN0QIUKECPHJ4aZf4803zv7dEK0c5v8tkPx8etJKj9zq2t+v8NUoTuc+j38nxJfPzyeoznxaPn4+vdXC0wsRIkSIELeGmzqQuwWxFRr3ECFChLh3cc86EI87zV7opEKECBFidbjnHUiIECFChLg3seSLhPcOMvbvVvHH2yuqdT7MR378wjzzYwpTPRaWWxory5fL5WnPL+filkpdHPm5V1bik8Hd5OXW5bHyEkvlWhh3c1rLYal6FofLfXs15uDrXprewtT8GH9emMNhsThhqfi1xM3qWB0Pn6ADWYJBRfsQID+nO4/Mz2JYLE5YLN9CLCy9eL5C3GoeX4sPt4L5ZQqvC88K0xZBXuL8fMuXX5iSy5//b2n4tPxchWf5pZejtVRNLn7xtFwNudTF8y2JW8zusLDW5ZGfL7/sSsvnI1fGnS1CJ7j0Ke7Sy9BfzYdPy+VZeJ1DYczCPAtLCD42t7XsS87PXxhfuBW9WP6lsDCvj8mXRn5sLhRiYWouT+7MY2GML+l+8+FjClMWxiyOwvSFJRarcWX4BB2I6+ACJudzHFwXqoJzHsvBp+t4s7y5DAsVdEnkZSjgbdlCOfjiLvizBYfs0UN1Fcoi/9qdOXoOLia/VP55DvkxC1M9Fk9xtenX1xtZhkYhCuv1VzoWBn+2EC6lsMX5YaEMBZcSwLN+qzu3y2VfkJbjx8FnsIqz//z1/HSHXI5bQ2HdBW1fguJ8bpfGreUsxOIxN+NmfvpiLfC5F9JyWKxMPhbnzMXmzjwyi8TlX/lU6amrdan680vNz5MruXjZRbFYRtNzz9NStHLpt4pP7B7IXCqNVNo/qkvPRX4TMX0vy7UxzZ8U86ghXvCWzoy6Up6kfY1XDeUFI2LRKGLMI6hkOluHyxJl2bhoKAPzJ5mW0qdPrFLG8ZDQOyyWQZ9GCdIzjoB+RT8mZplfdSRZR05kjgfVYVeMVv1GI4iIMk2PKft79ZmAR0U4Mhkk4u67YRbNGGunr4IRMaa5dmaYJ2L0xatDTg7sTCumdubSrSryGDPaOvc8qn7lUnycPESVGNSRlbVj0uqIutd9mIM8SA7WTpVxsrY87tLk5NrJi4CVRJw8BOniT3kcFJm2NkhWaqmKSmdUvSuidjo5eJIq79rpYiRD6++COoLKCWlSnDwE3Wm05/JkrXLWBmaIMG5hf+faaVXwJ8eDg2iYTtlFwEMg6yDKeCQJnrs+l6xN27KyVjuV0+l+MhmUVxRP1E/qL8WpvhTb6PTakWCKkzX/qQ2Ks/7iuSCqom96yWvxIDkYPcvBOpgmPq0Mf/T4vtdb44E8urFFfWEW8WByCHhQvHhwOhXUkXRf0xYUKx4kS8HxQEo8OuTq8FFqg6tDlejA/pRe81L0xJ903xVwdsDpg5OjMDcX8KACjJSslUdQ0Wx/Z+twdkgXMgtpk7Wn5tJdHVYjx0RefzOO/xFnHRGSkGbn6rDiRE6vPdROV4dKOzn4saVyvi9MZ/SfkTZ+VYSZrA7K2qowEkxXedahUhnZEN9OgUfVb3qt/LeAT8SBSMGutvehZ3AUsXgxBZBEeVEMO7e0oKw4bul9g+Po6O5jGhvPnwTH4PaNzaitKjchDM+kcPFqu2s0QyQ1h3X11di8oclkNJnMoK2zG0Mj4xRUDJlkEvXVldi8fh1KSEx1tHX2o2dgEJlYggJMgixg9/YtqCwpgtSqb2SSeXptMFATmB7BxuZ6rKurtjrGycOl652YmZ1jpzJPOoXG2mps2eh4mGMlrV0D6B8YpsJQWZJzqK0px5YNzcaD0NE9iJ7+IbYpjiTbEY2msWvLelSXlxgPY1NJXL3ehhQVQIovpWlprEVzY52dT5CHG509GJ+YsvS5uRnyUINtm1qoAOSBNFo7+tBnPLDdbEc527eD6eUlCVOqvsFJtHf3YpaaJmUrYlu2sy+qK0rNeI9MJ3HlegcVXcqmdibJQx02tdQz1cn6RnsPxkbYn7G4dXBNdQU2ML1UQiUk697BIWSibCcNYCIeoaw3k4e4yWpgcAw3uvtpNDiI1U5yvqG5AesaaiEKo9MpXL7RhRkK1cxcehaN7IctGxpMDrOsU33VPzhCHhLsihQqy0vZF83kga1gns6eYXT1jXDgk0ImxQGWJA+bmI86qDqm5nD5WocNpiiNkfq7saGOsq4xOYxPp3Gd7ZyamraBmUzNoo46tW1ji+lOknluSNaDw2yDuM6ghHXv3LKBeu10qn9owmQ9QxmoJSWsY9vGdaip1N/2V3+ncLW1jcZVak29Ts+hmXq9kXotTFHW19v6MDYxTRZoAJKzqK4swZZNzSim0UiTRmvnEHqpU1FeJ6n3HFLYS1mXsd9nSWNwaAqdXb0ma1Uaj8xhc0sD6ilPJ+skLlLnZlmX9R7lVFddha2bm51eM76DOtc3NIZoosgcXh152LpBY4v9yzxt3dL7EbaRRpQ6l6Be79m2EZWlJUyNYGhyFheuafyyrzW2mN5EnWpeV2+yVn9f6+jF5NSMXaeS1GvKQWNHeq06rrf3Um+GabCLZAJQxHbu2roRFdQp9Wf3wKiNL+l0hjpblJCs16Oq0un16GwSFy63mxOQj89wfErftqxvtHExOZfBtbZOTIxP007JRkiniqy/pVPKc4Pju6tvkDYmQQIpk/V28lBZUmz9PTA8gY6eftoIXlFnEpE0NmVtSARjHL9XWrsxMxN8RJb93VRHO0W9layl1+1dfabXEY4d8VhDG7hxfRPKizWega4e2hDKOiWPxv6McWzspqwraEN0PTIxi8vszzlLp/Ngf25orEdzk/uT4uOs5FprFyYmp+lYaAOoU011tdjEOuSIbgW5vxJ1h6COVjvUoA/PXkW8uIxypzGoLuVgraFQKq1jOnsH8e6HZzBFwcqBlBdFzKDVVeuN8wiGKZS3jp82z6p5lYR2aM9WG2gSvIRy6sJVXLnRzoFEJZ+Zwb4dm9HAjitOlJlhvUyhnTh9nlMKDiwaXtXR0rwu60Dk4N4+fgrTHGkxxpTR6H/moUNmuKyOmSTePXEWI+MTpMmBMjuNQ3t3YVPgQKQz56+04dS5SyiiAUnOTGE7B3pTAw0raamdV9q68eHJczSsCXYwjRb1sL6+1hyI0oepvO8eO4UJDSRqeYId/Oj9+9FAw0Z2MU4H89GZyzSO/YgwfWp8BPft20EeWtzAYzh/rRMfnzpPWdMpcSCto4I2sXwFHYjSu/qG8Paxk5igYZBClsZSqKbBqKC8hZGJGfbFWUxMU2pUwPTMJB45vC/rQMZoWE9euIbWG20oLipBcnYGu2iYa+qqeE3JkeYl9vep85eRihbRCSRRURpHI2VdWlJhsuqmc3mLPExx0MpAlEaTePLhw6jngFY7Bqnc71NOw6NTNHgcOHOTuP/ATrSsb+CgBDgOce5KK85cuIIi8jAzPc2B3szyDSil7GVQrrC/pXOswiYccZrTRg4k70AGxqYdD9OzNEYRGnfggcMHaVToQFiHDOuHZy/RMNI40/BPT41jz84tJmu9Riujdp4OSO1MxOOI0TBWlSY4sak3B6I6vF6PsY5UJopKGoGqikcYaNQ02Kdm8Y5kzaMmBJHkFB44sBsbqNeSA8WA05T1DU7AYpwQZJLTnBTVkcd6FFc5o3W5tQcnKKt4cYKGawbVbEhL0zpzIOqLjv5hvHfiDCcfSXOmpdE5xB47jGpOftgsMzjvMF26lWDvRDg+9+7ego10IDIQsxxz567cwMfnryJRVoHZmVlOSBrpgGo4DuLGgwzvKerlLEdOhoa1PJ7EevZlZfAnIYbHJvDWBx+zL+jM2Rfl8TQePLTX+kMKobo/PncV7T191PkIZqdGcejALqynA5G+SNZnycN5yrqoqJRjJULacbazgXpdYWOnjYb3nWOn6Si1Epix9IryMtNr9efg+CzeZjvnqNdxNjxFvT5y3x4aTvfx1jEO4I+pT22cNBQVl2JudpZOssEMb2mRk/XF6+04dpJjq4R2KUVZl8VRZ2PLpcuwS9ajdJjsUJSxnU89dB/qKWuqGAYnknjvo3MYpQ0Rz2B/3k87toHtFI+ahJ6nXjsbUsbkSWylXtdU11CnymzCcLW9m3bsAmUpL0hzlpni+K5BJdspHvpHnKwnSStCB1bK8MjBPdYOyXKcE6fjZy6hu7fP9B6Uw327t9OZNwQOxDgjlHt53IEVSF7lPNXVLKvoGJiw1YHmODEaRU4asHGdBM/ZAzP1jUyZAbelNMsU0XBto7GoKtOsOYph9scVDhTlVRtjmTnUVZWihTMYCW2GwuqmZx4bn6RhpaGco+fmzGPTuloKSfNbpvePY2BolJ2gP2iVNIOhztEqSDRG2LkdPQPWiVHGaCLbwo6pqyqzmdk4iVxp48yds8k4Z1CshMa5Bs0N1dZc2mMajDHOQsbYRhbmQKoqK7KZdTE7iiXQ2TfGWemY8ZChgmlbaBtnclX0DkqfnOEshwoySyem7TvNjDVDaa6vYqpL7+AMaIwnKq8ZTCNXOespS+mC2tne69ppM3OtQIqj2NpUx3bKLUrBZiiLYZvtSNZqvWZhFZS1DMr4DGe9nFlrRqoq3Ky4irKosvwTrKSrb9hkHaVxzzC9jrOkdZy5q50yWpolDY9OIsWVljZPNDPf1EKjxnZKRQfHJtHRO8LJgpbmGToFGZwaW8kIWgW1dQ06HvgvJkdIHpobXLrq6GT5Qco6ytmiVnuVZSUma/pJa2ff4AR6hiZZh/ozae3USqyCHS+DNKZ20lhoW0TuPcr+kqNtqCs3HtXfWsXMTM/YwE3TYGhFvKmp3uQkGu09IxjggLVtJcZpxilHZrImjwOj0+jianBKSkVZFccy2NpcZ3ohnTEeOnrc7J86o9liQ00FV0HBpIV6381V1Cideow6o5VYJctqZawZtnjo7ptkW0e0J0TjnWEdaVsdVJAHW4GMztkKRStOrUq1Zmiur2RbysxhjGlskQexGCfPEa2smd7cUGk8aMx19Q6jb5jjVzrF9CrOzDdR50rJg6Z0vf2jNvuWg0gzpow87KAcSrlMYHG3quXY4TqQSscVCPt7XW2lrQAE2jS0UdZaaWlCEcnMsh9cupyY+lP6Mqz+1sycdWoVuHVDIyeCqpPGm33dTT60ChJXGt8aF5UVWgVpBaLx28OO4wSRDdMqpYmTnpZ1NZbO4c86BjGuFQhX1hm2s5qTjQ3sL9kCja2OniHKYYIKFbcVbQXH1mbqtdopHkfHZzjGObZ4oXZrpbWeeltDWWuCMMrx28qVs5yyFEAjsqmmzHYZhKxOcfwmOBHOpJLs72Kzc2XFrr97+50N0TRXiFNWO7dohZJgOuuYTHJlzDqUyHYWS69rK6jbrg7pVCvH5xT1WnszMY7fhirqnPSaNodTRssnKRqBZXAHHQjPbAlFoQ+MUbBT2NJSS0FLZfPA7DJSvpRYV7oPSpECp5lJ1zJGbnfXwZfTUYNeyKflRCzjLpVzdYlybmfV7Rl6gqKhcvn0tIxSjZ5Pn13BrkWAF36vNSBl0Ll4tgRe5dPwwfLzRDMQwZfPl4Vg1QQXKufbpyhPR3GCjxO0R2ptYeH8dEHX1ma10TMXJPpTT8ufq4yn7csHRRifI5CLc3k0ZATxrDgfBBfnyubH6+jou/5zOTxlBxfnjsZbUNiMhK7dpZNB0E7fBoUFMgwK6CDn5tOE/Lpzcblz1VEYr3+5+mQMdfRUFM8qbJUunXRl+BtkUrqgS+2aeh3x8DJz5RyCohbUFtEWfLrnUX1ucqc8dG3l+KN01SMHqKK+TteWIJ/98zG2yWjBt9NfCzIxfmwoCPn5fT4hP13n4t/3o8u3sjMf/LXGoOSqa6dPDj6PguclP80SggjfF/n5NPEQXJ8t3k4P6aUmIl7+Chqb2sL1tF1+8hrYTl0bLf4EUVmanobouTO1MmfZ3FFOqpCOLpz7yslCuwT6bFQJV1JyItmMDPpdCnd0BaIbWrqB9PLRM7h06SK+8cVnbNWRl2VpMI9Tzhxcs9RVbPZSZdkcK2Udad1q0L6sWmqzesVasy2CR+bVJaNzZI2Kiw/glUNpLl+QOyjrTxeAdTuwZuYzPvLy++AUwZOSMniFd23RuVKVrvOARADnaEXXDWeXx35Yv1HgDFd15xRO+Rw1GRPdrPPXBm95lM5ff0NUyS7J08hHIZ8udV6+PAG4vE6ersWeewffh9n280f3ArJwBLKsik9x6x4Z8HAUDKzbHCXjtNb1tbkcLk9+jIWgqCEoa3EuYx5cpNEhQ7rJqzi1QP98sy2Xy8oLnQTnlqIQ6KSiCJ9FJ66P8iDdMqI+npkD2RZUKOg0P9lF8egy2K/S7Yq/9t+lOeQk5PK4a7emLITiVZeluMyW2+RgqY6KjzO4aJeuKB4U5fpL0JXFZK98ipDlSglBqivqalRNzrz6kvkydnphMRYZUM5lNdgY02Vw7TKoTBARJFgxx0he5uA6yCuufL3uOm9s6r/igzStknXqut/xrVOjKNsmzWcGawEjXTafK29M+ah5uHSjE+2dHTh0cD/qKssZ4+ylMmfH/SJY2PO3jVxlVj8xxfXc6Pik3eATFC8ZarC7AZ/L62HXQWQ2TcLOTyB0lrsiJEQTpDhxv8rgRJsXJ5hggtJBlIOnyNyeHtOtw+2fO1+8rIvND768DIq7XphHcKnu6OmLdP6Vz694H3I5vDQdrKzq5InNMi3JHaW4LujctTEoEQTCR5GGBoPyWg2KYx47LIAv5BHQyocXgE6DX12SC7tycBlcnGu5BSuqfwGUnI1TrOPV5Xfl/bng2unyZ+Oyx1xuX3v2YMHnJHia5cGq9VdBvaaonoor53l3F+5gkfl0LcG3JiivLDz1vAsBFZfoL5Qc5LGydhocg2wFVRG+Dh29fK2eIF/QGstl5Quu3flCBCm+kEIQlyvlKegsyGSNVNB//jNmme6iguBKaM7uaMynaKdWVsVdnC8puBj3z1/pS+BWjAj4UYKLCMYIY7N6pXMlKNXRtjI6DfJZusEKu6PBVZR3ZUGw4j6FcpAOZdN44uWhXNl4y6/rQDIay/ZP0aLmKGYDE/x5Pq62d+Dto8cwPDLuyorWojkLcQcciOCaZa0msk4ikGrOcOnommjplhpARV3xAEx1UgyuC/P78gU0CKNsxSjULD8uzsF3gQtK0z/n0wuD49IVdcXddc4Reip55C3WxQk+3tMoDPp18GqQ/0+dpZDL5eDLamauYz4sLRiYWdGZHEnJjrrWf/5k2VRkDlJKKV6aNHJtDbLnmpZFQJLI5lqIwiqI/FIs4xTE9EOVuyGT31eF/xyUy+X0uubg6DrZ5MJ8WQlWnY7ZkMuTX1/+P2/0XB4f9BvUlYvMwk7z4yVgn5+hgDulZy/yivgTQTyYvJym5pBXcB5ytS3MlR/vqHmOXM5stcG1oLhc3e5ozVoAn8cjR9Ppl9vS0Wzfw9H1Qcjx48tZ3/nkAL5EYbTTE38sbBEp2rgIri3RnbvhwnNWomPun6BfBuVhRuW1sn6MGYI8hEVbPpfurl1ctpwh4NGic+VztII0S/cyEUQ7sAfM5mXj7K3gyrpzQfciYwvqvRnuiAPx1UaD3tTNJt2syS6/1SbXLkO2YUF+QTlNmFkBmBitgd6AKTUHxeTKu7PcteX2wmG00WJwRycsE5j+q9gSwZXyZRWlXzshcqlC/pWvbz58bH6KOy/Mm5/PhxxUS+5fDq7WwnTGsoFeeSUSEwuD2uL7oSCojA8FabkEV4+DovTr4vJTFsLyGiGX0wfHmDvop/BfkCfvquAfB471piMeBFfCw9MojJVcrKSFgLvgamGJwrIuLf9fNn/BaS4le7JohH6DvPzxwcW7kD0J4h23OXjuc1Bf5vWdwRV2dfkaC5GrIpc2/9qPSZ/b6JsRnl+nS8+F3K/Pkw1G0QUXl18ufyqVy+f6LRfjc+fgy7ptHRfmt5vndkkKOqXdcraIyHZEkKYoiy6c2uXOhGyuedw5GguRy++hs7xS2ZCDy+vYsx9m8C3zOd0xN35zFHQvxz1O7+hI4DrLtnsJ3IF7IFk2HRMUrB517O3twaH9e1BTURY4DzG2sOq83bosxKHPqfZoZqIbfMk5/U0RzriU6Iv5jMLNGh8cBVcsKJxPYymocDZfHiWbCQbnHvN4m8/VYtW5Tp+f89ZgL2Il4ojHJVdJXPTcQF1MMZZSBcVaCIo4Kgr854swQkbEdYbro1n2j/ZuzflnaTOjCi9R11pB1FXNAgTVz0eOneDkJrpTgEWbsiQHK4Kqv8MiWhZOVxwK2JjXJM0J9cJgLBENbigvz/hyBkk6opK298+TTISTTjOCgt7D0TspKepU2u7ZOSHpv6vP8gVxhqxyuihHZ2XIksj+5tVhcGdWd5A5W3VBYUX6DO5wpyDyul+R4JhP6MkDjkjHgqyJr9wzx2idimni2EdncfrsWXzpC89i/bp65rLRzFLLrzHuqAPxLOvNZuNTCXbTjwdG5CvpYvCpKuaXs3qpaXh0DAOjMxgZGcfU7Ky9GKQtGcsSKKHKulnBrUDGLjhdEbI12ZW7nk+g8HqxVrtSudj8/V2Z/hz9lULUMnQeMdRUV6KhptQcd1mpXn5a3HksB98qqZRK+iDo6DlVH+nFv/GxcQyMTWFoaNSuUyn3aK8hW7ePKIRX3EIsnnc55MvZHw28KLgO4IeBN2KLy0hSXRkvyud4yOdk5VD9xkueQrqJVw6iKiOQT13p3tF7RCxiKS6sRBBy04xCqnlgtMgpl1ij77AXG/V4dXVFeVbHgqwLcDPd85wIegQ9yn8zcxmMjY6ib5hjnno1PTuHOSqbk5Hyu1K2YSPyAQEnL124OvVbWLuvKXfmirtSgpOGtdZFEEaDFekoR+b6iNcaqjy1SRNPNYEzHoPrmzR9VcjxxfaTvt6Kr6mqREt9BSo45kuL/TYW8y3CgI/WY8ODQ4NoaWlGhb38aRxbnuVwRxyI4IgWMuEmBPxRe1bAXD50+314bBrX2oZx4dIV+9vs9kSV3rcgLdF2depI6oVVL4/8vKsShwrnas9hIQMupjDelciP8w5EcT6sDLnaM/YmrZxoaVkZtmxowsHdLaivqTBFuxWIpg8enqv8+PGJOZy71ofL9qePx+3tcH0+gesgm0QYskqsUvMZya/BY7G4lcLVkV+Lu7m9CBgtvVH3W6llRrsNmbzkwhoK4YzarU5kHFRPvjrOdwzCYs1ZkI8RLmpBQnD0Tnu5yUquIrelE4V9UkfvbfGol/U2b1qPfbta0Egd84bN67GNSf27qRVVTn8W4SRxGhdbh3Dx8iXq1KSsciBP0szXJQpKtPOpOzquZkctL90Em6sry+N8AozI5XFnRoWnyuvvOOUou3pyZZSP1/kdeQvw/Fh5q5MReXHqf1+zvnWgHRnJp6qiGtu2sD+2NaC6umzJns2u5Aj9istb0dY75kAEMSdhjk5OYW5m1l4Sc9+dWawpi0OzWg2InpEpvHX0Ito7u1FRVoqNLXWoq6lEeXmZfefFhMl/aoyjvnizVlrz6oSyWKnCGt1VYdzCUmqLb8lKOc6jQ4WQ7KenpjE6ps+WDKG/tx8tTdV48rGD9qkMrXClN354OSxdl2j7kIPjUb8Dw5M4drIVl67esE8qrG+ppSGpQjlnM/ob+lkHEqCQTiH8oHFYLudqQHp5JHXqq8s3J4rNZ2M+FzczhH5YiYpRWj774iAJz9/8+vOxHJ/5KGyRsFjuxRktMLVsu4IcyCxXA3pBuK1jAIPDI2ioq8DjD+3DpqYae9tbN/WtjOja/8Xp5yNF2WkrpmdwAm+/fwFtXb2oplPa0FxL+jUoLSk2JxaIeIVQZle3ftU/i/Z30K8+TxBZ2H79+Ete2Kkvpwt36srzf45X+ylAkHUJMDUvg7GjKAZHT5E5gz+XStq2cf/wONrbhzA2Po71zVV47KG9aK6rshddHbkcHxr9srGznAggmUS8KMF8rn8tmyuwJO6oA5GC6e3aoydp+Nvb8fQTD6GBRmUljAl+XjQ4mcKLb5zCmQsX8cD9+/Ho4X00Tu5JfwV7GSo4zx6XqONWVibK+mlDPs86VxiZAM5duIF33juOxsZafPlzj2F9famJwbYJAuW/mWBES33i69Cg0gx7eCqNl1/9iLPEKzjCvnmAobo6hpKAnB1UKI+8pyEsX+vaYsXaTqbm83Uznn36Uu1ZrOpPsu1rCbVFvEueSZ5Ixy5f6aSOHeMErxjf+PKT2NBY7mbopmPBVspNYPpFmnqb+vlXP8aVK1fx4AP7GQ6g1n0Wr2CGvJhM7wR8Pap/fivyeVCarlfC12K05mMltDwdby/dbo0+gXMd7x39EBvW1+Erzz6GpuqSrP3TVrHrDzcBbO3uQ19vH3Zu24Iaew8kyHgT3Mpq5dYRGKauwTFcuNZh3/u5VWjv/NSFPpy/eAmPPnQAn338IFqqo/YtIjkOvZ2rtlpN/ugRpOUHO+hnJcgr92kIbsbjI1znKtRRHx5/YAuefPoxtHUP44OPL2JqLvhap8u6YjiVE+Q+qHzU2nOX+nHhSisO37cHzz7B/qmJotjyOBhbdhIEwtMxWj7+ZmE5LJZ/XvCi8WKy6zwEydl8+XlziYXx+SGbvhjy0/PDpwzGcsC72mxGi8ca6tjDh9bjmacf4YpkCic4aZyZ1Yc1ctpyMwRkOfEEPjzTjSs3OvHkZx7AM48dAH2R6bIMoPTc5xXy+2B+uBUsVt6HggrnoUCXPfLLLBVWisXK5gX1gVYROhcP+tpBQyXH/ENb8dhjD6KtvQ8fn75iDyEITno5bnXW3tGNo8c+xAhXLTmIsvIujTvrQIK6I/FiRBP6UuStVaeGDc2Ajb+ArZs34OlHD6CiiGRptaRIZiCZSfl0nT0qjRf6DMVSQX73ZmGxcvdy0LaUBcrBnGsQTC4M9x9cj0OHD+HMOa4Iuwctzlpq/aSr5eFyaEbJAgxy3oNjczhz6gw2b2jGU48dQpndQxUvTDfqvi9Y3oeAVjYoTmF+vA/8WTZdgT8L4uYFkwVPCuWW48/Lz8e7vC7kn98s8P/CwJ8V572XA/s22xb2r+Slj1v6MXNobzMefPAITp29iBudAywh5NzIzaAcnYPTOH3mnH0h+pEHdqA04XTOjfegb4L6RDdfnvMD/7tyKwjZ8ZMXrD7Wk9UX5mP0ssHozS+3WJhXbrGQpbVE0D09+44bg8a89Q/PJUdNsh85vAX7D+y3j6v2Dk4aUX9rwdXgMEVnPzoxhbns0y46+rA0xN8dhGMwwUYWs3XuGytiaXmmBOWQV+3snsLAQD8O79+FarrWmCkw6eTa7s5ZR0FYQR1/PGHCcKeEO3Oy0HdR779vB+Mi9sl4ffzxZnv5C8AypjSZiA2w1vYBjA4P4OC+rahhBV7q6uNb7gHP+vywUixWdl4w1eGPDzabnRdCFGJJ2UiGOjCY8WKPy2jt3bfFvrV06Vq7fcjShG65lgPp81flrtzowtTkMO7buwWlVDabMLoshKd1c5r5OcR6flgp1ELTleDfSmG588ot9m+lyC+z5D/JWP8DsnIkGqeV7Jh9e3dhejaDq9dag7SFda9W7++oA5FCCc21pdi5SV/N1OLKMbsShqepfF1dXfYt/qb6aotzO6lu4N8MyhEGhjxZ1VQAjQ0N6Osftr814Xz6QoVaCt7w+t7V14v1ReGWda5/WBnj1T++9x0P9wq87vmwFBZLWy6/Rz7t/PBphu/zXN8vArZR8za1tLwMaGpqQt/ACCZpuDRenY4tr2cqqy/e9vQNoSgRpU65L1BbqducFOZzsCwXQTWfzi5zzEveuq8p466Y2uoi1NetQ1dnjzJZmiW4H0NxPMaVXty+XeiwImndCQfiGiFI2XSmP/ryxMP3o6pCf9tDCfmsLw6xrdXU2NgISrh8KS8vcglBwYWK7Bv78x4K4WL4G4wIfQq/qrIS09OzmOWy9VaRX4soas/U3jep1N9oINQvDGZs+C/orpv296cBSxrPPFi7Fwl/3MFW2q+glan+vszo2IT7swQWexME+qlf/ZkAPa1ZXRncSfME8gjp9GahAMsm5iFI/7R0WY5NSc7JMGhCNk2vdVRWVGJkeCSIKYRKbdm4Hk889ghq2G9aNDrkqC+FO7gC0VaTY66srAR1tTWI0stpNrbSQaUsST1aRqunP7zk41Y6IJXr5z04OMUSJLpEIoGZmRn7y3KrhfUDj+of0SsJ/Pt85Hj4dOHnwejfKXgd0+fB7SuyQfxKoac37QsKBQVzOhxiOUhOXlbuqDcnioqK7Msd88H1MR1GBi3NjThy6ACqyjkRpI1eaa/dQQeibQx3NsnZ7tDoWPBHVJTi5ivLwcRg5fWT84khbh35DtsMf9Y4rkxJloPbngk6OkQIwulY1BkibwRWCOUu1FHFhfp1a/BjMic5ydNeGpwH7RG4XHrU2t03yVlnHXP9sBjuoAMh+2RY1V9t78G7H55yfy0wTzGWQraZPPFK6Nu+UAQhbgavEJKd5Ki39/U32z1W0CWFyO8PO3E1+L5ZjNytVrE6WAuDsDikfysJIVYH0waKT5/xkGpQmi7hFlHoeEQj7JPVwI8GCwUyJYKxq/vKQ8MjaO3sxvQtbmvfAQeS62zHnp6k6sG5i5cxOTNj8Q7zGmOwZgalHbJtzkYuVi7ErcAUif/dZ2BuHeqBnI11NPJ7RUk+fHKYrxfzr0PcSXhpW7/rwiJ4tSolYKE8Y+eckA8hFqJA+kEQ3D1I9zaH+2coEKNzIJevteGFV95Av/5kcJCe64GlcUdXIB7JVMY+T+DhVhQrYc+3taDFIW4DMvxO9u5JDWGlfeGRP0PXuUq74M9yh08GOQ5yIcTdgrRDOmW65qJuDdJH80IeOX0LcTN4WemYNzYX9IW78nGjU3Po0VNzc3PZMiuR+p11IAF39kJNmn4wMFT2m2eE5iMoVgBv47Je9A7jVo1qPlZbcrk6b4efhQhoLdMHtwLxJop2zAv8WfXQz9IIkYWX8Wpw1+R5C3V6XRGfn/ZtxFXL+g51kcguRjobH00gniim3J1LWKn076gD8X9AqrqyHE0N9ShOBI9SEcvtjWYVST93UJFyfVwoWhtsdnTXHi5OAzHvyDi98GhB50GeAuiSwQ55x3zoBpelZY/BOdP0u4DmbcLVszY0V7/PrbYFIeBnPl92bUcXFofqnx8W0lRw8QuDxbuDQecWmDg/r8Ur0zzk8ubXGSTmwcpbvrzg44OwGBajnw+LC87zoadspF9ZHWPc/HxZmnYeBJ3nhU8bsm2ysFhcYZpHts2LpM1Hfj6f18flw+IU+OPP86Fr658FKWuDpaj60aKXvPXdwph9syw7gux3OdxRB+KXsLt2bcPTTz2O6qpKFx+wtxzyc6y1DxFPekNW75kouM5WcL8K+nqstt1crK7dW7JzjJ/jeZLHWdKYZaRuOymYchgtd9SZyumNb8vLMM3zGR6NRsAD/xvSbKjozjFeZfQEvf9c9ApEdovwta6GdK7srcIPEbXPy4D/g3bm/rm8Lkjuym95XVIBXH71l2TnZCiarnyOooLvc6OnwIw+Th1oh7y86m/1m+tzF8SP0hUEHa0NzOvySEd8cP0uWj6f8szOC77Ple50hxcBfBnRzX3CnAiyKN21wf3dFaNhKe6oQLFQR11bZqSzPHqeTG9N1/SFXceLzydd1bnye1pLYbm0uwG/vSq5WL/lMygZm5xdHq9bOpc8eGnjT/2n88UgndXfJcnaBGaco8wkQ41l34sqryAeJFsFXSvNw9UZ9AHP89PWBKwgu6qbR1y8NDXUYs/ObSgrzn8e/+aW4Q58jbeQnAabOkKeyoKSl+TLl3UZRuaAH79wFAP93fgLf/oXUMEFjJ4Rt6eILMfqIGPf0TOGoaEhrG+pR4N9L58UA96kDF09wxgdHcHm9Y32AqRmByPTKVxp70cqmbK2zFFT5LVLS+PMU4p6rrRKi2NMy3XWxHQarZ0DGJ+aRSYmRdYfyZEcUqgoimHrxmaUl8Shhx/6hsfQNzSBGWphIgaUlybQUFvJFVypOsruWay23XYPiuWnef7CSx+jo/0G/tSf+BoayuOmXCv30hKS6JEXFvkPf/gOpscH8f/7jW8wybXNuPQk+aMSnrrONYAkk8GRKRQVRbG5pRaV5cX2GWnL41VSj4LyMDqVQltXP6bGp7CuthRbNjRm798I0jHJu3tgAt19wyguirPf6lBRkmB5p33BxzDQPzKNnt5BytvVIaMhWVdXlJB2JSrKikwcbB56hqbR0T1IfXBv7Fu/sZ6aqmLUV1WgwngWv87YXu9gP09Os04aAnst2wW9WNdUX4n1jTXGa2ffOPt5LPjbDa69mgFWkoc66lENg3jyQlMLOtk2fT1An0lvrCmzMvprfRmWkwHQN8m6enqpiwlsbG5AscYIyzsjF8HoxAx6BkYxKT0kWyWJKGrKi1BbXW6f3xeGRmfQ0TVgshGfkoEQZb9WUS6bOVbKiuOuXwnx4PVc5yRr/a0vSLz4+hlcungB//Wf/AaaayhTJSl9KbCONPtbn/L79u+/jsjcCP7Kn/0Fl+YoE8tSWAiJn0XU5+3Un0q2dxt1R/1h76dQdtLjrp4hDI9M0BbUoY62QBjnWG9lGclr6/p6k7lsgHTAC2CKY/Zqey/HuLtvEGG71e0lJTHU1ZSjQX97hwUkI/VR/8gM2qn38XgMG9dVobHajWvRkx5O0q50dPYiEY9jY0sj2EUrbLFqnw9XUm/2S6Y/ee4MBlvP4W/85V+1eANlnqHM9VnVKc4SknNz5L0YxRSQ2unHYdbxLILYPyaC8zWCKnMVq34Npjm6ZhndWMwZV9cByrMUYy5eM7OLVzowOTGOI4f22Pe0vNIu3aTloVol1FfevoCfvPgq1jXWs7MajJ7YUrqMwatvncJrr72N5qYGNK+rs8SL7eP49v/3Mk6fuU5F6MGFyzdw8WoHzl/uooEbxvSs3vgstUEseuqE9r4ZfPfHb+O9Dy+ijcpx+coNXL3WhsuXrmBwoA87d+xAMQflhatDeOmNj/DBRxdxiTQvs92XSV+KvmVTsxkY3+Zbbbsf3Jq9yjBcudqDMTrHgwd2oYwG3GB9snKoX1Xko3NtSM5O4aH7dwex4s/RMnnyJ5+yzscop+//9F387NUTOH+plfIqwcb1TRAryu0Nl8rK2Xx8eQjf/eFbeOOtY5idGsWB/TtskHkFT3EQTHIwv/DGRfzguXdx6VoH1q9vRlNdOTmSCZUhdc7o2Jke/H8/eg1nLrThOicDF6604dzFVly70W0GvaG+hg7I/amAD8504Ts/eI15OnCjtcd0UXkvX6fR4NRcL8dW0Fionf2jwHd+9A7eePcMnWM/rlzvwMXLrbh46Tqu37jByUARtnCyoNn8y+9cws9efp99TB5ae6lHbdShdly50YfegXFEYkWorCxhG00a5kDe+rAdP/jZG6ink9u6oSE7DiRxyevs9VF874cv0oH2YffO7ajgYFFfTyUjuNY1greOX8E7R8+wrlZcudaJy9SxG21dmJyZRSN1PBGP4tipTvzB99neq9Tn9m7qdjvztePSpRsYHx3jOGniRCn/O8vq46CzPHgt33yVbRkcGMChg7tNRpZkv0uBOsqy+l73ydM3aIxn8PDhPS4pi+UpLIST0Y2uUfb5q5R1J7Zv34TKsmLTBW2x940m8cOfvo2PTp7Bxo0taKyrNLmdvzaC7/7gdZNZaUkZtm5axzFoRB0XpDs0pT5/HW8fPY1rbX2Ua5f141nqdHffCMoqOSEpL7PJgGzO8bP9lO/r+PhsO2LxIutH/blpUSQr6BqcwXf+6Hl0cYKzb98us3e32uIcXEk5Lsn08uU+TI3049EH91u8g+TDXwojTl3Tp0zsj4UxIn+CtpwDCUSy1lCF5IoVi5FOzuJkbPX2s5LUec7U5EOxC7E067cOV68Tav9wmrPLSUzPBPXmVS8F6h+Nor1nkjNKdb0rMziWRFv3FKKJShw4sNs+X757zw5U163DpRuD+MHzR/Huh9e52hAFR3J8LoYbfdPsxHLsprN4gEb70P5duP/gXuzdtQMlNJ6cXOJnr3yID09dRU1tIw7u341dNAL6RF1HRw+d72121DIKcGdRWK+Xvxx018AUeoeBtr403vvoBldfmsXJIDKPNDrguX+SRv9sF650zKJ3NIbeoUkk9UAGYXmZTaF1II3j53vQOxbHtc5JnL/aa/Xom1y2/8+8Wnn2st9beyZQVFGN/Qd34T4auJZNm2lkx/HjFz/AR2c7zABaf9O4tPdN0pjX49ChveZw12/ahNbeafzo5RM4fanH8okPLqbQwX4enEhjy9Yd7N/dOLRvJw6zLw/SGKxvdjNf0e7on0Zn7yQaGpupQ9KjvTRsW+ks43jzg4v4w5+9izNX+2zlIEibhieL0do9h6Exp1saVzaw+V8xozNxtJOvrt4JW80Kir/eO4MfvfARXnv7YzqmYuzZvR33Uf+2bN5kenry7BX0U6Zqh9p6lXKorGvE4fv3UA934j62WXq+a8dmzk5z9zCF+Yal4EpCuUdQX19LY74Opy504ePz7iOi0i/J5/y1IZw4ex2l5bWoq6+zuHH+nL7Sj+td7M+xGE6cvka9m7b26p9v6TTl3NE7huHxOWzeQrlKTnt3IVrSgLePXeYq7EMMTyRt7GpbamAkwr5P4Vr3LN46dhUX27gKJS3JXmF6jjaHetEzNGMTDYPGwh2Da4d0aXJqmmNwCMnkXBAb4CbV3yEHonqjNnDFzNXWdrz3wXEuEzlNC9grYNKwMEZYW/EFy2wiEuPMIFHO2UGRCcFqDxJtvzjG2WtRBY2TtkEcUhnONjkIN2/eiM8/eQBfeuowvv65I/gTX38cn3vqQSpDMV555zTOXe41Wiqn8ulYCQ3PBjzz5H34ymfvx5efOoIvffZhPP7QIXDFiGsd0zhzpR0tGzbgG1/7DPMcxNc+dz9+5ReexSMPHeTKzdW/WqhtTvkJ35hVY2E/LU3SJODOeEhxNaUBanYxmkA1nWXLpj1oo+E7f7XbDWzC7fM7Z9LaOYErrX1Yv2UP5bMdUfaXnILLp2xuAF65PozhsTncf+Qh1DU0cybYxtklB0NE07jcIFUfJYrLaUi34NnP7MOXKetvfuVRPPr4Y3Qu0zh28hLGOKlQ3eloHLFECY3nFvb1XuuXX/rqozjy4MOcLU7hMlctWiUrb0ZKFC9GdU01nnjsIL78zH585en78dVnH8SXnn4Y27esN8mZXYgW2ac+DtNAf/npfaR9AL/wpQfxS+z7+w4dwLX2Aa6AT6CPhl1D1HiJVQCJajalJNufHta2KBUpUUF+yznuXJrmPu9+2Ioz5y9j57b1+GXS/+bnpX8H8Y0vPohvffVprhwPorQ4Yf2SzLC9xWXYy0nRF57chy8+ecjCl565Hw89sBvV1SWurezM/OCROyNy7N01ZIJHgeurInjskcMUewX7l5OV0Vmb8dMncNV1jX1XhPvv34+6Gte+7qEM9acbLeu3Yt/+/VxNjLJP+m2byemckbV7HTHqSD1XLY8/chBfeWYfvvZ5jvGvfIaTygZbifQPjTuZMcylIigpq8KGjVvQPzKH9z68hNFpv0IW7SJEyGMkUZYts1ZQNxV0ifWbgrMLrVyNHj36Ica40sytPjQOlufijjgQ5zZoAAJFnk6mMTY5bfcvBNv3uw0UCGLF8Fw5yMHZl/TpFMSNjJqCztnPXHLGzKD5lZLibdCS93gkbfdjqoqAGoYN1cDnHt+Mzzz+EGeAwzhx8gKmZt19EjVV7Y7EMuYstJovY5myRATFDMqjN/Sn6fnLKkuh703qb2pUlgDbN1ZzlbI+60DEiePm1uHMsdpghwK4lFtBPhGVDmgH/+yag1f/gjWF/XNPmVhGpNNzKCmK0VjtpGNO4KNTFzA5rfmYoyO5yACepfGbnpzAwYM7UFVNp26Pg7v6HXXOnriwvXzxKpfgETz16C4a62Zcvd6KG+2Dls/RDGACyCARSaI0TllTtvW0zfv3beUstIwzyv7sChI0Drp3FGd/VDCfbhetY96NLevYd3FMzUy7hycU+CODoi0AfbyumNXoWKo+Z3/LYAmq3px5Jo2ieNo+V66/cVNTnMHeTaX4Bg38Hq4+z52/htPnrpkOqqg91KEjL5xEHczwWHCycI11Tqetbw4nPjpr91S+9tkj2L+pHJVsg9VH3vZsreEkZg+a6krNOBpvLFkUj6OM5xXMo+8Z6jum7CpHWkH854UcN/7oYHwx2Y7z0j4JSI8E7RLt3VHPScNuXLrSjZPnneO/eHUcp89cxM6d23Bg72Zrv2R85fq4rfz3791Gx7mXq4E0Tp2/zlWeu5PmW6I+Vz/qEyAa2+Xsy2rKakMznUpNFaanp6nTM4HMlD/JVegs9bMJGzhZPPbxJZy5NGCyN3rMlH14x7G+ZrD6g/PF0NU3YH8naIJ2Ogtj3J0uBY3TNUd+ncZ0VDP3BKL67rfigpnBQhRyrFymgHkE82nfGlxJ/YpumjPTFGdzQ5MRzian0ZENM5yBJG2PO0N+83nVbMspgh8ORsnO7Lv7ezailsvgGx2dGBiesHgzmmyA7J4+BSaDoK0Ve1qD5+KnkVZJM9cLV9s5Y+xA+8Akjaf+RL42sVwn5bi4VaikCyYBI+SoZWk60dwagsKOcg5Zo2JBMUEOi3IVKSadmuPAm8OWzfVobm6iwW9He9ewpQtqexcN4MWLV7ChqQZ7dlQik5o1B5L9ewakJ1pdPdNob72Bjeu4stiirz83UdZRnLvSCfmCaKDmyqsNSXvKhaNW/ah6ZDT0t71TNAb6srCe9FBeM8RcKSVpgnSPZWKWs9PRFNrZvzE6oPrachQFrIilNFebs6m4bUF0Dc+hnauUjsEJDE1MZ42EkOFyRfUmU0mrxwWXYX0dbMtoaiZpKxzdqFUV7ttSMjCOX6eDrpQLbpVlD0tQb9XOqzeGMDg4jF3bNmL7pjqnR0rXkUF0S9lcGViLppfTpGp4PIlO8u/GwyR6hiftwY7ljUWgXwGMp2AScXfhOKil43/4gf3IxEpx4mwHWodSOE4Drp545AhXH1VuIslFLC5fuU5blcbOrQ105lUc0424cKWLK5Epo5htEhucorzmOAmd4qxTW19cxOJG2wSGh0foRCpRVeZWjM5B06Ykx7GuNoHHHj1gN+rfOXYafbop6MiZvdCZHz6+quWhnMLy8vZ9bwjGjnRGR7VDIaMVex6CIbsk7oADETtemRzDJcVFKOfsLprdi7kJV3cEecITNLukAzl5vgPPv3kpCJcZruCVN9vR0dVvN7o8qzooiEpOqDJmbtasjqitoTNorMXIyBiGR92fhjRJsFNGqZmXrvXiLBXx7KVOzjxkMPvtSa4NzUV4+OGDVMQEXnjtQ/z4pVM4duYGDegwZrl6c9XN4/92kW3D6mEcLUpHkZr/uaOL4THIKz3WHwnKpKdRXSXHuwWTXG6c5SxPTlZKqT3gC5wt6kbswT2b0VBLGSc1gK2w0RHkkPWHi8bHBrB7WwNqORPctrnWBv3ZS20YGJ11dRMqJeehG+r6MOkUrfMEB29P7yTOnLmOGc4YN29uRjmXgDaw2NEaVK2dQzh6tgtvn2jHc29exdmLnLVub8GB3ZvsDygZN1ZFHCOjSbzzwQ089851PPfGBfz09ZM2e/X3bZTNOQIOYBZUWR3lXHWututGeXFpGcbIX/avQFt+l8cF0qMMA5GaA1PQhohq0sqop7+fkSm0NDWgWF6C8LprB1bs6Yk9c1KROM5d7jT+X3zrIp5//TTePHrOtmJ8XbcCT//uwHGsX/XTji1V2LFjJ1q7xvDqu932sMrenRuxf2djtm19/bO4fv0ampuquNIsQhP1buOGjZTlGFrbe6CHOrJgZ2lyMTKRYR934Z1znXj1eDtee+u82bpHH7oPzQ30XIRzIAyZGZQkZrF/dxm2bd9MHb2Bj8+1W5/pJr2eUs3XV8/XrWCl8la+bF72fSRGJQkciItX7ctzcAcciG+87uRLoTmgNzXjoSMHUV6qv4mXy3E3IH6sZs6ONAMcHhlG30C//dXDfgt9nLUN2LaJ8UnBetiMlYNWmuDaoF+XrrMyNq+kpAhztE76fIt1EBOi7Jiu7kG8/OpH+PHz7+GnL76LHz/3Bo5+eNq2uiqp3Z//zD587QsPoXldvW1dfPeHb+KPXjyG09f67F2TPJt5ixBnjtscfFwQf8e6Ir9ek0Y2Rlfp9Kxtjdy3vwk11dUchFfROyyDDwyNp+0Gb1lpCR1IixnATJpmkQX9N7yUT3+l8wIdhR6j3rOzxQzFhuZibNy8yR7PvHaDg5594XtRq+AMB/3VtiG8eew6Xjl6Dc+9cg6nPj7JlUsznnrkAEpJxOwE60rTsl651oZX3jiDn7z8IV587ShS7N8vPPMY9m5vtHaItnjR3rEehRweHMRAH3WqvxcDvT0Yo47Z1pvyiX+WUn45DZV121vOoeg0RksiPvVUmAyP6pDu+TIO0sHcS18yPFHmscfkCdU2Mz1DOtpK0xvGLl6Z5byVQ3G+vGBH0pgYG8FgH3kX/4P9GKITnyWt5SC+LATX9wzMs7pT/U26xx/Zh1Q6jtff/giz7KtHH9yHxkrXdsn60tUetrsHe3dvRAPzcz7CyQInColinLtwmXpJ/cwTmO6RTXB5euz4Wbz4yin85Ln3cebcVezcuQPPPnkEVeWxrC6pmK4iqUmsY51PPXHA+vz9D8+jl/ou+y1+1T3WRXcQgUiMJ4WG6kpOvDagtOA9EME3dnH4cbXGcIrkBJ3B1pY6HNm/ExVczpnE7go0e3MzOEH7kZHMFB44tB3f/NLD+MaXHsIvMPzilx+lIX/AbnpqWua3S7ICJ/82e3ZXbGPOY2t2K+cRiyfs+/uWR8Vp+MrLitG8vh4bNqzDhvXN2LSxBfX1dWZ0NPCbORP/6lNb8Sd/4VE8/dQRlFc24/0Tnfjxix/iRu8E9GLS7SHXdmeEGIK+8PGrRsDachw6d5rLYZ9MoBxj7IeN69zLph09ozh/pde2aK53jONGeye2bd2ITU0JLv3FLnuQvPvPLei3tTNJZ9CPusYmFFH59az9NFczdfUNnC1GcU5715zJ+7VvTIaZg7ObM8rTXH2eudhu7wPt44riG194GPu3NmRXFdrm0pjewr566MHdOHz/LjQ01mNuehKxdMryBZJ0ITOHmsoifP7JQ/jVrzyMX/7yI/iVrz6Jhw/vowPMDTX7O9YMWUfCIB2Qbulc3ZIh/XiM+ci45YnI4JNxlnPX/M3TCZ3Jncg9miPhtW7wRriiSHJZJ+NosHqk16rERamsPaKaSiFKXb1/31b8ylce4Vh4BL/8lSfwxWcethfNPrVQA9nWUh4P7izjiqIJfYMjPDbj4K6WQHYAVQfnL3dQ5gk0UZ+mx+a4gp1DdW25bU3rwYyOriFRNJgIqUyVpcX2xN2j9++2l/Hi8TimuJpNRLl+JXGJWXl1oglEjKtCWkLct7uOq+9ddFq6LzNk759xRJCfwH4yrBUKtq8E6QEPCvJVO2nvnn7sIdRVlyt1xchp9R2AmLMKKOSIjLFJxLN992B9yU6Ms4NbGsuwa2MFQ6U7bijBto0Rzmi1d0mzx5Gn/MY1fzRw1RmuO5xRVgcofWgozRnbCKqqKlFRUe7KqN3JWXtZ7mtfehC/+s3P4Fd/geFbz+IxLnF1I1n54iRUQWHtaEngC0/vwbe+8RS27dhn210nTl2xN4JdnWsB1Zg7+qtVI2DMOSZBEfPDvFqYVzERrkLU7oP7dnAAFeHU5S70TwBnL15nlgz279lug81mZTxK1u7ukNu+utrWZ49YTsxF7F2bl49ewatH9Rz+EFd+xbh0vQt9w5PZ2rUS0KtTOza34JknDlLWh/ELX34Y36LBv3/fBnM00lnllxHXC587NjXZQxK/+KV9NKZHMDM1haMfnLYnaSwfg2tmEmXFEWxeX4btTXHs2lSDXZsb0Mypr1449ZARcQ+SWEmjoVRNJtSy0bEprmRmaZiKbDVkoPNIk5fCvw/ut+QCHWSCbu7rBTQ5voryCuaP2nZqUntaBmYK+inXX6pbv3Q8rKepvpz8J7B9fRW2b6jBFupuhR7hzbGchwURBVhguD5pBE1U++RY62gfd2xbzwlewhyJ7o14Djv7Upy4jCASL8fVa9145YPreO3oDZw532ZbmX1cHV9rG8i9lW+CZz+VxfDIkW346tPb8Itf4+Rz6wacPH0WH53rti0vY4F9YhMgBs0lFNdQBjz24F6uEMtx/KOLnEBN24rGUtdcbJp4BcIgcmfa8szYCn59UwOK9Ef/gpT8XEshp9V3AG7WE0H/0Ciut3dhRg+oZ3m6OXN3FOxImwVmZk0IGqcy4uJK1zIeafuLfXkOhP80Htzc0UGpOpdSXb4ygL7ePmzhUrC22j2KJwcSQxJFsaQ9/cIVrT3BpSetZBz0N4jdbNLXAdvSOrCrFIcP7cfs7CwVq4/LbZe2aniGs8indluUrfhCCqrQhwALeGA5jkJtE2zfVofG5hZcpkN45+Qgzl64hk1cre3fs9HymdwZtIWYDKbTfeMpnL94FQmuPErLKtDLVUV71wA6u/vs5a11DXXo7h3BlbZeewNfyOgvXNIcbGqpxMOHGvDIgQYc2F6N5rqEOQ9Rzg4KVqh7XDGuLLT5Wker/PCBJuzYsR0nL1zH2cs9ZsAdNwRXq5pSaNYpZFcUCkEmd5T+qBanRwr26QtmlvM8x7bLkG9av86eFBMN9w5G2t6Y1o11UZYYpKGyY2MT0xxfM6itrUYJnZjasnE9DUJxib3U2Dc0ZflsR4crOOdG9YRkxnTX+MxO8hyzcnS2NcY4i/dhARaNvPdA3ZFj1T0u3STXC7ziXIZdr4PZQwfDY1xlruMKYhZt7X3o7OrDyMgw6upqESupZJ+32nsf1mKW0ROZ0cyM6ZT0eFMj8OhDe+3F6bfe/xgDY4HnZgG3deh73jn5Azvq8fCRg7h2vRPHPm5lv8SyW7SC64nbR57vcMiLkE7OzCXtCSy9uHwrTj/H6ZpDCu4G0OUb7Xj7/ePsCHdjec2ksgrkiY0DQw5EChDEk1+xJvnZQ5NUjoyC0gzKxUGfidlN2Gka9cnZCEYmUjh9YxDHjn+M6rIiHN6/wx5/1AC1vRfS0JG2yCC5uKBzfTJjHJ39o/b4qByF/OzIeMbuzehPe9ZWV4ITg9sS2+2UXQ42q8qT6kIsTPNGyubblL94a6jiKuTALnt67cXXPsTQ8DgO79uOdTVuRqTg1nsOOrt6fRRtrdfobDfg65+/H9/8wsP42ucewjc+9yB++YuH8dSjBxGJFuMUZ5Cj3gGzvgj7IpLmbI9EZGgVlKa2+LoEM7Hqv7Qe6nZ5GjljPbB/N2bpOU5fuIoRPa3HePWjjLMcyoz6kE2ToZ+eo3HiNDSpfbOAhiAzkkIRplmFnvAa1xNeQzNcRXXj9NkLnIQ0Y9+ujWZkFDY2l6G+pgznL9FxXRvEGOsVfdXVOziLK1euMVeK5dbb5ET17N5WiS2bWuxt97ePX0LX8DSmuFJT0BNlHQPjOM0VX+/oTLbNuq+STEfsSUHpoQW2QfeR1MbFsWRCFr7ddxviQ5NDvZGkXQgXGcHgZAYXL12k7NL4LFem3/zCA/jq547ga88+YO/OfP1LR7Bp8yZcvt6Ots4+K6aJgrajopxgRKknMqa6g7B3e5U576s3umj7hsxxm87LgQSD3i4Z6rgKefTITlRWluPMuSvU+1G7/yWsrcwWo6YRxR4nc9fpKI+dOoeRySljNqcPy+MOORBXvfO1oMeeRXf/CJUx6LC7DAlFnZ5Jcl6a1ifmHMd67NCl8Sc1wyQOLJs1BGVkUJh/cGCExqMbJ85z1nCmHa8evYyfPHcUg33deIKzj707mi2/0aXzSKem7RFUzegEOSgFdZwMzsdndCP3ON764DI+PNOBD8+24433ruHjE8dpOGpxaN9Wu9l8O/BtnI/F4m4F+cviHHzrfZo7Kq+PkTzSlH+E8hQPem9i/64WlBUlcP16q33BeR+vNSBVxveJXsvX3r4eLLh85SrSMyM4vKcJ920txc6WYuzZWIrd6xPYuQ54cH8zGutraVxb0dU95ujo+aS06NCCkqbjJ5h18cLLQ+KOMl80NeXKEMorY75raz1XB424fPkyjcmwxdvMHnOYnJrCuUvd+JjhxNk2fHiuFR+du442DlBO8N1snsYmyWn/jY5+nLjYjY/Od+HoyXa88Pp5vP7muygri+Ppx+/HJva9nw1uXx/Bw4e3Y2CgDy+99gHeOXENH57vwPHT7Xj5tfO4duks9tKR7t6xAYmgHQ2V2iLZhZraGrx19DSee+Msjp5upd524P1TrXj+tRN47e0PuDoZNwOn9ZC2ztrae3GK/J8810neO/DRmTY6rk6M0+t4+eSg1q8EK813J+H0L5NmO1KTPKH3DdDeycnINTruZq7899RjZ3MEezZRpzYU8zyK/VsT2L29BVOTE1wdX8YMVcJua1EnIwz6cxXSGYX6ck6G9m61+yCnz140XTU9tkkkbYoUgVBx8bN9fTEOc/I0NTmKoYEeppMvClqyXjupFfZc/lRJfNzo6MG7H5zA0Gjw8NAKcYccSND4wLjojV7EErx2VtANtk8e4kYN1mZATVkUtRUJlGi0iRsbqNpf1ouC4EoigvrKIhTbV+1c2fLSCJrqSjA01IdX3vgIL79+zL7PdOz4R5ibmcBnn7wPn//MAdRUatPKlRH9usoEKkujTuEItx/LdAZRj5Or9rYurtI+It1jeOXVozj90XFsaCjCVz57BPu2rzOebgdq3XwSilO4XSzlRBxtl6ZfN99he/lTrQ/5VVC+VA0/kDY3FeHQrmasq4ri0N5NvC4LyrkX2eqriuyjftr20wx6oK8Lm5srsWdbo/WpWiNanh7tL1cn65k2i97uTpsJVnFw11Wx34v08AIjBPa91RO0Q+XlKKro1Rqr4ijnatKlOHltbIzh0J5NSM9Ooqer0+L0PcJa0tWbJkePfYTnXzmBl9iXL73+Pl5+Q0/mXLH7EJq11lREUcW2n+cK5qVXqUdvnMDr1KOLFy+iqb4U3/rKI3jk8E7bhrNVEStoKAW++MQufObhg5gcH8Xb7x7Dq28cxRtvHsWVC6exnzryzc8/gBZmlHGQrMXNw/cx/isPo2VdPc6fv0hn8x55+gBvvnOcq7c21NdVod4+Jkr+q0tQS52/du06XnjlQ7zyJnXxjePmsN567yMMDDonXLgSKbjIyknxhSn3BsRfRVEKjRyjZQnHocbq8EAvSiIzdB4t9lSWUrK6xAttTx3c2YSNLTV0Nh0YncnQNlCPObarqMsJr0wUjl44PbRvC9bVV1BHuzExqbUm9Yl9WE8Z6+OrgqddReKPPrgVBzgR0j2Z6vKo9b14DaiuAMrtw0JIh7x+26REemVXAWiULY9xtRylQtyBjykKAaM64+mVjj6MDA/ivj07UKmRZo2xLMtC2wAXL3dgapGPKa4KefXG4nE0U1P2bN9gH0DUDVsbeEzXHrE+1rd+XbU9jaWvpArReAxV1aVY31yD+toyNDRUo6mpBjtJ44H7d+Ph+3fS+FGrfM+QViwWd18B3dTIQVztvrDJunwLtAqpr69HfUMd6uprUFtbyXw1Ntt54oG9lNkGU0hTNldkVTCWWJfWgFeu9WB0VB8l3Ily+4Kh+Lk16lI2FfEfU3z4sD6mmONRxxxNdybZ2hn/l3ClsWVjoz3iXVESN/40IGuqK7ChqRL379+KJn1aIqhH28KVdB7bNjTY7F+TOD1Jpxn37u0bUSSvxAr4S7j2aCegoqICDXVlXMnVmWyLYjE01pRix5Ym9mGFGXS7VyGvrtKBfkneMfZ3A/Ps3NqM2ho9z+9MswZ3WVmpGd6Nzeq7antbXe87rafXaqJe1dVVoLGxBo0NNVjXUMs21VPf6kgzwrwJ6k6l6U49jUxjg945qMf+PZvx+EP7cJCGpEw35Ah7Si9oVy0VQR/8a6J+1JCfutoqbGips/dRHn9wP3Zukn6pnO5wWGvs7fwNG6qxYX0LnUUFqinf+vpqbKYcHziwEw/dvxeNtdR/5i0qKqaMytFMvurIl/TbAvWyiW3ZtKER5fqMgtMm6093ntNOyUcPN1y50UOHM8CZ9W5UsX9d6nLI2H0grQlO/v/Z+w8oOZLkvh+Pmenx3mEw8H6xizVY73dvzxue4d3xSFH0kiga/Z8oknLUk356ovTkJUqUKImUaCVRJO9ozvG8W78LYAHswns7GO9Nm+n+xyeysru6p8diGma3vjPZVZUmMjIyMyIzK6vqyAXbeJJ7mSKpF6ewGIyK5kG9tmob2LmpS+u3zgYWKbXua9ubVPFvVyPqXmkCrIzqKCFvLW5tqtN6bLGXf1brIIQ3P2/euEblyXWF6Sfqq0blVK/xN2q729jVpm2jwnZndWodbNu6Xtt5fSA1lsnLpL6xXNuj1pO2/bu0PtEVQZN2DCwJPp7vB7QE1aPqTp/pl6nRfnuZoulP+6etu63g53QAe+3qVbn7zt1WRp9+MWjfsS666oAoIxX65ZtnrspA3zV58J47pVmVtQUugcMxHRp88auvy4CONH/yr37Mbi6zL3+l3/L2+aJEbXeEnvMksRsrq3JQUfDHjgu7qalxVFeY8gKMVOgcwOpAz42k0dB4emHx9QJ/Ko8jy1SEM+7gxr2FMA3Dl3z0DNr+ISVPjwZkM5Xg+npgT8QrIXbzf5XXuV+5JJ/51Aels2EpnXsubElf5fI7f/qiTI8Pyc/++EetQyxWMyTDIRNQrhcxZGIK3MnB2o06yk99l1W4J7fxR74ofdIbDeJqpkHyLLgkmPoiHTK06PbjaFSUpe1oAcHWYLdkSQfUrq1hGCrYs2CrO/XTMN7rxRZv89Yfe/2NBrsYCr2GtNWfHrnfYudaAOLBOznRDJwRC+JxTvJAEXEO7J4ZV/pPOsql/xZOu3Lcuxk09/bgjHAeWMTX8lJn6TSRdiWTJXDx3eCCNkhcveTfQT2Iywza5KWUXBgUgcuda0KmNf7XvvumnDh1Un7kMx+R9bw3ZTGo3Hmd+7ie/h9e554Yk5/9sY+6sFVGth8rn9XKOvLwbcnKp45LV0Z3DpALzcO1JdefCKT0XgJuIOpkaXmoszz01NohTpNB2/LifoyOdIwndYA4Ju8g3nJAPsCnwyBz5/nLXzkiAxeOyt/+mz9g/oB7QH5V6MX9b8nhQ4flIx98n33CwqGQ2lz4cpcEvtPu3NQtjz5wj3sOxALc4YYjyJcDlVNpHQcO8dEzkxcWmaUQt92O/fF0ZgIRNQaH9XrGYZxXKQ3O6ZCm8NXpv2sEOMLUA0dHdQhFCro28WhoOEfXVY5vbNeNIOscrVWh6rAMUkQNy8SeP1Dm8MdxiQydv4boOYbdp7FOp2WhThhts7nAKbW5wJs6qdJ4yJP65pyZLDNBZ3T0ByEHcKbDXfNrbUDjc+5DaB8MBJiJkD+sMmGo0cCsUz9zek57sfxw6kc5avSE92Dxzinief6UnBoa2p/nwpWf9mdy0WsMBjR9Xl4ullZdYNbcn5aNMOKQB/mSxuXnaLGR3No7dAkP4pCHOSXMEiJ0KLseFDQoztzVasBTLDUw5CYPLRNVj7RMfnri+xvOccS5KzP9mQm7yU3rCnl5OZpsiKQxORBGffqlLeqGeLQD4mYHPJrI6RsNU4cu8Xqk1HCculJu27ROnnr8YWlpaghKDQhfmBH4LgG84J1jGl1fXWlCwT7fTJA7PFkFaad0/AT8Mp0zB6Pqp87FdaJGadEQvKPT2QNgHNVxzNEKXBDPNUKjEjjg4rsw14iyMTSI/Dj3XF4Xgixdsa6b2oqRLV/WaRkRVAC7Vv6MRfUmzMsRhzdh+FEO/IA/FsLLFheuN+fnqYZSe16Cg5eU58F+yd/OXaiFqaP+CtsH8ciLuGHSOBfHnVtcChaUKVxHTgbqAj8XP+c8PR/PXQFXQnfmnOcx668nPqdwHB+vMI8cvE++76pASa5Ci58X1Id/2NLDl8LrA1cyJ7/sMYhEHE69XCyJIgh2cdVRp7k2kItrfZtzYFNbha93d5W9Xi1k6QZwTcnlyCnLq/fcudOW84NmtiSEZbiKcEU31vR/bGpGBoZHbSujD1keSiDK4OAo86uNhA4YXDECLGxgvsHknP9z145osbI5FcJcA+dj544uhqeTpaUnyNBRLEZ3OchSvSWQK2c+T/ghZwy8xbE68TEDBJfmH+poFj9wOYTTh0PyY+YZ1TwC+OccQa5teLPg68dTJI53wIcCd+7iOeSfe17112urAvj43s3F3NBwvLmh/jz3O59zmOszHxaPcXOQM7QgXD++ZL4W5pYhXIOuBeTDx+fIFyNxhTQAKcOOSJ5asfjXDfpJUOZ8A+H82KY9k0y5pdmAFxctL/IclMSAuE6lf8a0yLHzPfLd1w7JyDjfN1iJeMJpVpI+h1zj8B08n54b1WrFK+PhNWjf6Apzd36OolFVeXtl5CvBuTJbxybMhfo0YbPkedIzHab4tCAXskIEhJRd49nBUy8trMyBTOZDNo7+58k9OHpw7cvgXdZ/Hhc+yz93IN+cTHJwMX187/RXD5a3KgdfLkJyZdQrimJlCq4N7pjzz4F8XHkCjxXVDYmzBAzep9DNh8I4i8UvhsI0Sy2JT5MvMyev0sHl43l29V0A8g94KBovOPU+2aPVZwFFLtTl+emV+3P+rudzXEXkGpad4siHPAjp0wH+8TPn7bMbHha+iOxLZkDsN8j8Su+gHD19Tqb4IiFYlmTcPYJc8VcTUJ1Lubjv4sg1g7nA15sKJx1vwsIOuFCufTzOfej1IkfNzYVWBcuqz+XB8Vs60EaLGY+lgdoprJvgymiGQwrzWEho84eVVpkuF/R01z+LwUnAlXspXPs4pGAQ4bHy+lkeFstlbvhSfOYHcYs5ryeWBqS20jaR00DnLl6RF195XUbHQ8+BKNmbYkAKi88umlhVpR6XLhYPlgjdi+SC6+ttTIE8/OigEMXp+0paWJggTJffPBeEuVCHfIq5kLx0eKwYPgfXWAA8mOK0v+tDYXmLIRxnKYC3G+WuJz+P8PVC4Yv5e+dR6Bc+3kznwTZqnJ656+wZCGbw6nJ+SwNpVrzTsgRYbvtdCaCecy6/lebo6yhP7tRDUAZn8nOhnE1MxWVgaFTivNcmDwtzUUIDkhMAu1Xspca+YNxFWgTEYFdEVWWlvdaa16MbVirVMBbPfh4sP3MnibkuDNiZy5I1o7y4Pl7x+AvBpeCX7bfJ1KxUVFRom3LVb6HLI5jNv0IHBbPpWVtDdXRyimYp7mZgbt7G+QqcR/h6ofDF/L3zmM/vFkIBa1zSVXlVOq+lp30sFRZT08Y0Hdu32fb6ToLXDd6tBOG2DQ3O2IpOH63UQTzX5oI47lfjamSMdpk6H2cpKIkByQnBiaGrrUm2rO+SGiyJYjH74YPZzlZfWy8zibRM89IgRX7HXwE8czcZ87NRGgb9CIp3G/Ft+rqaGjXsrrGsNDfS8mDZzMy0jE66T3fyw3GlNAvhaS3mlgrE4J0rwfW0p8L0hbTmoz+fv0excJbagtNs+I12ICxt1Ie2IfZaa7j7c88/DI+M2rdceDswoeFUC4GtrvWaDgM0yTtAFNw7XByex7C73VGsTIXOw13n2rYDNcT70ibGxqWZr7cp3C6wXK3wW6u6uam+RmpibA/xIXoMEyuCkhgQYKNnzZxi7dy0Xp56mI+r1OmVNrJFmPIFwIB0dnRqYyqX/oFRCwPXbUTy4AS/sPMcrT5KQ7UAKi8/JeZzpYNDw7Kms10NelBC/VmkSuZC45Oku6tdZ4ezcrV30PkDiJHfKjj9WZIrlnaug7lcJ7vdnMn8FnBZZFTZ2INobtSrEjaFMjY1K/39w7J2TYcqpCUuYSlhSPP8RJe2zURyVq70uk8c86lhZ5rmw5JyuHmwThZyq44ccWRIW2chCqlRO6MjMzI+NiTrutfoVVCPLqZdg43dnfLgvXukOXhWz4dCC8ync1fdgISzIXMqvqm+Vro7O6Sqsirb0PJjFgeF37ChTRqbW+XwWydlcjqVLZAX2E11WhbKE3YubCnI0bDnPUgbOH+9mPPxF3VWDyLTOhJ56/hVSarC37Ztgz0g5lYWCV0eXM26r002NbXLm0fP6Swk+HyskeNnKe5G4Ubm5VBY0ut1oJj/jXPuL+/KntxXaBujb/Kt/+PHr0l6Ni07tm5xbYzoS4CPtm3rWqmua5ZDx87ZW4eh7aAxyM/yxHle5oMPL+4K+24pnP7MzbsgzvyOqMX8Q66QtpkN/1smE/GMHDt2VvhsxfZt603zmjTtxOkFJLl+bZc8cN/d0sBzIIQrFjMeYNUNCCw5trwrkyltBCOTM+47DtnG4I/zg9R8AIY3VZ6/eFX2vXVRJma4oa5pFyjUDYOyASth5+DLvpALQJpSO/3h9dxvnemXI28elZ3bNumIo4MAaxw5o7x0kIYq4H1Vd995l1y82CevHtIOr/VjeVoxQ+WcF14epXY3HuEqeDs5D3tWRx1KDCXEu+uOneuXQwcPyR07Nsumde0Wj2aweA24YSXo7qyVXbt2yckzvM34suoPcvChQX0Gh6LwYZbxfJEc76V2eQIDgV+xuCtyjmoenF+ZfW7i0IkeOXn8mNbHRuniG72KsESIi4hilRX26WM2PoQNlMd8OqJEL1N0GbM2SsZnLg/LmfOXpKWl0Z5IJ7Q4OwXQiNyDa2pulIHhSTly/JxUVtZKXU2lVFTyilRHH2rObN18595GlO88f+4xynz/+ZyPcz1uVl0yVSZjEzNy8mK/vPDiQWmur5R3PXGvtDdXayhAhvrrLpYF0jACaWpqkqGRaTlx5rx6VEq91k85b1+uYImjOG+r7YrJvdRuterptnXWcMolkSmX4dEZOXtlUJ5//qDwWe3nntorndl3YDl9MJ8S8rBQjYphatQ21ds7JKdPn1UloG2qtlpisSq7yWubP2hXQdtyKUPO+Aq5InEKy1Iszqq5EC+F+a6O88+8uw+FJbTPD49Oy7GzffLSKwfsBY7PPrFXmut4pzAiDurD/vRaf3hGb2hk2D7FXcn7efAPDMhC9VamkVysVUOOHHf/y7U1fPmlo3LyxHH55Eeek01rWi3G/CyF4YqKcrg6kJDnXz4ko1rIzs4OWdfdpdMtp6yIYzfylkY0C0vnThcEZJ2oAZY5OC2A0SvCQ9ZLI/i68JU3H+bjzVc+sPTFIoEyPgKUlgm+xXKtXy5duiINtTXy7OP3yaYNfIvdpacsC7SPBRHO+tpgQl7Yd1SuXL1i90XWdnXZG2l56y7wcfOy0ozDN0iLFWWprBVLWwwrLOoceDoL0YOnpfJ1u4DyujK7umO31OR0Qi5c6pWrV3ulVuv7yUf3yM4t7hME4fIvJCvg49qGS418uWdcXnztoAwNj8q6dd2ybu1aaWqskqpYTMNRnHbQqPmU81WahhbJuLAPL94HChKsEMuhstwc0Q287WNc+/xlq49r0txUq8ZD+3x3i0oin2JYbvveOiUnTp6QZ59+UjZ0uu/f3yQDEhRcfzAgvIjuz77zhhw9ekR+9NMfWbYBYS0Pq0r8odGEnD5/RY6e7pGJqaR9ra9KZyJmhc2AOKpLo+34XErhoZcTNgYkl0NYoduZ8jBf/ojaPyA1XxwP460wknpafvrvg4rTIQLx0pJMzugsLiWb1zbLA3fvkrUduZelLcbDUkELYgljlM+xnjkrx05dlOl4WuunXsp11OjqJ1h6DEOvXetDpuYzB0vlcZ7keYAWLCyn3NQZtJeTJoyl8HU7wcuBVs6KtH3dLz0jsfKUrFvTJnv37JDuzrq8920tB8jLtu9qYma3AyMzcuLcZTl1tkemZlLanmp0UKqDErt5j3HI5cKp1Vee0IkTnBrm42qxmiJ8sTjXA/jK8eZyK8iP4Dwvd2ETMv1jq25mlo9WJaU6lrZX9t+3e5usafM3xumlHvn5ffOlg/La66/JD3zyY7Jj49rAd3GsugHxxDLaCjiv0KHu559/Q44cOSI//P0fks06OsU/x/pCcDR8fNyMatWrAzNyrX9UxnTalYin3IhliRTDsGShYzF4qjmz4LnJh6Ohv9pac3Edsg3BBfvIC8KiFGTjasol9kHzbYkmn6rqmI7YqqVLZwLdbXXSwKtWNSUjx/CTvtcLmtCs1gvPfvH66J7+KekdHJOhsRnbgs37dQr5nnPl/vOQLWNwXAiFaQvhFE0o14WIajQfbCnmIT7HwBfBYnzdbjApWn2y1FQuMZ1mNDdVyfqOJulsa9I25hQ/WIJ45gDKdgNY/5klg4QKulfb1JW+ERkZn5FEkhgaSJ26qDnMUWerZUAUiz1/sFIY2Xy+5niph8u9kAeVhMXTfq31UlVZZh8GW9/RbN+70QmbpWD2kT8DccTx5cwMyGuvyac/9THZeUsYECXL9DamU5Dv7D8m586dkw+9+wlZ29aSjZMvsmJwMXMKWEWg0sKOskOc75LPchIQslieeImR3yhzIPtwkGcHv1WRdIi4nc5DE/5wlTpY4xXRLq5KLnh4MERmVYBOoV7IE5Z4Pplt/NQP1y7/4GQenm8IllJw5S8bbZ74N7MINx2hwjNoqIq5174D2rhfHl0JIO3I+zMcL5wXiespfZ62Rj7W1gj2WEK+8/XB+frzzcI8bC4KZO/7vEELbG8EyMrSwxfYHb/98kF5fd8++f5PfF/IgPj48wunpAaEP0YplwfGZGpywvYa881rUzSBWxz5heYKhxq8XsaXlv/1wfNIXpyH81wu/4Vpl8q/z4c68VP+paZdKsgjm09wBNTTaud14xEu0dsVxWqJHox/rvy5WM7fhQcIol2PMs7lxJm7cnm4kbLL1aF4NguHXh9y3DmUIo+VIJ8v5GW6Nzjmc1koHzcgP3r6kpw+c1oefvB+WdfB/RKNGURdqD5LZkDS2TVv94lLdlO5K2I4jhbga0EYxyQOc75CYo6f5WClXHvkyr/srEE2+4DOUmgE0XzOWRKriDAb0KfhOrireWf/i2obpTRf2huGm87ADUCxetB6s/opVn7vzzGU1ntdB3K5+TNH0OcI5u+34TTXyQig8WXJFOa5CvTnxVJoe3444nyaYmnxm8s/PrZakExLIhGXah3g1wZvD8gjOQ9KchMdi+ZvmmL/2A1UptdsD/MGxPG1CHcLoljpVlCUZRf/engGxfheCQI685KaG7BaOS8dK6iPYlglMu8cXL/ATG/SWBY18B6lblkrLdNS+PK0fVy9DrzcrF1PLCjMw8rLm5XtgvAR3LGYmraQeeksmoEBXW36Wp2/d8WXF5eYvJQGxJHFiJy7NiBjoyOya8sGqa9mL7LncIlclhD2JO0yBHb9WK2MHNN+SSpCBI/V7NJvp/aFXBYuT2i2qyfWw7Lx55PpUuXj+qudGR+cLZ6W/IlfrE49b9dTR1BFX0/FEzI9E5fm+jqp4vmtIGwxPr3RWXX4gpPB6fOX5cVX98vI+DQhSNDi3BpQfkxKN8qtFlaTVoS3E+h7q+VuN4SVLcdUKmXOqcNiLoxQuYOye3qOJH6FbqlwcaEFfeh52jl4evl0PU/zuesFFC5e7ZPX33hThlVHO5rqjMeF6ZfEgATZa/5OOPHkrExMJ+xV4g4u9FZAYWXcCLca+XoaESJEcAgr5MnJSTl06JBtTcUdOXJURkZ4IWu4z8zffwr7W6HzKBZWzIUx149zd+39/dGXx6cJu9UA1KF09Vq/vHX0ZPaLhNgNzSXgan6U1ID47Hn1QHk579n07PgY70ysRuWvVgOKEOHtgrBy5bGB//yf/7P80R/9kfzFX/yF/OZv/qYdMSzoHvRy/ug/h2JKO4z50hWCeOG4hbRy9OEI+HztYCjMe7UBdVx6VmdrSZ7i8q9h9D8Lo0RLWLCQE1xNZaXUVlVxwyXw8WxHiBAhwuqjp6fHZiBbt26VRx55xPx+//d/X44fP27nKObh4WG5evWqDAwMBMtcDvF4XK5du2Y0xsfHs0aAOP39/XLlyhU7cu2NxMjIiExNTWWvOfdpocc5caA7M+NG+WNjY0YLv+kZlved0ZmYmLC8e3t7ZXra+ZcKXgvz2plYGbcc2Pbkka/Hi6FEL1PMGQh74ZmeNjXUy/quDqmtdu9GiuxHhAgRVht+xH7q1CkzID/3cz8nzz77rH2B80tf+pLcd999cuedd9oM5bvf/a689dZbcvbsWXvoec2aNZJIJOSVV16Rl156Sc6cOSNJHZVv2LDBjMXBgwflG9/4hrzxBq9mOmrKvqury/L88z//c1P8W7ZsMf/XX39djh07Jjt37jT6X//6140eaVtbW2V2dlb+8i//0vKC10odZJMPhul73/uexTtx4oQZmY6ODqmpqTG6pZqRDI+Oq6Gbll3bt0hDfZ2qZ288NL8F8izZTXRAYXnNyKb1a+SRvXdJcwMflMKo2CFChAgRVhUoWRCLxcwYoLwPHz5sCn/9+vWm4AcHB+X//t//KwcOHBA+43ry5En5nd/5HTl//rxcvnxZ/uAP/sCUN/rLzxYwNP/rf/0vM0oof+j99//+3y0e+OM//mNT/B7cd/niF79o/BD3137t1+SFF14wen19ffInf/InFs5MhVnQhQsXzAB9/vOfN38MFzMkeMGYAV+21QZUN29cJ08+9rA0NzYGc44gr0V0dUkNCCCDcuWF5StvyEojhggRIkRwQPmjgL/85S/b/Y8vfOEL8u53v1v27NljRgAlzYyD5a0dO3bIm2++abMGFDpLSm1tbfKud73LwjEy0GG56Ud/9EflF37hF+RnfuZnzDhhFGygrEYFFwZGgDCWsJjBfOADH5C/9bf+llRXV9vs46GHHpJf/MVfNFrkc/HiRfmzP/szM3yPPvqo7N271/LEgHhapQB2qbW5wYxIbQ0vQfHGg/wWzrOkBgTGeAJ9ZGxKLl8bkJlEKms8IiMSoRQo1Sgtwu0F2gHLVuvWrZO1a9eacmeZCIeBYKbBfQlmCsxIdu/eLXV1dXbP5KMf/ajdF+EGPLMUlpEuXbpks5cHHnjADMD9999vRobZA7T5jgaGBqDomQHhxzn+mzdvNoNBWu6FkOaJJ56QRh3xb9q0ycIxeNz3YJbCy2e5X4NxI5z4pTEg3PPIyGxqVmamE/aizDLzWVpeJTcg4Mz5a/Ly64dlbGLK2LoVujgNLOwi3P7w9RjVawQULvcaPvOZz8gv/dIvyXve8x5bHmJEX19fLy0tLTYDwXA8+OCDFg/jUFtbKz/wAz9gDiPDjXeOxEXxewXPkhMzi+bmZjMQGIuhoSGLwxIVswlmHR4of28AyAMDg/FhVxjGanR01IwLvGGYmCndfffd8slPftJmQhi+0sDxdeXaoBx667iMT8wEpoPfxY1IyQwIXdf334HhcblwuUdm4gm7LqnVWgKYItIouHlFg6JBeGVDwwsrogi3DxjBnT592uqVG5Z0aHArGhPaHGvvnscIqwuUIjMQlDgKm1kF+M53vmM3tp955hlbrkLx4wAzEG5ic88ERd7d3W27oDAQzBZQ8sxKvv3tb8v/+T//x+iy9EQ+3Jin7bE0hWPmAg+kxXHOjXqwfft22bZtm8XjpjzLY8TfuHFjdscYOorZCe3El2X123CO3sWrPfLqvgMyqrMyD+01wdn8KOEnbfnuhGag1uLUhWtqZfvknju3S3NDvYa4adLNAAZi//79NhrZt2+f7cagsTDVZZ2RqSPXjAaouAi3PuhY1NXnPvc5+exnP2t1yi4WBgksX/DJXbCU+vS0Sg1Gsv/v//0/U0IsUURtbfWALJkJYAwee+wxG9E3NDTYaJ/+/9RTT5kfAw1unDOIJM0dd9xhy1nf+ta3LAx9gOFAqWNMaBsYCdJA6/3vf78899xzZoCYidDemFUA2hzLT9zLYJCAsYIWugWHcaCdMpOBV9op9zzgi7ZB/tDixjp02tvbS9A2c7TOXr4ql65cljt275S2pkb18cZjYU1dAgNCxt6AZOyDUud09jEyNCh7du+QJnZiqb9KwmLfKHjhs7+aHRE0FNY0GVXQiakkGgc7K5j6UmHhaSOVTCNg6ulHAzRGRgqcU9H2/ZNg9wd0OfrRjQcjCmgx/WV0Q1rSwBtrsjjg/SIsDl+3//yf/3MbAKA0kPM3v/lNG4GyHEBdohBw1BV16Eeo1AfxqSvo4DxN6gNlwSiSOvH+0GBtvNAf+syEoIe/H30SnzZBG2FwAk22ebL2ze4g347gh3ikgz/SAtoafEIH2sTzbcTHieCMB/D3MxjVU/fULdtkGShiDOj7yB3Fz2yAexosUyFzlDtbZ/GjLXGNjmCWQVroPP300+bIh3rzNAnjXgdhzHRYKiM9sw6MhG8TxCNf0mE42F4MLfjDH77g7+GHH7ZykAasdl07TS1y5uIVuXzlkty1e5e0NzPgcvksNtAvwcsUcwaELbwVWuDDJy7KtWtX5ZEH7paWxnqL5Rm8UfAdnH3X7IT4yZ/8SfnZn/1ZW6ukc3Z2dtqWOYzLJz7xCXM0BDo8N7PYikenpeLvuecea2zcjEMJ0EAZxVDxNCKWJvxI5K677rKRDQ2TtVG2AxKGAWFvN3kQzmiEPFBYGC/WYzlGymFxUEd0MJYpqIN//+//vcnxl3/5l+34b//tv7V4yBhFjeJnNIhSwODgD+jw1C0dGZoMKKgvBg7UK2vl1BnxqWMUPXVE56f9QJc0OOqNPGgvtA3oYFhoNygXjMBXv/pVUx4MXpgxkZ52yu4elAcjXwYzGBvyY1nOD0xYuyec0ayHb+PvdHg5+KNvH8WwXJkRH/g0hddhLBTmsZQ4pYLL2Wnil/a/KQcOHpCPfOh9slWNGCB8Ma5K+CChEwpndfW10tXZbrMPPjC1OFulAfww6mfpipEcVp4pI0sIGAf2cbPFj1ELI0M6P1v7fvd3f9emoTi21NGhGZ0wzfyN3/gN69zcCKOzo7CgT6NlayAKCsXElPYP//APjR5g7RNFgwHBuLAPndkR56zBYmxQEqW7efb2AnXLXnzkzLIByvjFF1+00f4HP/hBW7emHjH61DUjPcLZ3kmdMZCgblDIKHSU+G/91m+ZsUDxUx+7du2yWcD//t//267J07cHRqevvvqqPVAG8KP9MAKlbjEgGCxmKNCBv//wH/6DtTNGmPD2p3/6p9Y+WSJ5+eWXrX0yuGDJlecGaFO0NdbMGc0yyKB9hJWgP0ZwQB5eJl5ZLwek9fLlGKbh6fojKMzDpwuf+/jF4nosFLbaICdmRq1tzbJ2TYfUaJ8JY6GcS3A/m+x8lk4I9bVV0tbcYMtZ3u9mgQ7LXm5GJHTa3/7t37bRH2ukKB6mlI8//ridowS4acZsgd0Q7MzgyVPeqYMCYRTJg0SMWJmxMJpEgaEg7r33XuvkKBhmFigejAbGClosqzDzwYChLHhSlfiMcuENvhi5RlgcvrNhLDDa7PHHmLBM+d73vtdmCRgI6oo6YqZC3aGUqW/q9dOf/rTR4L4EA4WvfOUrVm8f+chHLIylDOizPs6NWNL5uuK+C3XFGjhpmK2w5x8DgsHgWQEMBjMV2hazGAwFAwj8MWgYKtrUk08+KT/4gz9oefGkNG2PNkTYhz/8YXOE0eZwHmHF9E4HcvAujLD/Up1P54/UN64wzIPrsAv7+XMP7x8O9wj7FYatNrhX3bWmXfbuuUsa6xpcWwrCFkMJDIgHLKjF1d/xyRkZGNaOwprWTYKvBNZCUQo8vMPNNEad/+2//TcbZdLhGYGyfIDSQQGxfPWhD33IliNQGCgGlA8dHpqsldLpcaSnc0MLRcZNPBSFdygTRqHMMhiZYjDIjxkHMyIUF/mhNBgRkCbC0kF9YPSZZWCc/8pf+St2o5MOD1je4pplRRQyyhtjTr36NW0MDTc2mTliCN73vvfZLJGbpdQZ/iwj4TinLulw0IIOs01eecFMgUEDMwTSEgdDgJGhHcArYaRnZsE5xo38aEucwyNtgSUrwmm7DHRYLsNFePujlMbDUyYLxmDaDJ1xDPyXghIaEMcUzJy80Csvv3FExtSQ5Ni+8fAdHcXMDOGnfuqnbI81SwQ8KITSoXNzBFSeVz4edGaAgoceBsGPBDECvCKBpRHWunH+xiwdH1qMKpltMGLlHT0sU5An4cyOUAwYK9bvMWQRlg6ULaN89vT/xE/8hHz/93+/LSsCZM/NTN8hGfVzjuw9SI+ipm5xxPH1zZFr/P0NTn8/46d/+qftmlkls1uWQJm5siQF/R/+4R+W7/u+77P2wRtiMS4MNHzb8u0sfD8jzBt8s6TGPRM2BjDDJS8P4vpyRVg+6MfvVFByWuHQ2KScu9Qj04kUDSpYJ+J3YdmUwIDkMvX10ts/JCdOnZXJqSm7Xsr+4lKATsYyBvuvWTbCYVCYOaDAMQTEYU82MwGWl3iYh2ULFD+GgfskKHlGp3RwFItvgJxDH0XDSJTlLsIwSBgtb8C4d8IMhzgoJPJgdMvyF8qHkTL3P7j2eCc38qUCuVNn7HjhHgejew9G+YR7IF/qgBfsMTNgWYp7V8xOWGbkZjozka997WvWTth8wb0SFDezTtoKBp/6ghZGhUEIBoj7Y+SN0memwkyCNkZav9RFfYb54RznDQFtifbFbJe2g3Gj3TDDgjfKGWFpQNbF+k/Y753av2htuHMXrsh3n39JRsbGlzXEL9FNdAcqpVw7xEllbqC/T+6+Y7s0N9YH5kNHTXa8MYAXOidLFIzi/A1uOjhLWoz6GRWy04UwFABLFywzMUNhmQmjQqf++Mc/bjcwWaJCSRAPpYMxgB5LKCxj+adWGaVCm5kHo0l/0x560EexsFzG+jk7tFgbByhCaALPf4S58LJByXNvgiWgsD9g1E/dURcMFjDYjPr9YIH6xWD/0A/9kMkdg8BggJvfKG7qFUPPDW/qF3psemAXHrNM/Gknzz//vC1vYrCYYWJkmDlwn410DCpobxgaXqPBPREGDLQ5ePK8+6VMrjFwtAtuqDPjhT5lIZ1vHxGKg8Gbv79E3wv3J4Bxpn7pp4R7vFP6mi/l8VPn5Zi2uTt5DqTZyQEJEb6Qpi6xAUnbrqtTFy5Lf9812aPMtTQ22Dd4YepGVxGNAsXAyBPH6BHDgVJhREmnZikCJUTH9yNMRrMshaAkiEunJy5GgZElCgelROP0909QRigc1sUZ1aKMmMGQH4qFraHs2MGAoCSgzRIG+ZAnO4GY6cCzV4TvlEa9EiAbRuXshvIzv7ABoT5QuMiWumOAgCEnLulYFuJle9x7ANQD9U9dEo8lT2adxKXOaUecU9+kJR750Sbw9zfMaRcoe47UNXXPjIX8aWd+9kJ+GAiWxQCGArooNXaKcWSjBrMfZsQYI+7h0W7D5YyQD5YNf/3Xf90GjdQjfRkgMwYQGH22fbMyQJ35Jed3Gs5fumYD3rvvulNamxoC38UNSAmeA/HI2IOEGJBXDh+Xszqyf88zj0tXe5vMqgkpk/LS3oC5QfDio9GFOzIjUL/GDVgi+b3f+z2bbbAEwUyHbZ+smfOenvnShelHWDquR27helwI88Ur5k+94rcYXc83R9oB28P/3b/7dzbg4AY7S1sswbL8+fM///NmmJbK7zsRLBeyi44NKuxu+5Vf+RUzzsgMo8FzX9yXog+yJR8DzayFDRDMADHcfmbilxUZKGKYqFMGC+GlUtJRVxh2Bga+XojLqgQ08KNuoQsvrEbAH/kykGCXHoAOceGV/BgE+bDVxguvvSkHD74hH/2+D8nmdZ3BID/oQwsYkBLOQFymfFCqXoXZ3dUpba1NEqtwd/lh6u3Q5Klg30j8EYTPASNUGgxLITQyRjpsMWW7MOcehelAMb8ICwOZrVRuS003X7xi/kvlx8fzcWkbXqmxDIMCYmbLbjJmT2ApdN+pYFTNfSxmj8zaeLIbeSIz7nmxvMjSIbNStndjDFhOZGbCqgFL3vRbjAH3xBj0ca+LJUmWP1HozBoxECxrsixJeuIQhoGh7lgu92HQhhdmoBgSaBFGevQD/GBYeCYNxxIcecE3BsYPMq633h0VpaOO23F87G/D+rVSV+OeA9FWGOjo+fMp6RKWltCYhDHegRXTysEHdjxrNxPLGbktt9IKaaMIWPpgqYqlFGYiLF+w5BGOV5jPUvOLsHIs1A4Wqvf50hXzX4jOQkDBoKBQgDiWuVhq8UprufTeaeA+JUt+LBMzigfcv8QQs0uOWQYyxdB86lOfsk0KLHdxRPY8D8QMgaVotvzzqiM2QmBoUOrcA8Mo0b8xVBh50hGGwSEMPx5Kpb7ggXjQ5IWOGAj48EuRbNKhTln2ZombZ9Xglfgsa/slTnA9de9aoztCpba2Rjo7W6WhjscMwlt5F86jpKtI1mfUTSdmZXwqLimeWMky5Itw87CcCiDucuMXglEFa+YYEdbDC2/ogeXmE+H6sZC8F6qP5fgvRGcxoKwYfTLwYB2fe2XhNhNhfiAnlC+yY7MLbyRglI8RYDbAPU2UMrMEgCFgeZBZHgqbm+w81wMdjApvCeDeFFuzuSfFxg02vdCXyYN7ZRgkZjRsqGC1gQ0RbJDhIVAeWg3v+uShZDbiMJjk/hszF170Cli+xABy34z8qHtwPW2pGGhJNdUxaWpsUL6DTRlLbF4lMiDkzihMM1B3uWdQ3jp+WqZm4upPwVev8LcL5qvw1W4MEd4ZoM0w0o2wODAOLEHxNgGUMoqdpSjuZ6CcPZAnhoL7ERgXZhfMGJilQAOZs4QEHTZYcMQIsIOSONzjYKkKYwENdnaRDprkxTXxSMMgEuOE8WGGwWyF3WAMDlj2AqTFWPmdeiyllWrgMD4xKdd6+2QmETwXtUSVVKIW6BaqKCt8XLjSI28cPqKV4Z4DcR9Fj5RmhAgRSg8UMY6ZBSN93k3Ga4UY8XMfCQUOmDWw9MQ765j1+eezWHrCobzx9wM+aDLzwB8DwDfTuTHP8jQrDF7ZYzCYvbAkxXvMoMkOOkCeXLN7EP5+/Md/3DbWAIxO+P4oWK3BpqfiNfGFS1flxVdel+HR3PdAHBY2WKVfwlLEU0mbfczexFeZRIgQ4Z0Hr3AZ/bOLiTdPMPtg5M+uNuANBI77FTiUOiN+lDj+AFqcYzgA54QDDAQ3xlmaYrbDshlhxGU3FdfckGcJjK3kPh5LXn4myRI390QxOAD6GDef/2rPPrzxALxq6tyFyyonVok8Fs+vtAbEc6eCR/g8VAgyZZEhiRAhQunBkhA3wP3NZ87Zssu9D0b9AIXObAMwK+FZLe5b8AAnuye9kuc+FG8ZwLgAFL7/jggbHLjHgRHheS9mJtxzYScWsxLSMyvhORTuc/DSTpbH2GIMH7zpgq3+3Khn+QuwzAVfGBVQquUrkC6rUHOBOVieSSjhcyDKlFLGZjy//6icOX1KPvjc09K9pk3U1qvlc38RIkSIUCpwn4HlJbbMMuJnVsAzWIzy/U1pnvLnxjpLSCh64qPkicMSEukwMtzj4O0D3P9gBsH9DO5bQIc43JgnLctS/r1mxP0v/+W/mIH4B//gH9ishl1X3HznOzUYLGYmPK/CLIVZEmm418JshRkIhgSaqOrVWsLyQPlD8dsvH5QD+/fJpz7xUdmywW0Pz81A5s+zRAZESRpVzVj/L/cOyejIqGze0C0N9TUa5NheXVFEiBAhwvLglXKhcmbZiOuwX6GqLJbOx/F+GAW+H8NWYm7YM2vhBj30+bAdhgmQzt9T8ddhhPMoBd48cc6M4ZOPPSJdHW6GpVwEx/nzLuEXCTlwM52ZiDtWKB8llkOECBEizAFqrpgSns+/GBaK69VosXBmLcw42AEG/LIYr0CajyewVL6uF9xhmZxJyMzUtG3lra6sUCbUcwnZl9iA8A8XOUud5enGyCZChAgRbgq8zgPMRLiRz8yD+yJ+d9WNNhbF4N8JzQtZMCblypKxA2uLsFVSA+KNB69zHx8blQ3ruqU2/C6XmyezCBEiRLghCBsSj2J+NwNoaozGdCIpyURC6mprpaqcLy5a8KIo7S6stDMhJ85dlOdf2Sej45M5o3HzZRchQoQIJUcxQ3ErGA8PjMClq72y743DMj7BCxyd/1JmFiUyIHDAspW7mozP2hevUsH+6QgRIkSIcGsAbX31ap8cPPimTEzoIH8ZKO0MJLuUVW430r1p4/TtC8rsXYTlIJLY7YZi7TyqxRsNXwsrkbxXxTxywec3/B0NT2sxmiUxIGRqGQcGo7qiXGqqK0PTtsXYut3xdi/f6iLbXiK8DVBkdBhVbsngRev70MpFzXeI2OTkKGRr0S8jzYMSGBCYIHu3h5obNFs2rpUH994tDfW1FoNi+tnJXMwnBu9fPF04tHiM0mFunkU60TIRLks+7cWxlLSFcVbqrgdLpRHObynuRuFm5FuY50rcQlhOXNfOl9fWC+mX0s2H5cZZTrxCNx+KxQ27+TBfvHBNzBdnITTW10hXR5tUV4fevbWI8QAlexLdM48BmdWfzOysVMXK7e28ZjwyzsDMQYidQsbyYvvlsMCBcHgRyiGQYuEYy4HPn2O+RS7GWRg5Ppg+muF1/9mUHj6miz0/kPdS4hXSJ52HSz+Xd3zCfBTLY26q+eHieooOc9P5oYYL8XfRuCo2+gnn71IsxlHx8Hyu8kGYd2Ee5oufQz7V3BVnHvNTCcfy5xznk4OP48LDqd0Qz5Ys9Iw+6XMNx/JtCeTyIIbzJZzuSlcsxkMW2ST5dQnC+Tlf75N/xTGfB5BrpSD/iuuAhnqHVU1u8BryVISv8inlkM8VZ26Q7CTpcsyP47nIRyF9rr1feXDm0uVS+zj5Pvk55McpEh4II+fj0Dc0IqMjI/aqlbqaqjnh86FkBiStzLvClElKJTw9NSNx/6pgDa2MVUhzfb1UVLjCTE4n1E1n7UdZWUaaGuqlujJmdBJKY2x8wnZ2EYnw2ppqqa+rtQpMqWaZmpqUhObBZ3TT6VmpqapUy1pnH0hB8UwpD7wszPLQTKn6lsbgQ/t6PR1PysTklNGDJx585AMrNWqVSZJMp2VsbELz4lvvGqiEalXY9ZoHSCpvU5qectqroTV+VWWF8RDjWtNMKA/T2dfa668emhpVDsHWuWQqY+Wkc7vwjJaxRmq0rOzPRpbwmNICU3V8dx4eGlSWKAIkPDk1LfHQq/MrlXZTg/KgcsBraiZpcShnWtNXaMYNjQ3KKx+SKZPEbEbGxyadrK0GNY9aLWddnckhpeGUM5FMKn9sltBwlRHhKnqlWWavkJiZSVhq+CRrvodPvQNerjkxzTditMMoT3SaBi0ndACyZNdeUvNCLtpQVQZVUlNbq/xmtD7LlIdpScTdJ0LhocpeIYGsoVmmZYzLlIYb00E5kDXxLA/NfETrk2IaD0q3rrba9ukjuaQOesaUB6vvoD5pc3XaJuApqemmVI4JLScJ4BEZN2s5aXOANjWpfAYsKB0d7fFxNZWD0UDWmscs9a306Ru+PuEhofU8qW0mmUrptSsnfYJylmsepKBvTc/M6JlToZSFB8LIg/CE1vfU9IzVg4WrL+mRQ44HPtFKqHsjEiPRGo1DH8Cb+p5WWdK3iFWltOvqqQvlSp31LQ1HypqR1QH915dzJjlr9UlawpFDfW2NVKs8Ndjqwtq1ypprykm/q/M8qN/UJHm4ds19VD5QR9+q1AjQnZpJaf9yb/zWqrR01HelMgOPCeobHWJMKPSkrk51iPJBnrTrSU2fSPJkBDQzJusG7TuUE1AX01bf1IUrR4N9LE9PyEPrG1nkZJmx0T39F9mQx9iE6hAUlsXQdl2tPGg5yMLJ2pWTNuzqm3ZdY+W1cir9KetbDrTr5qBd40c5qU/NygAP9dqu+WgUPMMDsp6lvVkcx0Od5kEpcbSBMEiHDAtREgOCUDJaKPfGq3IZmUrKgcPHpG9g2Bp9Jp2UtqZ6efT+e6W1odbKcOLMZTl66owJFuNTpXrm0Qf2yvqudhNq39i0vPDqfg3XRqwe5WVp2b5lo9y7Z7elH9M8Dr55RHp7+6WyskqS8SnZ2N0l9919l1Ugnf2to6fk7PmLGlsNSialeWTkmccflbaWZmug5y73yhtvHlWlhoFQoSqv9+zeKVs3u9cNDKkieOGVfdaIYuXKoJZjx1blQfNAtBNqOA69dVwuXe6RqqpqSSXjsrazVR68d480qnIlj0PHTsmZsxdV0bKxQDuBHh9/5AHpbG20musbGpeXXzugHU4Vhl7TLu/atVV2bd8ildp5hydmZN/BN2V4bNykm5iZMjk8dN+92sBE6F4H3jom585dkIqYKuN0meX92IP3SnuTM7ZnLvTK4WMnJK4KMjWbkho1ck8oD2vaW6zh9I1OKQ+HJUlHymhDT8c1/42y9y738rlRq8+3pH9gQMq0Uc9qnWxZ3y333LnbGmpSm9SbKocz569oATRc86mvKpenH3lY2iin4syFK/LGsdMyndTBhPb0Kq3Pe+/cIdtV1jTU/tFJeXHfQa3XhL1CW2YTsmPzerlvz50aXztRIqOyPiYXL12VmNb3bCpuU/D7771bWhqcUjp07JycunDZHt4q13KUS0oef/RBWdvRbuF9QxPapg5IXNuc2k6lm5E7dmyRndu3msIYUOPy+sHDMqrGtKKiUpKJGdm2eYPmsUfrTWWv9Ue75i2mGMYyzaNJjeBjDz+oPLj6PnOxR44ePWmDj1lVjtWa0SMP7pXO9lar2/6xGXnl9QNmaEQHPWVpLefWDXLfPXfbg12DE9Ny8PBRGRgeUZ60zais167pkAeUBwYWqLrDR07KGa3v8oqYGb1aFdCTjz4gHS1NWhdlcuHyNTmi7Q7FSF+Jlaus99wh2zZuMCXbr33rxVf3SRxjS99SzjdtUllrHsiFD8LRrs9dvKoKv0ZlnbS2cv99e6RZ65t2evDIKZXDFUmh2bWstWqjH39YeWhr1hxFrg6MyQtaTpQadVGlGe/avlnu2Lnd8TAypbI8Ygqe+o5PT8r2rZvk/nvukmqNwMAIWZ8/f0nru9oGhPWq/J948D5pVx3C9fHzrl2jvMtVlrVVMXnkgXu1D7ZYffcOj8sLr71hChQ5ZLRN7d65Re7VPo6sR7StvaHtum9wyOo7NZuU7jXtJutGNWbU5xtazjPnLlrfol1Va7t+RHnoam3SsvMN9l55U2WNMSXPqgqV9V07VIds0v5dLkPjU1bfDODo8LOax2athwf33uNkrRV68M3jcv7CRXvYMK3hXZ1t2u53S6saCfjm20onz15yslafmLYC6rtL2zXhPSrrV/e9of2bK23XWt+7t2+Su3busLoaHJuSfYfeUkOm7Vp5QE+h4+65e7f2gXLTAdCFusGRsX5ZCBd3leHGA65w/CZVsU5j2bUD8rAK10kVcJq1LYtFu1XDoQ0zpaPapFrfFAo04JwRFZY4EZ+xEWcymbBzKhj6VghVWrOaNqVhKc2D9CguKBg3GjGl9BM6UuMY1/SM6iwgAHmQHh4dDV5BTxd1YFbjeUgk4nbuywBQ6MSBv6SmJU46lJ6coJeMTxv9hI7CiQOHdCLjRMth6Smf8eBkAm3CjT5pVUZGS+OmtZzMVAinI8xq2eENeZjMlRe12lA3YdgoRMNmlQ7Kf1ZpEI4ccdDDD0WBsw/q2AjYhZdpXKsr5R0ZITPCIW5xVKbUb1xlzcvrULzw6bqtAzxQDuOB9BqPEb5vpBkrp9IO+COvjJaXTub4VFoqe9KnlD8XFwWZa/jwniJvqzOc0lB/H46isbakaV19+nYX8ECbUpq+DuI6iudI/oA6Q1ZWV0EZ7PXfoTZB/Se1DPDn8lA5YNA0LXRoc7TFxMy0yQMeSE/54IJ4KBHrEyYvpR+qCxzlhAfkRDzydGHB8hTt2voeNKh3lZPybWEaTwVh8sUZDT0SXhmE4+hL1i+sbSFvpyA9DSunpnNxXDmsPRDImdU35XcytLgaz2gQQeubvOmfrt6UB/WzMAVHeJ/RmS15OFqU1Y3kLRvVIbRn14cpi3sVu69z+g7t1cIsvfZfa7c+vesXtF3f/6xv0S6DOOQ5Pe11GXHoW0FdGQ10iG+PjhfHg4tD3ZsMlLa1F41HOX3/xyFL8uFFiiZrpeHH+YTTJo2+Ourb6iKkx+DZ5+Fk4fofUSwW5aRNWl3EtZ/qLFuPOQoaxf/5fEP0wyjREhZZ84sr0xGMTi119D6rFhg2ylXILKs06iiNkQgjcSw2U0OWbnAV2jJtuYFhmoJlFZYbHDSB0rCpfnZZhemlW9oxMWk4O7/qmJ4qLeKwlMAoy0b/NE71b25sNKtLeFw7xzjLDZq/8WlLGiyr6PRT/eLasVlucPcrAFNDDWdqqFeUg2W4hJaXcPKAh8baOutocDapSojlpbKyCqNjPDQ12IiWaz77O6Yj3mwe+sM35VmqQxIJeJgIpp8sJ6RT9hF8ltpoGGmt6HEd3bBUV6azJOhU6Yiusb7WRvosL83oiNIvaTBPZLTd1EhdYH5YbtA8VA5kTk2mdaZVH8ja8ZCxpRsMsE5wTNZ1TIFtNOrqizIkktr5VLY2A1DvVpZVkLXKiS+fjTPV13Pqmsk5y2Q1OuqisTIrGNVyMqqDZoUqhzqVg5VTwdIX7YX6pIzUBZ/jRE6UE7b4jDLtysHJs1Fnvr6cCSXOsorVgwbSLlmioj7pL0mVtU31tbzwwGiRcGQJMBMTmgfLRxhN6Mc0b+TEjIRw8p+aViWhecAB+YTbNaPEUZ1NWkUDbTPM4igHpWI2zIyX2YMfRLB8xIYU2o61Ka0rW/LQ+p5VgbJkY0uWKnTkx1Ijy1zIGjVXprM9W6pjZ6T6xVnyYP+/hTuwXMiSIl6kY+l1RmdJzHJQcJSPNkMfgSfkEGcWRZtUOcaCctrSjoJy0n+hZ8teGqc6aNekp62MT6pCQ5nSbrXN8VQ0snD1UyZjlFNlWa71h2xZ9m3S2Qe7PE3W9unsaY3Pugft2i0v0b+pz7jlMan8OTmyfFuv9Vmn5YRLW9oJ2jVNijyrq7VN6ayLcma0bGPaJqlTZA2ga8tk5KHXrhxTyj9tRtu16ZBqnU1UKA1miGltcyqHQNbICh3jyqnXmoalV/suB8SRE8toLOVpfZOMurSlWc3R8ZkxHeKXTZPaf5lduJohhV/OD5ZFKae1awaeqhO0Plli80vxLhecO1i7g5ciKNk9EODZoHLJnvkAx5ixlGVRhYC/+rh/5xccaeDeM8tpcM2hwMuu/Tng2sdx4nXwfsDFdx08nBY4U0hFuVLQqJy/+yWFKTD1dzFz+bi0+KmvKgLKz1p6YS5Q9oWjogp5AOH83FkO5mPpXSMPw8vep3I14NOQn13mIUybc5/ezjUf40I9TCkG6fPJEBicBae5nAnNxfb0wwiS5h0plYunV5YvVPJTEs/SaDhy9OegsANwZXJX5EsMf9I46jhHIYBecI0hoMNDljh5sARONo4KpQeeY65yZ8XgaeZiFoPS1QiurJ5SKEf3b+Fhev7XYplVKTdjFAa+0HChuTCf0uXBj5OW3RtRZnz/8AjEbwmICSfEyKbnV/99/fjowMXRv1B4MVg8i+PqhEFN9n1OhFm4axMO+IT5cHwZNIjQICBHQw0bxtHJujiCqFmY9AIaDNUwa4WxoOWyIq7+Bv0XP9pnOIVJ2ujl0/DwtOaGuhL6cAd3xTVnwB85c/F8nLkUPUpuQHJHCuHOXIMMmHc85iLnwXlmG5deOlGoMNQr8NV/9dELYuPwx/BwHkRyUA8vewsLIjsvdxF4GVwc/TUPfvQ8iMABXqwsYT/9cTfc3EwK+A7ouhqdzDULF5qDSxVqzEAjEY8lKhfDXXvkdVrjNUc3G0/9iWJyC7zCRHxyn95O7dfBB3tYmMZlBOeVpKMP+NV8bDilZ6qYnOJwjZKRPNkYXAIXz/0ovCdZ4Bdc26lL6I25o0XZXBxvELgqbNYuhv66f8gZfHqXxnyCyPZjwN/Hx4ACFK6dBjw5/tzRLgO6kMnx4q4tIWHZpHi6Mw9fp7ShsMLInSmMTpAqlzSbTTi258exEkiKYLvmxNVhDrn+iuLz5IMsHbTsjgSh0CYPbds+TogeYaYQfSaWJFdyGpLPwxF1Vy66ixV45aDe2fSk1n9XMufLL+ldOpeY9uoz8u02S9gi8881AcFvKA4DF4tkcDzTBByf+f6u3pGJeQYUnYGwmMGPC3d0XTouXWx+3VkQ3aOA52wkD+9HPGuj8OTaOaAP2ZVPDyzQXzjkUhRHSQ2Ih8sgl41jaWHGFgPUilGYz/96YF1JCfsmniuJA0J2Ve/ghO7S2LVvQRZHQ+1ydbh0FIsjx1G46SycZjHQXMJ0jVaosftf/x40fohFHBcCcmfLQy7nQiBrXy5/DCvelcByCyrR/RZwbhn5kADmF8TStMZDXiJtK2YAw3ARkC3xjQQeIf7zSFw3CnjOo+5zD8eZL/dCOmB+TrPlykNxXwdPf36aNxtzuS9WHl8Oj4XCQ/W/TMyfztGfqwVAcV4crcW5uCEG5O2A1RLT9Sq1mwkkEDYfOeSXya4K5FXqchern9XMc6X1X4yHpdK6ndtKhHcGIgMSYVko1ljCfl7lRaovQoS3P9yCXIQI1wGMhXcgMh4RIrwzEM1AIkSIECHCihDNQCJEiBAhwooQGZAIESJEiLAiRAYkQoQIESKsCJEBiRAhQoQIK0JkQCJEiBAhwooQGZAIESJEiLAiRAYkQoQIESKsCJEBiRAhQoQIK0JkQCJEiBAhwooQGZAIESJEiLAiRAYkQoQIESKsCJEBiRAhQoQIK0JkQCJEiBAhwooQGZAIESJEiLAiRAYkQoQIESKsCJEBiRAhQoQIK0JkQCJEiBAhwooQGZAIESJEiLAiRAYkQoQIESKsCJEBiRAhQoQIK0JkQCJEiBAhwooQGZAIESJEiLAiRAYkQoQIESKsCJEBiRAhQoQIK0JkQCJEiBAhwooQGZAIESJEiLAiRAYkQoQIESKsCJEBiRAhQoQIK8J1GZBMJmMuQoQIESK881CmBmBeCzA9PS0zMzNmJMrKyszPG42qqippaGjI+keIECFChHcW5jUgs7Oz8t3vflfeeuutwMcZD5BMJqWrq0ve+973Snd3t/ndjvDlwQiGzyNEiBAhwuKY14Aw8/ilX/ol+cpXvpJVsDjOMSBr1qyRf/tv/60899xzQYrbC5QlkUjICy+8IENDQ3L33XfLHXfcIeXl0W2hCBEiRFgK5tWWqVRKLl68KGfPnpWenh4zGLt27ZLt27fLzp07ZdOmTVJXVxfEzo3mCzGf/82EN4Sjo6Pyb/7Nv5H/7//7/+RLX/pSHq+c305lihAhQoQbjXlnIOPj4/KjP/qj8hd/8ReyceNGU7RbtmyRdDpty1sYDwxJY2Njdtmnt7fXHMans7NTNmzYYP4+nKwGBgakr6/P7q9wHwXDtHbtWgsPY2JiQq5evWpKnngsmUHz2rVrcuXKFWltbZWtW7dKLBYLUoj5k6atrc14ZTYxNjZmBnByctLodHR0WJ7Qfemll+SnfuqnpL+/Xz796U/L3/27f1daWlrMOFZXVxvNeDwuly9flpGREamoqLC0LNv5MiEPwinX5s2bLW8M7+DgoNTU1Bgtf68I/ig7fBAXf+CrwNOMECFChNsBCxqQH/uxH5M///M/t5nHl7/8ZZt9FILkxD1w4IDdMzl+/LgpXRT4Jz/5SXnsscdMyRPn9ddfN6V99OhRu66trTXaLIM9/PDD0tTUZPQuXLggX/va1+TVV181hVtZWSn333+/0XvzzTflD/7gDyzd3/pbfyvLEwbif/7P/ylf//rX5ZlnnpGf+7mfk0uXLtn1G2+8kVXoLFX95E/+pBw8eFD+03/6T/Lyyy/L1NSU8XvXXXfZMhZLd+vXr5dz587Jiy++KM8//7wZJspx5513yvvf/3554IEHjF/y/Z3f+R35xje+IR//+MfNwLDsRxkIp2zIAMOH/+nTp83/ySeflE984hMWPzIgESJEuC2BAQlDR9R21JF7RhUcmi2zbt26zP/4H/8jowow84UvfMGOOsq2eMlkMvNnf/ZnmWeffTajs4RMfX19RmcHGVWSmR/4gR/IqBI3mn/0R3+UUcWe0dlGRg2HhathyLS3t2eeeuqpzJ/8yZ8YLVXmmX/6T/9pRmc3GZ3lZHRGkFHFnVGFnvnN3/zNzG/8xm9kdGaR0dlI5rd/+7eNB3D48OHMI488Yvz+7b/9t42/v/N3/k5GDUNGZ0nZ/CgL/P/H//gfzY/4qrgtDN7h5ezZsxlV+Jm///f/fmbPnj3mr7OFjBqgjM5grKyf/exnLV+dmWTU0BpPagQzjz76qJUfejrTyKjByehMLvP0009ndHZiNCi/GsCMGh4rM/Lxco8QIUKE2wUVqqz/KYbEw4+CuVGuhsFmFJyfOnXKZg/f/OY3bUTOUtB9991nyzL/6l/9K/nqV79qy0of+MAHRBWsLfcw6uecJS/uM3z729+2ETcj+He96122JMXyz7Fjx2wWQFpubDMDOHnypM06PvOZz4gqcVtaYtS/Y8cO44EZgc+PGcp3vvMd+a3f+i2bZTD7YAnqX/yLf2GzCEb7zF6YtTD6f+KJJ2wJiaU2ysWM6Z577pGPfvSjxhezIfL41//6X9uSHGX41Kc+ZbMPZhL79++3Mn3oQx+yvNWoyqFDh2y2BE8f/OAHRQ2VLZ0xCyIP4rFrDR6YnVBuQFx/LymagUSIEOF2wpK2HLHOzz0J7ht4xz0McOTIEdvJxPIOyvBXfuVX5Bd/8RfNYPz4j/+4KdRXXnlFXnvtNYuDIv9H/+gfWZx/8k/+iS03oThZrjp//rzRxJgAjBRGg6U00ugo3paZOAKWplgSwhCwhEY67svoLMAUPIYBYKgwItzvIE+MxUMPPSR/42/8DdEZkMXh+pd/+Zflr/7Vv2p8styEscDgwfMP/dAPmcOoAZ3x2L0O7mf4nVvcpyEPeOV+CvkAncHIT/zET8g//sf/2ORz7733mv+JEyfsHk2ECBEi3I6YY0B0VpI9+hExo3+U+N/7e39PfuEXfsEULYofMJrmBjJKEiXNbIGbzIzymT0wEmcWg6Jk9M8In5E8ynbv3r0Wj9kCW2mZVXBT/mMf+5gZD+6Z/Nf/+l/lD//wD23EzuwCXrivwP2TM2fO2KyIkT5H8OCDD1qe3LwmHje1MXD/5b/8F/nsZz9rN8xJS54YD4wF4IY2fGPwMI4YCMCMiJnTr//6r8vv/d7v2a40QHmghfHAWAFu6jNbYdMBxmPbtm3mz/0UeCF89+7dNosCGGJmdyCafUSIEOF2w5JmICh+lPoP/uAPyo/8yI+YYWApBqBgAYrY71wCKNbm5mYbofs4LOOgvMNAcbPchcEiHkbiZ37mZ+wGOQaGUf5v//Zvy6/+6q/aVlvADIOb3cyKuHHPjW5mQvDJDWvyZOYAjZ/92Z81o8YSE0tc/+yf/TNbggPMXLzBxAh4Pjn3MyzO/TIbMwb4Zwb01FNP2czGGwAA7758zNooL4AfLxvoeX9veMkIj4oAANrsSURBVCJEiBDhdsS8BiQ8IsYYoOhZq2cG4JU+4Jq4KHN2V3nFy2wCxc7sxC8TMeJGEbO0RBrCeNKda2YezBYAhuev//W/bstgLHUxW9m3b5/86Z/+qY38Gcm/+93vNhosff3Jn/yJDA8P28ie+xcAfrjP8fM///NGh+Uq6LKcxo4yjIVX5AC+vTHBGDIDAhgllq5YevqH//Af2uzrp3/6p22pCz5YNvOyIr2nwTFsIDAogLje36eLECFChNsRcwxIWKl5ZYjSRumiwD/3uc/JH//xH9s9AvxR2izZYASI8/u///u29Zcln9/4jd8wQ8JyDs968HQ76dmGy/Mlv/mbv2lpmAmw9MSsguWo//bf/pvRwMCgwHGALbMoegwZS0XMMrhJzQ10wH0MvzzEdl944OY+N7cxCCyzAbYQo9C59ktYGDZ4o1zw8/jjj5uRZGmNPEhDGTGC3BTn5jqzCi8jEDYgGN2wYSlmLMLx/TFChAgRbhuo4sqD306qxiHz8Y9/HK1m21FVMWfuvffejBqDzF133WVbcl9//fWMKljb7soWXlXGmW3btmX27t1r23NVCWdUMWfUEGR+5md+JruNdfv27RaHLbWqaDO7d+/O/N7v/V5GFXdGZwgZnTlkNmzYkLn//vvNqQGxbbu/+qu/anyBc+fOZT760Y8afzidCWV+93d/18KAGjLjgbzuu+8+45ttweT53//7f7e82DL8sY99zMrHVl+21n7kIx/JqIGwsj3xxBPGb3d3t6WHZ7b1shX5R37kR2wLrhqWjM5GjAc1alZegL/OesxfjWPm0KFD5k8ancGYvxrAbHwvdxA+jxAhQoRbFfNu49Uwe9iOpSGWqfzNYhzLP6z1MwvgpjAzEJaDGNUzQyAuN8rZvcT9AtJzY5t7BIz4Wfbh3gGzAkb6PPHOPRZmBIzyuTFPHEb9zAa438JDd9x/YdYBmIUwQ2H2AU88IMg9D+5LAGYr0IEePJEvvMIT93DgCT/4ZmYEP8w4mAWxNZiZDEtqzDIoL/zAC8t3xGEzwCOPPGJ5M9vhXg2zqPe97322VEZcbsQze2EnGTvUuEEPkCszLfhhezDxCxEtb0WIEOFWx7xPomMM2AXFDqowiI6yRbmyg4qlKfxQiCwD+d1S3B/gKXGMBOEoWpZ92DmFYucaJc5OJeKimAGKl2dAWCbiORKUOvcy2J7Lbib4Avizq4qtwij3v/k3/6b82q/9muVNfhgQeGdrMPdD8Cc9hgGevYJmGY54OAwf24S56Y7hgK5/jgNeAEYAOrymhXszyAKDwLMhGBZu8GPcKAdbi7l5jxwwNr6MyJWb/vDBbjbi+2qIDEeECBFuF8xrQABKHkVYCJKgbMM3oVF8KHdG64Sx86gYSEscjhiBMA38vAIlX5Qz1yhzjmFWuRfxH/7Df5B/+S//pSl1jMcP//APB6E5QINyeH49nz4ff2QWwjl8+7x8GLxAA8Czv2/i+fHlhj5hnr6XH36kC9Pz/p5WGOG8I0SIEOFWxYLbeL0hKHQodK/4vaLzSs+HhZW9h/fzNAqVZ1hponCZNRDPg3DvWDLi/VMoYkb3fvdVIcgjzG8Y0IEnHHHgy18X8uLLzrkvByAecoJXwsLweRf6c+39fX5hF847QoQIEW5VLGhAUGRhF/bz5/4Y9gfhc49wPO/mw2LxMAgYDR5wxHEfBqCAwwin9ecofH/u6ReL5xGO453398ew/1LoL+QiRIgQ4XbAgktYtypgmfsTvGoEhcuNc54j8WGREo4QIUKE0uO2NCBZKOue+WJGIzImESJEiFA63EIGJGsKgmPh9fLhDEhwkUW+B7ncWBNz/eVyKMZ5zi//DPi4/hqE0zt/lZgd3VmY1nzpChGOB5YSNz9OIYUwwnzkOJwPDDBcjIXjLYRi3EAt7F+c/5XnCebLN4ywLEAxefhBluN5MYnlg5TFKBZHOKaPs9TcHJdzY+d8wrmGfXP+yytbPornvjQ4DnI95/oo5af1PvPxN1+K+eIDwvh14Y568fjzUcihhAYkn+yCHdm458cXA+fTF6ZwcXxMh9yVTwWyyiZURMeHuhDZ0KkhXyJ5FyuHWrJ8DpW7EGlv6LJei1YL4STK0StTGWYyjhCbnTnzMsgE+btQ4nHUK+dh8ZBNrhuk9SzcJXP5+Nj+CjhjnYvtUdyfa9IHvAU0gY/pQnN5cua583HCZ8DFyYH0zi9cjgJohFw+gHPuYbkrd+2Qo+av3Fl+nv7o4oXDcvCxiofmwsNnc/OZe+18jM8ggvNx8sOzUBK+7D5ePgIiBfC03NHBp/exCXWpnV8udj4HFo/GaJ78uNBwHHfutu87uFu3OZoOhWULw/FSHPPzNn+aMIgHjfJsioJUIUIuJ/ebn18uxPty7q5zyIXkzkCuhoEL872mED5mLnerBTsLtxRVGpZ8IbmW2IB40r7rGz/zIMwGsXJpCzF/iEM4V2BFRJHZleOlrNxdEcPT8efED8d2IfwGMU0ZOz+QTR945TdIDXVEnY+PrJ5e9PxmKymPWJhSLsgl0Cs70rEcBS2Unaf1EkcU0vjmUabhfteEy5tI7trFowu4kpVph3VXhASRghCQtvNQV9YMnaEI4gYFZUtzeUjWDlz7nJw/ebvUQXqFlkR/ieV54swhHM/DxckhR71Y7Bysvi2ay8l4Uf7DnLhfdwSEeW58PB/ufn3YwnkvBcaaO1XkeHAgxPu5WK79at0EdQDyaShCHsReCpcuicuLNO7MkSlM78N8iIvv8vE+wPHKn56bzPUvSJxPcTkGJD8lICYDLE58qE9t/uabS5cNC44BBXcaRuDtDnNTFYIYhZT8uZNDrhTFqOXycJjbBnNwccOpHZxvLsylYcDoUysfeooPGmOh2wA3yICAoNLVaz5+wrGJ4uP6hoJojdtw+iBR1sviO5eLplea0F3z684sqZ76eD4NeeRG8LhQUy3CfNgHcVpTN0LKsR5NrVth8nnIZJwappqCAGPCZ+EalHkZDfPmAjjB6JHK9s+1oPJdBG9A7Nx+yRslbYksjf5oEheJX9d4szEC536J6+kB352dl6YgkQI+IOvP03oRZOGjGEV/DjgnH/dLeUiLv4sH37n43tQEcBFC4XoZ+IGwPwildPDpLaIrs/tVb4tMoJY2OHfpXaKcDLyvy80bvhyf4VQB9MKVMR8+TjZeAOMv5OlPfZ5OciH/oBLCnT/wcnH4CRJYie1caejRJwmiZ6PmwBWpkFQQ2cPouL4OfChx0/pH/Fw7dFTJ084sY0cR/rNH9Q/z5BzxXELCsmULItp1KE3gqzlz0JSksZBAM1kkx9VcBBR8YECXa89XHgrihS/9OUd/bdH0BFq+TXkQlhfP4KmE26CDj2dpfLQATk5Onj4iBxeNunEXzqBy6upqIdwwAxJUXdbHmA2hUBAeXJuaVTbLg4bpKROGDyUIV6R/B2646AQTL5iVGfwRWgQiWE83TMPHQyn7C3/q8zCVEdAHhBfGcYqIPIJOYjEId/m6K5cmIJPlA0Df++dOnHx8VcOHp8V14XnOsGgaPPScgycYIpt3Dvw1TYbRIvB+roxOpaQ1E8tTLQfhjn6OB/9L2cJUHI2APnGyeYRjuaOnCfw5/j6MI2X19cHB0weFbSYM0mP4SETerlT4O058KyGOheh/lvfsrzqLljN+dqmOuEZPPeAhHG7tSJ2PA/D3aT38uR+CcO3jeAd9OwnAJciG2xXxtBTKiPcLx7Nz/Qm3a5feyQTn+67nPfzrzhyfnq43rE6y0NS8A8I+DrD0gZCC4CB+jg/kVOgXjse5gQvloiKoj3B4lob+mF+QyId7ev7oz4E/FsYFnHvZZOMFleL1UDgdDPh5gOeBA/zlZGvR7IJrT58nzfA2pz8M2sLh+EOHE08b8Jg4YeRq4cG5a/euTSyEG7aEhbvcPyx9g4P2nASlLNfibd6wXprq64SvaoxPzsi1nj5JzqY0ZUYqVArtbS3mKrXUiURKrvT0yvh0XKURk0wqIe1N9UpjneWCwrja1y89QyMSK6+Q8nRK6qqrZV33WqmvrTZurg2OSP/gkIkmk6ZBZTS8S1qaGo3LiZmEXL7aK9PBU/AVmVnpaG2WtWvcO7amlYfLPddkaoavHSqV2VlpVh66lUasTPPUovUMjEiP8hGLVWoeKamJVciGdWuloa5GlWaZDI6MKw/DkkilVAblWvmzmn6N8UAlksfFi5clpQUiPiO35oZ62bKuy3iMa61f6+uT4bEx1U8xmVV5NTfUyfo1HVJTXWWKGR54V1iZ8gTKtRybNq6XxvpaazQTEzNyVcuRVBlQE7GKMulsV1m3NGs5NI/krFy6fFXLmZCyCuUwlZQ25W/Tel4DI1pHmkffgAyOjqoM1XipcaypqpT167qlVnmg4fZpPQwMDEtaw9PpWa1DkQ1aF8gLjM1ofV65qnkllYcyy7ejrVnWdPD6/4wkZtPKY69MTPGWgArJzCakrbHeZGltSHG5b1B6BwalMhYzHqr0SF001Wk5tcIHR8elb2DI3gqAJCo02dquNSZP2td0PCnnL15SOagUlCbxWhobZKOWE8RTaZX1oMlatE1Rn01aj+u0PdTUuDbVo2XsVx5iFa4uKMfG9d3SqHVCuYYnpk3W1CftjvA1Ws6O9jY7n1ZhXrx8RabicUlrfaaVRqvysAUeNDyVLpNr/UMyODysPMJDWhq1Pa9b22EPpJqstV33KQ+mIFXW2jusLpqbGozHaW00Fy5d0fKkrF1XartvbW7Sdt1hS10z2uZ6rvXK2OS0ZFRIKa2TNg2nvmgb5HFVy0m7rtJ2XaZ50K7Xa100qqyTmsnw+JT0apug/9JGqO/urg5t100UQ6YSSS1njySS2u61HGn6TnOjlqPT5KDVLZev9cvQiLYpKkrzoF13d3VKdZV7s0WP6pD+oWGlT3hKKvWwXvt/Q12d8Tg6Pim9vQPWt2ACc0F76mhVHVKekXhCZX31mkyoDoGHWdUhndrm163vMjlplibHvqEhrW7Xf+utXXdJQw39V+WgPAwPj2p8Vfg2k5+1+m5rdDpkUmlTn4mUxuaZMI3T0dJi5UAutPfLKuvxKdUhZdS36rHGOtmwVvu3tiGMS8+1ARlQOZRre3DtNqPtvstkTf8dHp0IZK15qC6tVnl1Kf1mdIimT2ibOn9R25TKvFxppk1XNqiu7NbUGq7t+rL2rZGpKZMTsmyorZX1ykN9tZZb4+Bor5RpPsx9j0ZJ4Fg4rw14/6E3pbxSGyAGJJ2Uxvc1SLMaENTB6NikvLLvDVPOtA8a7t137ZI2rXxr5Op/8M0jphzLK2skMTkud2xdnzUgs9qxTp67IPvfOq5KrFq13IysaW2VJu2MGBC4wDjsO3g4aCwpqdKKee7pJ6RVBQ/GtBO8sv8NGdVOj1KS2Rm5T3noUoUBj9PayQ8fOaYNeUivymRWr7dvWS9tKIOaCsvj3MWr8srrB6ROK3s2FZeW+hppanhSG7n72FSvdsTX3zgkY5pHhTawmDaJZ5981Hgg/ZQ2wFf2HVCFoopVG3lSW/WuLRtlqzcg2jiOnTonx0+fkcqqGonHZ2Tbxm5p0c5WrcqbOGcvXJY3Dh22TkATqFBZf0QVQosaEDra4NCY8viGTMQTphirKytk7927pUXjVKms49rwDh5G1sNSUVkl8ekp2bNrmylvFAON9vTZi3L4+IlATik1MHX26v36GtfZL13p0fo+op0OxZxUWYu85+knVaE4AzKhA4ZXD7wp4xOT1tFoxPfduUs6tcPHqG/l4a3jp7Qz9up4oVJSMxOyc1O3dHW2q6F0byg4c+Gi1uebUl+nNLWTNKpSf9czT5oBoV/0aWd/9Y3D9twQg4XKWLk89dgj2iYCHtQ4vbLvoEzyCh7taCjO3du2mKEEs7MZlfM5lbfKWvNMJeNqqNul/tEHpVbzQhQXVCnu1/qsjFUpC3Gp0h7/wfc9Z0YKWQ+rInhN63M6rp1dG3aV9vC9d+1Ug+2+fzOjdfDG4TelVwcV5dW19lqdnZs3yEat75jGR2mdOn9ZDmnbr2SAoDyu62hRA/WItXPa8nl4OHjIlGKG1+Rozu971zMqa/f+tXE1DPStUT1WqAzU1Gl97lBZt9kbEWZo10dPmnIt0/45NTkhu7dv0fBOqVS5UM4zamhf3X9QB2V1OnBKSlNtlTwXyFptnA6KRrXvHFLlPK39Na1KrUxl/bA9o8UAEFnv0/4/OqY8aJ5JzXPXzq06gFPFqvRRakdPn5ejJ06qbJHljGzWeqirf1C6gm8FndeB1f7Dx7SuKGdcaipF3tfwnPJQZ3IaGhnTNnVQ+9aUDeDKVLk/dN89OjBpsX6Abjlw+KgaZB1kajkT05OyZ/d2WasGBB5m1cjTrt9464hUUN/Kw7r2VjPEGBDiXFEdcuito2akMlrOTDoh73/uWTUCwSB0ckpe1frGGMfU+FAf9+zeKd1qKAlH1keOn5TzV/rUflRLYmpcdm/plrVaF9X0JcWZsxfk4NETUlVTp30tLQ2VGWl69ikzIIABxcvaf9FHZar3arT/Pvn4I2aQ0VNT0wltcwdlWHko1/6bnJmSu7dvzhqQpMr62MkzckrlWaF5plMz0q39in5RX+1kvRTMeRtvKeAtGQq7ThX52s4OY7ars0026giHkRyFtmmUdvI1OhLu1k7arQJlhIRSY5TLZImbsq06IyD9Wo23fu0aG8kxqiKjWVW2KOp1OvJZq3G6VfF3KQ1GMPDBCLNGW11nZ6tV2DqNs26tNtKgYty9gbSNxuGhS+N0d+kMRXkgD5t0Kx/NLY1Kv83KQMNAGcR0RGZ5aINBuTBC7OrQfOCFUZR2fsagjCCrtMIZbXeTfk2blqNTlaA2FpOUzjyURjtplYcObcAb1qxRubi3+aKU6BgNagwoJ/7rlT5HXp9CHoyE67SDd1EG5Q1eN+mIlBkKywWUEwPdruUkD8IpL0ZMvRVudNWq5exW+VEOjMeaNuVBCdi4RBV+LaPxLpUzstD03Tq6r6bTWF3NSrUqAmTUpfJG1ht0dtBQ6zqiW8DQ0Vkga/jv7uw0udAebBlJeWjWRk1drlUeGPkj63JlkjwYgdUpvfWaLzx2qfFhhuGVO+0F49jRrjMbaFh9r7GZGLKeRVqaR5vmjWGC1w0azqzX2NM6pxx1Vk7arfKoPHRoPrQp8qBN1alc12la2hSy2MBMTHkAdPBKHSF2kofWtcWhXfOdG8QYtOt2HSjR3mlz8EC9ubrwfUfzUB4o5zqrM0bmKBwth/JYoyPHTnigjBrO7KCOL2RqOWhTjJStvo2G46FN+xKjectG46Aowzys0aNf9kkpD/W0a9qz+hOPUbW9wJTUWo6YGqculTXtCbde+05Dbb2Nigln4IhsCeukHEqrU6+pbw0yWTc0BP034LFD21yNKkEGkSnrv7Qp6oq66FA+12ZlTRmYvVjfCsq5TtsDgxbbVKAGAnm3tjZpWm1zSoNRtzMwKif6uLZr6nuttmvaHGVApn4WRN+hjXeqEafvMMPZsG6dyqYGAta/KAzGmZULp4fWmKwJNzloFAa2lGOttot1Kkfix9Qw0rdSOnuhb7kytLg61/pg4ERaBstVqm/QU/BAWdCFjToYt8rQH2RJ36JfUo5NOiBpp/8qoKExVIfUOf2k9UHfor6rtGzEIA7wx2Io+RKWI15mI6CRkRF7iy8d3oSsnBUy57nhYEpEHfVOPPy4DohaowRZGupPOFNA6Fg4J3p0atnFIVzbkU0NoZ0HjR9e37fKtmunNKGBMz4UAVWL6684d2vTlAE/d4Mqy4PCp4K+GU92U2X0zBEy/gB56yDY4pgy0fgsCUHA07I08OkTK2x6zUkQN5cePwJcHowcnZdr1DjicubX1z2g6RbE9NyCUMAuhouVo+Hlw3Tbyq0J6BrUicUlbz1Y/npubHJUZ3HUEU6eZvDwIz30LKKG65Ec9cpo4oCdQ0BhctRTkkDI8cLSpUvn15zJy9EOyk8a/C0PH+6Wn6gPlhVRrORCOD++PWL0rC6CPBygE9SJhpVrgSy6/hDHFcm3FEvqZK204Nr4dEEGeMQ5qvnlIJ2VJXCBuFy716OjiAc825m7VhA3mw/hHPXaaCMLPQ+VOkjnfi2OOtIQF9oWogFkQzj0DXpNXMLh3NKYc7SA5a1h1An1SQjJWZoE0PTl9PBt2scF5Zbe0/P15/wMQbhLoxeEW1jQ3nDKuBkX4uiPtXtLo3UWhCEX4tPWiUc4kja6miE3p42Gy8J44Ih5ho7lE4QDC7c8IKT9hwgW06VzdFy6rBwsU5e/o+oCfJwsgrSzLrrlS7vBjzSujgOaC6DkBsQ1pAo5qlOyfa/vlyd0Srtjs3tv1UqRY9idIWDv5wtsDcSdGgrDueZ8MQEVQzZ/J/k8mv7ozoNfbT1sAMjPK8yzOyM8lw66QQofERT1cpXu0jiE6QDvH4bVfDbANUSHcOz8nDzCvsVjOH+fhT/6RuzDCmHpNYB+QB0C65RB7DyZ6CllCKoh60dHtbJxaQFhEKZlDfwptc8Hn3AnQ9HmDLnrVMSZ1fQoGH8NXB366yBRNhTgFx5W5McE+MxJaQXRK/3nLBzu8/T++WHOFSIXLxw7Pz4h86V18DF8m3G/PjxM2dPJpXWA67l9NEwtPyyMMK3COITNzWsuiOP9C+ODcDjgfP74tE5Xo+E0DoWUcsi2u1B7dMjlUCiTMMJ8uEFV8XzmhSbJDirgAWf3Ft1gbynIM0qrD5hwjLDeffFKj81EQLjwy4FP5465bphfXHcdzsNzUujmA2ktvT8JEcumNf9cgPN3eXvapjKsYnO+PiznmztzwMefK7KnISYCuCAXP5RCz71MjEk7KzgYiONc7szDxcv5e0rOP3c2N6WDv6Z70dC4DtNwqeem9/0gzy/4c9CUoTj8GD27cAYiRz0M5+/o+zjw5hze4VRcExd17/jPpXcdx8emhGFYSndagPlDHLW54bkrH+Z8HC847wdPXs4OuTg552nkJJqL71B47eHjLpQON5cPzuHTO+fj43vn6iF3PR/CaQqBn8+/GB/Ax/E0vAsjfJ0vvbnpKAn0iiNMKQdoZfnzDT4LRxVJ+Twc8jnxYRaepZELXxSahJjw0D84IifOnrP7ry7XpWH+cl83fNEcM246q386El8NFCtizs+d+WuO3nmEzwthU1Dvwn8hYwEczUJKeq3xfPVbuCYjvQvNj48vzvv6NPk5KQqy4bLAqwAu1Hfa4CI4BLwsQMDKyn+ozD46R8+nOy/ugDv3V/kojOfhcyyeaiGQMsfvUlBE0iGfoIzKiC8DYZwFIaFz518MJkqT49xYC6UzFESYL66PFnYLYbnxi2MlKXPxc1IL05hbH6uBYjl5eL/i4aH+swiK0Z4Py4lbasDL2UtX5cVX9svIxIQZhWyJQ/2/GEpoQBy8oHgmIFbBOrzzWaoATYmHHAUirXfhszDy4ywfxdNiBhCo48MddQKYd57WqSDONTwEbAqGKC6WonjXKURANYeFNH5RzJfLwnScsrMz95u9XixlPsK5L+ZA4TUIn+eQ84Uz5OwcKJ7Cg/i50rircHpbb6e81J+68uDo6jicl6tbD1ej88Glda+Z8S4fxX0Xwvy0cigMc9cLpSgdlsLrYnFKh/lzdiE3g7O5+XkuFuJksfC5oHWOTyWkf2hM4km3zJp1i+ickhsQlB6MsJvn7rt22x77HAjJIayobiaYUnpnUL7gzW7Q4bSCWDc04ZojkpYzOOdoztLS+IigaTQxdAoVsiUvAH7E8u5GoJC31cBC5Svmv3wU4zdH3ZcpWzb+1dkNYa0bZwpAcLSk+uNJBM7Vp7uwdDpI8LLi153NA9Jb2kXiLREBS9nfheFjLz1FhHceysr5Yqq7N5drLYu3lxsyA6HTsJ3usYcesK17YfhOeKsibEy8w3gk9DieKpPh6TIZmiyTwQmRgYkyc8PT5TI2UyZTyTK3C0mF4ByV42gsBqSyeKwIhqW0IYSJ/L2j6euRwUBCz6fSZTIyIzI85dxgUJfU7fAUdSoymdR6ZxaRTR+QDRyAk0JHbE2iJ84n9xfhVkO4Lt8J8OWtqRCprSqXGFvWvP8SGqjOzkuvwX0GvmK45txn7RUq14XKtRh7S1HAqwk4mJpJyujYlAyNTsrY1IyMJ5IyNp6UmRm+e55R56Z+qCSe8aiuLLcKaWmssieXa2sqdRZWLzzYxXMJCwE6jpaDyUWPKyu3l9/iaedrCjda3stGHt/Ka8BusZJj/Ke1zsbGJmV0ckrGprUuZxIyoVP4qclZe8AqrZFSOpVnlsKDhzxXwPMN1GdDfaU011ZLTXW5NDXUSovOrHnDANt7PcgD+NGZyTUwHg4+BNMS4VaErymOvo7ejnVFW6Vcpy9elsuXL8p9d98tbTyfBMKFnwc3xIAAnqqemJiQhoZ6e+iqGExR3ggDoiT9+M8oQc/8vIeONFWywzrs7OM1FYO8wmFQrg2Mq5u09cKZZEpmErMyi/GYFZmdVQOidHgQsrK8TCorcBmprqpQ46FGpKFK1nbw2gYelmuXdh5sa29Vf54UV2jmbhFFrxw7+mOe+s+SyUqNiFFSLJ6uUNa3vOEIIxCdnVo5VGZ6zZnafq3DCRkaHpVBdX39uBEZHJ+UoYlpmdZ65BUXSepT6zKdLpc09ZlJ2wOLvBanwo5lOjhQQ1Id0zotk7aWOunq5GHQFmlvbrSHsHhQr76uwkyEPX8AP8aFEtYLt1/HG5AItzKotTBuo96wJPjy0T5580QiEZfa2lqpqggPcBcudckNiCk+VUTnr/bJm0eOyj337JEtazuN+ULWfNxSg7ytU+u/f5DKg2WMy1cH5EJPv5y/OCQXrgxKb/+wvXYkniqXZEaNH+9l0nTsmUYhoNqRYqasXOmhODJ2VC0ks5mUPakcq0hLZVlKR7EZVTw83d0km9e3y/bNa2TT+k41Lk1SrWk8O4wMfNUUPuy1PDgaK019O4IS86BXT/+EXL42JJd7x+XcxQHpHRyz121MjGtd6gxjtiym9anKvLxS3Lu11AX3RWiHdp9Da8I/MGgP9WUwMkmtExa/ZnWwkJKm2gppbeY9QjyR3ClbNnbIpu41sqa1Qer9A9KuRvWPfObWxTundm4/vN17EGrG6x0rK5uAKK33XAAlNyDuQcIyOXjinHztm9+W97/3PbJ312Zj9GZViJ99wIHnYWSad1hdkzdPX5Njpy6r4RiQyemMzKQqJVNepcaiUvWLGo+KGmc4ggVCp2h8I3OKh107ji45cfNdf9WYyGxcbcqMvRSwomxGaiqS0qWGY6sqnHvv3Ci7NnapEmqTOs0KeigwKtH9rRS5sr6d4JutlSr3I1M627jWNyRnL/XI4eM9curioAzoqGA6XibJNG+IwljEzGjw4jpcGgMBOZO1mx3oqYJlLNeZuMSPOnEv0GPWOWsv9CxLT6qb0RnnrFTHMtLe0iA7Nq+V7etb5I4tHbJlU7c0UqlWFxgod3Rw5fDwvsCHOL9wSIQIq4vhkXEZnxi31/3wuqOltrcbZkAOHD8nX/7qN+RDH3ifPLh7S14XutGwIpuyEJmIixqLIdl35KIceOucXOwZlklVNjq2lFhlrRqMOolV8T4hXmrHa0VQACQPrDT0sj8K83IGxIU6hYQfg1zeYZVOpySdmpbZxKSGpqRsdko6W6pkx6Z2uV8NyV51G7rb1cioqgnk56ktX255jL1N4ORi1WhTvTJbprpwqV8On7wkJ85elTMXeqV/NClTs9Uap04qeQFgWbWUx3QwoAaD2SJtk3ZgEgrocQ09p+YxFMw6XLz82arG4e3L6pVR4yFpBgcJGxzwAr6qCp2ZVM7I5q5GuW/PVtmzc71s3bxOWhrclIS5DYCiZWtXuSNwMfCbL8atA8/rQrgZnC/G160pzRuBXOsCB986KSdOHJdnn37C3nG2VNwwA7L/2Gn52te/JR96//tk7+6tQeiNB9twWRtniePKtWl55Y1z8sbxq3Li3FUZm5yViuoGqaislwpVNKp51GAw2+AliWVWFswGcDMQzr0DKB1b0DI9ZAaG/IIwZ3B8GMpJuVCXSkypMRmXCjUkHY1lKp/18tiDO+WeOzZJc2NV8E4kpWIKDOeul77c53m9XeEk6MqAondbqin/TLpMLl0ZkbdOXZP9h8/K8TNXZXyGN1VVa102iVTVq+2PqTHmJZPBkiNGQdO6unJ03NIVYnV5uVDglp6c7HNwKVmyJB6tAh9ycC/CZIAgyTHJJMakviotWze0yL06cHrw3h2yXWcnNdWOG5qRI+3zDeeDn/MHAbfu4hZDjsv5cTM4X4wvzxNH4t6a0i0FvGRcib/9ykHZ9/pr8unv/6i21e6C0PlR+rfxau+AicnpaZmanNKp/SZpbQ4/C3JjYHpBGeEdRuMpkUMn++Xz33xLvvbCCTnbMy3xtI5S69p1pNokZRXVqk8qTC3w4kKSmkC1t9PZbZnKdf/gzwkaB/Bx6iQMHwotp7pQIbxKvSKmyk4VXbq8XiZU71zqGZILl3vtuwJ19Y3S1uxeTR6mETYeubP5sHiMWwpBXeUaufdwcqXozAZHZ8rk5UPntR4Py3dePy+nr0zJ9Gy9Go1WqahtlfLqRpVplTo3AICKuQJxuLDA0yqYo3dc+/sWzvn40GEmwbkzIcxq1NxrngxAYhivWINMpiqlf3hGTp3vk0u9YzpbStvbY5sbtd4hqbD8g0aaq9rsSYAQn/Ng4dB8eOmuBhajBV9L5e1G8lUMy5Hh7QtfSnc8ffGqXL56VfbsudO+ReNaom9t80uk5DMQQAZ8C4BdMO0tLdKQu7N4QwEfPaMZeeHQGfnOy8fl5LkBSWbUcNS0qtGo1NGkdn6NhHK2caWNLl26nLg58w6EhetjL4S5ccgNrWHvw5xN6WxkTNLxQWmsSsh9d22WD7/7XrlrW7eovpkXYS7ePnByykoLja3/CfU4e2lMXjxwRr732gm51K8zuIpmU9ixyhqN6BQ+6ezNxQH82VxZ4RP2JWU21znwoRmmD9l4jkaZ8ujObPiBj8bQGVFqRpLT41q/U9LZVCb37uyQDzx7r+zZvkHqgnqlK7rBST43Pg+XW35IIRYOzYfn/EZhqbzdaL7CmCv7dwa+/uI+2b9/v/zgpz9h3x0Kt+qFcEMMCNzYaC2tXVuPoT5dMoQLRXZcX+mblC9+74R8/ZVjMjSe1IFioxoPvslQY9twyzIsSTjFY7METehMiMPcrl14Hc51PjjqHpy5HPl1+VdISjKpSUlMDUvF7KTs2tom73titzz78C5pbXBfCyOl4+ftDS8p3oCLcuWe1etvnpVvPX9MDp+8KpPJaqmsbxXRkT73NZCjyUUTktaWqhCTXnhpzZUaPmFfS+lOi8CHWNswI8KFo+HrxBsQT9vaPDu4EpOSnBqSqvSw3LGlXd712J3yxIM7pavdfYwImvmUPFzI/FyVBvk8XD9Wi//V5iuMUtK+FUGdHDl1US5cOC+PPHy/dDQ3mv9S5HBjDIiC13jwERS2S/Ip0XC24eWY1YKnDmXOz10dk89/Y798+5VTMpKolZpGnXXEamwHjmQqJJOmk7MbJ+ikNvtwf3aZFWeY10K/XJnmR34cf5Wj6tbV7eZ6JiXJmTGZnR6S9a0Z+fh775f3PnWPtDRU2Y14vj6Xz8/bDbl7TqjioYm0vPjGOfnCV1+VCz2jWn/Najza9cgnVV08U7wqVNoXsnX3Ohy8pIpLDF+cj+2PxZELnUvdncF5OJZxpn+zIqlpKUuOSmqqX9Y0Z+TpR3bKh979iGxe22YprNR6wicAgsRG3oUtDs/JQlgOnaXQWwxLyQ/caL4iuL7Fp6vj8bjU19dLdYzl+aWh5AYE8hgI21p57rxs377FXmtC9/ZdbbVhyiNQHORw+tKYfO5r++R7r5+UmdlaqW7g28PVklFjxsjWljxMCsR2o1jnETYgud98FPNbCI6eR/jK52GcmxFBieioNT4l8bHLsr5lVj76ngfk/U/fI61NNSpXjReMfN0Q9/aHay+5cww8MrrSPyVfe+GIfPOV03J5YErq1HBw3yhTxvfXufeQa00cvVzD8vWYX1I+pFiqhRFO4TjBhzY+F5SoknpNjOkss0dqy0fViNwlH333o7J9yxqJUa+kpUyBMDx9C7E2S5WXqgflsNr0fTmuF6Uu92Lweu12B/WRmye7c9rnUltWyW+iwyCCPnOpR7730ivS3d1tT2CXrOnTuTQ/8uU9VOeuTMoffmmffOvV05KoaJHqujZ7liNjX/9jR07O0Phfd8Q5BZAftrrw9MPU4cd84I+topXVEotVy+jYuFy8dMnearxp41qpqYop/1rlKJK3QWN2Jadjqtm2nVJqGFQOl/ri8udf3S9f+tZB6Z+ISZUOANhhlS7juQ6dPVKXXoJB/XtwVuhKgeL0cz5hfz7Xg9Er1xlweVWtjv5mtV57ZWh0StraWqSzrcGWMj3cabidumOxOjf/JbrFsJQ4y0UhD8XcYlhKnOUjLF0H1w8dCPGGG4SN+KpjLislhc1A4imZnpmRypj7/n1+seZnhp5XUvisk7NpmyYl2X85D8IVtGIEGXLoHRH54rePy3fUeMTLW6WqvkMysVpTygzc7YGwIG6+kODD84J/OKz08LkhDwxcmnszVY1S3bReeieq5c+/eUBe2H/CdiLldgjdfihW2zRcagXjwSDjylBaPv/to/L1F0/JeLxBahrXSkxlkcnwLXB1SoTS41z7uRVlgfJ3BsA5Fqm0T2i9ZioatF43SjK2Vl470id/8uXX5MjZAYtnykn//TzYSqZl5DifWw6KpQ+7m4VivIRdabAwZeTvsSp6aj6UkPRcuMzQIBcuX5OX9h+S4fFJa3euxVlPJMq8KLkByWZPw9eRpetGHvnMrYY1z6TdqvnotMjXv3tUvvvKMUmVNUlDY6f6VpoyRkt5A+IE5eHzxy+ft5sB48KMCPePVJ1WqgJtXidXVal+4euvypsnLgXPqVy/3G4WwlJ2UqeFYDzK5epAUv7sKwfka88fkcl0vdS1duuoXQcAVB7xQh2ZcwzOrS0KyhZ2YvUqZbVSo7OqTGW7vH74svzx51+S42d7LZwyEddJ5taFq7v53c1CMV7CbiG4VhZy2rgKncditG5VUAKMQE9vn7z51jEZn5g2P7qWa3G5MhZDyQ2Iz766OiatzTqKDr2JNtT/rxuuwOq0UhN6fPngJfni11+TMTUkDc0d7vUVyo0TjlPK4QYQpJ7H3RyEeYULnjEoizVIbdM6OXN5XP7sL1+V0xeHLK7DzeN1ufCcuhrwZtxvfHWvx//yt9+Ur3xrv4wnYlLd2K6jde53aEyWuCxFrrxUZV513kawWabOpmI1zVJWhRG5IJ/70sty/sqgldBJxBUuv83eGsjVwvxYSpzVgWsXvoV40IdY/AiPqTmP68VUSnR2yyv8Ra6NzOoALSmXBuLO9c+Yu6znVwcT0juSlOFJCT7XwCySZ5KooxyyfTbot+Y3x4X/QoDQDatiN4gBDLzTyVQ265zxWJiZG/YcyMDIuD2osnH9Ontz6arKSDOwQgRET12bkF//nW/Ja2/1SkvnJimvrDPFZK+uyIkse+Y7Z3H4sFXleEWAA1xMTWRyulfKZ/rlY+95QH7sU09KQzXlSwdr5zef16UA+cNprkZcp57Rn69+94z84We/LdcmYlLXsVHKyqskpf582ZImu3Cd3boItzlaYLa2NICbl+VlSYmP90l16pp8+Jnd8oMff1Y6W2pdhKDMvsveisbk5gPZeMk6OQNExsRVdb4k9GdmOiET6noGxmRiktf5p2RobEbGp2YkqYo0kUjYu854KzNtrqK8XKpjMamqikljfZ3U1cSkpbnGucYaaW+qk8baShsgu2pxPPgacjXmjiG1HRyJ52PeWDh+RL7xwj7Zt2+ffObT3y/bNnRZP3QcLdzXbogBgZlZzYUXCrKNFwEz9VktoVkRlCjUhiaS8odf3ief++ohma3qlpqGFg2na1pMdeE8uXYh+f5heP/V4fV6QSndreUZmRy8LGsb4/LzP/Z+efqhbWYgbWPvbaZYfK1wnNbG8tqRq/IH/+/bcvbylFQ1r9fpa6OWDcPhypZTD28/aIfUOlTlNX5JGjJ98pmPPSUff/9jUltNj/GSijA/tAGpDFmJoKcABh6T00kZGpmQnuExHcgOSc+1ARlTw9E3NCXTMxnRYJnktf46neB5NWjMpmZlVnUWxoPn17i9zHdh+FRDrDwtNTpoa2zAoFRKV2udbOlqsXfYdXS0SktToz0wrdENTsuEf4E7c5prtbTh8uBb1GsHj8nx48flPe9+VtatcdvJvaFbiLMbakD4VjijAEbJfqfxagjNF4Cp5Pf2X5Df+IOvS99EtdSo8smUuaWrHPw5R2spgSvGSTjurQDHJ0qG14lnEuMy3n9Snnlws/z//trHpLu1Uo20KiBa+20EagGOKd3Ry5Pyv/7ft+Tg0ctS3dAtakG0XnN1OF9N3c6gTA7OMPLilarMhNbtCdnYXi5/80c/LE88sFPD3o6lXx7mU1deKja40AuGWDrBUKMxaa8GOnm2R05f6JXeoWmdaajRmIoHW8SrNW5M9USlpMvVRNjLNlU/qdEwQ0RfY9aLVdG+Ze8+411n6aQ6zSCT1JySUl2ekpa6cmnV2cgaNSDruztl17b1sq6r1b4Zw9sGsCV239XuBcOx49rzfjNMiJfm4Mi4TIyPy5o1HcHbeIFrjzfVgBh1zX90fEqu9fZKZ2e7tDXzxSsvxOsD5HFUzrXxtPzm//6m/OWLp6WhY4stXbnvV2tOtvRBfr64/ty7+Xi5fh5XC37kre3PyltRPitTw1dV2QzKz/74h+UjT293MxDi0YtuEzC4wOYNxUX+7xfekD/9yj4pU8NRXd8mqQxP3lfcQrWw+qD1ebj6zejINakDhEGdZZ6Tp+/fID+vRmTdmhYX6R2MfHXl+q39MuPQE+6RTSTL5Fr/uLzFm5lPX5ULOuPo08Y1yhcnpcbeyFxVWS1lFTqMVaNhOsL6C9duaEtfM8LAPNwwx/qWObMn6q3GJJPSE26ITKtnQio0bm1VmXS21Em3vY15s72NeW17kzTWZTkOqDh6jjbXNwe+qHlFNt4cZ/Oh9C9TVFA3vBzwldf2SXu7TvFam53/AowtB14BvfbmVfnC116ReFmL1PB6C20Qrr3piMK2u3LhROQF5bhwYirubg1Yg1YYR3QWztSrqrpaxseHZTY5Kbu2r5W2RrYpZ2Mabp1SzAXl8g99vsw21s+/KJOJGqlpaFPGMR506Fu5BKsLK6v+8xxMBV+GU9kM9vVIY02Z3LF9s30ZESVq+u4dJJd8+L6ALPREOz+9e1wnBMfPD8vzB87J1773pry077ScuDgi/aMiqbJ6qaxtlVh1o7oGHVzW2n21tG3p19TmaIdQcjk41e42duDvrgnnXNOxMce+K1Ml5XwnSGmWx+pVq9ZJKl0lQ+NxudI3Iucu9sj5y/0yMDRsn0eus6e9w4Mi18pvZn2mZmclnuTtFu51Sk7CjqOF+p+TVgnhFd/kTFyuXuuX6Ti3sRZmanG46sXZYyVKanBK5JV9x3WkMS31ja3B6IAfDUYgtDTiWioPJx7nbl3k+M2do3T5NolUVKuybZcjOto68OaZYEcIDcBL/taF49HJXgeM8s3vHpGevkmpVeNP57aZo9OU7wiES2r1q92zsq5NpmZr5dsvHZQTZ6+4sOwo/Fav4dIBWZliVzlNa6M/e3VSvvL8cfmdz70kf/TFA/Ly4avSN1kls5XtUtmwVmI1rfbgZpm9mVnTptPuvqxR8gZEDYNe2mwk5Gx2EziueUGne0u3Ny4cy9WvUmbLqyVTWSfltc0Sq+8Uqe6QgcmYvH6kR/70a/vldz/7Hfnit9+Qk5dGZFonLtZXmQHp8cYj134u9fTJG4ePyPjElHGyVG5KbkA8uMGLlfMP760cFNo5/tyrSEROXpmWg8e1g1W12GggnaZSqW+qSGHRvGi8eHICvD0Q4ldPeXcXSqaqrkXGEjE5dPyiDI7Fg9L5Mt7KcDyy62r/sT45cPSiVNW3SUUVbwqgY2kgPfptDkqYK6WrY8rOU/bp8lqVSZcqyAn5ng6QTOmgvLJG5J0FaxK0Cfq1HoZ04Pjy4Svyv7/wmvzxXx6Qg6eGZHhGDUVdl1Tw4HBVow6yak25pzJu+4nNV7TvmEFA8v5oYf4c1biQI074FyOAAaLONC+eOStXPqqadBDQJbGG9TKZbpPDZyZsg8/v/elL8p3XT0vfmOpEeDE6Nx6+FV3q7Zf9h96SsYnJwAe4ci0EJFFS+OwrdepWX1cjlcG2hOtr/qS2JwJsJDClCujwictyVVsTo3EernMNTCtVGaCv5TcMQGrv5kc4VtgVQ7F4y3XzQ0NZ5A3Hpmz6k1GDGatr1xFqr5w9f5XIVtJbew6SG3NdG0rKN184KOMzovUXzB4JoP6WWAZi3cqlXS7ciz1Zn6+0B0h5Dc+rh8/L8XP91q5t5p2V4DsF2hp0AEr5eQDzQs+0/MXXD8offO5l+d6Bi9I7XikVqqyrGzqkXGXG5guWmhhkMjO3V/szy/ByUxnSpVbNKUkc+gYjZwMADIndd2mSKmZCDRtkJN4or73ZI//3z1+Uz351n9bpgCSDcfWNGhiQS9hNJdIyOjmTfVOI+wW5s2IovQGh0hRdHe3yyIN7paONexPXA1dk+9NK4t5H32hGjp48JykdZcSq67XCMCA0lKCx6D8Vwx9wHDk6OQcIcaEe3qfQeeQo5EzUws7/FQubD56/XG44ymQzO71kFtI7MC4nT503P6MVKvOtChY0j5y8JoePnpXqOp32V+rsUbl3JZhfIoUIx/YSup3BKNm+D6MFYfRc19wt56+MyUuvH5PJGZ13Bv3qnQRtzlZuPl+879Al+X9/8Zr8+VfekNOXp+wp/ur6dts4U64zAL7tU24ydCoO/Uy7yraSEjQQXyO0Xp8VOghDwnIzu70YDFTVd6qhWyuXBzLypW8dlt//7Lfl5X1HJJ5IMGayfl0SBufAODVWZ9VwpNQx+Pa5Gx+LsFFyA+LR0dYke++5S9pa/A30lSJbM3pwVK70TsvlqwP2KVo19eYXzsGEESTzEgkr8kIpeWPDn1Nl6hAmr0kJhGqHbDJPyf8GTiOYs/Rca3g2DQiHBV5Z4OGc41FhhQhgpy6cv4qKKkmkyu2G3eiEzusN0J5D+JaAZ4sbn/sOn5PJeIVU1TSqsmRLZWD4c5W2BCBbF9//3c7wte9KUiGVNS1qbOvlzePn5eK1YRuYOUXzNoUJIFc+O9MyT2gbf/7AefmDP3tBXnjjvEynG6W2qds+RW03tTUOaoFb1OW85icgkW1JRURGs1kVF9ADXn+wZdec/akKyWBM1MBVKd/N62WmrE32HemRP/nCC/Lia0dkZDJldQu3xM93/K4OXA6BTBQNNZXS1twolZXuHhHIcTA/bogBoR3EKsqkob5WKmLK4HU3fBqJUxFMTS+p8RgcnpJKnX34jwrNgXmFBVIkjoJQHh6KJ2Zs77frwMRV6zybkqSOEuDfKlkbRirJtY5vNGHWCFg2xAmUv/efA4uocZxbCI6HAmcNTdNZXuX2evOLVwelt39E/QlSvoiyCO2bAW5UMio8d2VKDh+7KBW1LZJWI8hILcP3WaxpzlOXc6DSoQf7o50D53d7A/4xqJVS09gm53sG5fDJszZze9sbkQL0jczKV184IX/0l6/K4fPDkqhssVfc8LZqm11YVeeUtTn140iQBXNd4EoB36ddv1Z+NB94pM3jyzv5WHpmk0RV0zo515eQP/rSi/Klb74qPQMTRiO/ZrMlsqvVgi/+jg3d8uxjD0l7sw7CFdmBr13Nj5IbEIqLnhufmlbldk2mZ3TIaYrveqDplTDM8z6ai5f7lO6s1NRQ+JwFXTocPzQ7Jpyd7Y2yfXOX1FTRQdPWSTOZWWlpqpXNGzultkYrP52QxrqYrFvTbNYbZW19Odsic03I0VeHhTGj4nz9Wa4RhzkPpQucW9ZwStWyChzyhPOa2kbpGxiTq32D+AYI07x1QIlmlLWDRy5I3/CkxGoabI06tzPGlXHpILZz9p2UOfByvI2QZVdbpRpVlinH42XyxpunZWDEzTKvuyvdqtByuX7n6rJ/JCNf+OZh+aPPvyJnrk5LdcsGKdcZa8p6rEZnLTtUx944FLaEYi2jtHBtMg/GG8aE9l6hs6cWkdq1cr4/I3/6l6/Jn33tdekZTrqU+uNK5bTFasOkpWTXdrTKnl3bVJdV6bVy5vvQIg2s9AYkaACX+wbkOy+9Ir0Dg47p6wI14M4mZ0Su9Y3opVZEZZV5u4YTRFgQcOKdQo1EhY7t7r1jg3z0fTtkbXudpHXWkdYZCQ8Mbd/cKR989zbpaq+V2cS47NjYLh9+9w7ZsLZdZlNxLeusCb5Q5swOzHhQMcRRR17WOhzHyrPn1/stHcTm3lesqlZmkmnpHwhmILe4dhnTujt64pwtW1VUVpo4wiVfFvdWjU6Oru49pTDF2wu+FKgOXuVSwWaJymY5fa5Prl4btTjLlNJtgqDktF/9H5kW+fL3jsrnv3lQ+sbKbVdaTJUuN6jttf8aL++bMEtETr43Fi5P/nRQqPynMjFJx5ol1rjJbrB/7fnj8oVvH5Jrg1PZLpzjc/U55p5prKJcKmMVdk8Z6gxX3VLawii5AfEYm5qRcxevyPh4eJvYSuAK5ZSE0lVyA8PjqoDYust3FrwCWSqg52jazvtMQta21cquzXXSXIdAneWv0GNHS43s2NIgjTUaN5PUuEmJqfArJK4GZEpS6uz1BhrfRgtqMGZnE5Ka1dGEGYyE2o1JmY2PSSo+rmmm1d9NalcCS2UVjoLRyoypAVVlPDA0Zu/0McN1i4JSX+ubkfMXr6kyqJXyipgrUFYUWotZo7oYfJ0HS1jZa+Dq1sH58YvMXFih8ygWFnY3Do5rlGSF1Na2yOBw3JZtPd52y1hWHKfARicz8vUXUahvyOA0mwnWSixWr/0suE9mMefWSFgixWrrZknM58vRBkw47bMp0b5b0Sg1zRtlYrZR/vLbB+SL33zVXvCYja8l8elXE8i5d2BYTp69IFNx1WtmOLzUFs7xBmgYxwgP8NjOqCVYtaXAF2t0IinDIxNSVc2zA9TGSkRMGlPDeuRb5EmpUC+MSYVe88qQWMWsVOKU/Yoy9dPj2OioXDg/IOOjA7Kms1527eiW5oZKSfPNa6VRU5GUbZs6pburVQWdkmq93tTdJPfu2Sj3371Ztq5vk9pKNyNZsRLQZE7PalWy/1yVzMj4lEzH7Zt36r868l5tsFR1+ny/DI3OSGVlLfNH5ZQ/ClPoFoaPYTLU9sVfzhMJ6B/tTo2LNRHLJSQXMzr+2p8vxd04UBx4r6yq11lmuZy70COTCV9Ih7eFIdEiMBgCbLD4xkvH5bN/+br0jmekpmWN3TewZU4Tv4vIb27AkI8bW0srgLZL9yBhhdt2HOOT250666qUL37jdfkG29unec160K7V5bXdVQBd49T5y/Kt51+yd2K5fEBxmYZxAwyIY8LuTGRSKixue18/fIOJq8WcmtKZAO+2sRF3TtBLA3S8C25z2exCeU5PSHlqUCqSg1KuTpJj5s/bODM6s+jqaJL79rRLU31Mujvq5cPv2Sl371qn6XTOnRqXruYy+eC7tsk9uzfr+CIud25fK+995k559ME75NEHdsmH3rVL7tvZJdUx7p/4Ja2l8+5i+j+dypdrA1Q3PZOSJK8gDeLcimDf+9mLvZIqq5aKmPvEsKs3AO/eIZPF4WIpBTqkUQpo2UF/NAIdhR87WAp1KnPzz8vGEt1SYGnU7sex06iiWq72DurgidkuRSDMFeB2NyIYhlmtEDYJvMbT2199Va4M6eCrcY3OsGttq6nbng9cPYXPb3XAZc6F68rNqNhGO6t9oqapW4amauXPv7pPXjl4VvuLa9PZdr3KmJiJS9/QqMRVb8BVTqYL51dyA+LX0fgGyF137JBm3ia2GghkP5vKmLJ0H4xy66GLFXpeQFM7Km/arK0Vuf/erfKuJ+6U5564Q559bLfs3tHlBKZ6rVw7c0dTteza2iqNtTGZYhbSUid771onjXU620pNyI5N7bJrc71kZkals7VannlCy99QLUfeOiJvHT4gLdUpec+TW2VNW719eyCH5ZaBuNqtdJZXptPheDwlKf9k0kplUWLEVff19A6pQqyW8gruf+Q603I5tvia3IyHkeGoiiYdLGiifHV8l2aml+bFd26ggNG2l+GxxKhH/zVL1xDyHX/5fjcW5Gil0UEST+oPaGfnG/lh3O7GAzD7wIicujIlf/6VV+T8tQmpbezUASJfotQIBOY1EC7yPG5TuLqjjKwdZCrqpaF9q1zmk85ffdleChnGatc09HiRpHYi52FYXLalNyDqaNhd7a2qhB/RkXrHqhZ+VuezKRttq9AhbDfTcMttVG48gIXnGKsUWb9+nezYsV22b9sm27dvl+7uNUaVey3uGQ9V+po1W5Ov9fTLpXMDsmVjrazrapHK8rTcsXOrTE2KXDh/UnZu65YdWxplhqc9Z6YllZiRVDwuO7bWS2trk9Jk54Pn2QriThdFMCoJkvD+Lz6IMzsbGBCb6y9XFqVAfplGx2Z0ujymrGH03IjSKWmH5XKM6GyUHhiGSp3VVVUypnPGorwsJVUVs1JTmZZYmc4wJSE1sVmpr0lLXVVS6qszUlWuBkVnlnx2wLWCxVwhFgu/Dig5dhpRqxWxahkenZS+wWEL8u2GY64N3X4wqSn7/SNp+ctvHZLDRy9IvRqPyqo6rRf6m5bddlu9nVDQViie1iHdt7yaZ0XWyfGzffLFr74kvcH2XotiZ6uH6opyqVI95gZXHovnUnIDYlCB1FZVqhFpl7qaGpOXKftVADMPU/qMNq+DqBMVI1elxjJQXOTQkfPyvZePyndfPiIvvHJETp7usap2HVlVlZaLp8B5187kTEbOnL0kOsGQzRs6paO9Ubo3NMulqyMyNNwn67vbVAZiW4HvvnOH3LtntxqpKrnSMy1TMzyB6qfl/K6sHHywCyXKMze36pPKvmTD41MyMZWwByBN7s47ALx7txRonSkBm3VkmFFM62x3g8p5oxoRtfE6wyhPJ2Tj2iZ5+L5t0lSnRiQzobPFDfIenV2+96nd8r6nd8pDOuOsr0JRJW1w4HbLsezqll4xTnqi/mSm5ypvO1q7U39jgnbIbIb0GDBXBlc+X55w+bxbGGZctU7p3rwUcCKelgG+raqgqm9742GyEuG2zquHr8gLrx6TsliL1NS16uBKQyi+ixrI0gPfsLv9EOacsln5tC5TWu6KmhaRmg555dB5eXn/aUkECxVOBvmSuB5s7O6U+++5UxrqeKZm6bghBgThJHUEwRPSiSQjbee/MnihOSIxtZpVaImgATq3HMESN0fTnZUpvzpzuDqs1n9ATqg7qaOAq71jwYBeVYnmx0vQZvVax64qyTq5fLlPhoeSsm1jp9xz9w5BN548c8HtPFPCrFL19vbKyZNn1NhckdcOnJAvfuWQ9PWP6KjSKdLlwnOP8jAFpw55IJdbDX6Gwe+kWuiZRMqWr9QiB75OAk4K/mwZMrHR06zNMO7bs0HuV1cd0zpKpVT4CdmgM8MnH90gbQ1lWmNTakw2yf13r7fddl3tdRa2d88WqdTZihkRNTrpxKRkklNKOq6KjKeElSOMlPqlk5Pq2EmnxkLlnuEjQ+yswz9FGnbfBQOb7ExwGeUJg/pVOrRylrCSmZhMzKihCoJvWyAbLQUGF5y9OiNf/e5BGZ4stx1X2po1lKVpbSPWxoth+XJdYS2sOjwfTgr5oNw6l5ZYXYeMxmvka987IOcu9QWBxF6eppsPtKsN3V3yyN57pKWxXmkunWrJDYh1HkXv4JBa0Dfk2tCQXV+fEVEE6WOxMqmpZgsoyxROpNbJlyGELCvMPuxPK06T85BPpkItcnm1GgptyLxiXCOzRmkqQxt1mepp3nHDjeDegTE5cfKKbNzQJE8+vk0GhzNy9kK/JFIxuXx10L6QlkyXy+nzl+XN4+fUQI3I2LTmk65UnnlCHybgJsvRgigsoT2vMptSedyaBsSXDDM3E4/rYAIFq/LWistvtEsrfxjs7sOIVuBUoTfXxKS5VmensxgANeCzM1JZkZLWxgpbuqpUI8Noa2x0Ql584UV5+cWXpao8I/ffu1FqdBbC80Dr17bpqExnJnt3yY7NXVKncmVGUm/f5lgrD92/W+7es1NaWxpV7nGpq8zI1g3t8uB92+XBe3fY1+gqyrjP4sd01jqD85WB/lQeq5SU6tu4GmBP2fez2w4qDnjHQEyonX/h9bNy8MQVidW3S0b71CwdrNzPzjVucHRwLSonUXe9VPjYS09RaoQ40oLybQ77HHdFjW0iOHmxT55/9ZBM6TTNzzZXh/cyqa2uEj7DWxXjXrLDUlpU6Q1IUMS+oRE5dPSYDIz4B6BWCi84d2yoLZemxhpJpdgvvdxOBI18l9GR3axgMFTRqeHAWPDRmaQak3i6ynaHJDPqz7v/dXSk9kClyHVMJhMxOX6O5xpisnFdnVy4Mi19IzrKru6QE+f6dTYzKeu3dcvTzz0ijz31gDz65F7ZvedOqayus/sq+bwsD6RO60ibEXhdXZVU8hQ9/iyrLFsuq418HjhLxBNu44BZe1ebOaO/PH49ddoau+TK1ZCWK+2WOpGt65pk1+Z2NQAdOsto0FmF5qMGpkJP0rNpPVbYrrpq9mVrZU5OjEkqOSGdHY1qIHbKzi1rZc/2NfKeJ3bIHds26ERmSu7atV6efVTD1Kjs2LpBWhqqpEIN1X2718kzj+ySO7Z0yd47N8qzj22X7o4GpavlNAXvnDOWhW4JUDmZodD/pBrfuBphl3L57eVWgC+5zT1UWZ66PCUv7DshqYpGKQueMqdOLR5lJ94c5CRAjNtTEnNhjzto0WxpW3VLjKW8qhZ5/sBpOXJuwMlslUBWYxNT9r2mmRk+0TufrOei5AbEgyWsKZRGdjR2ffAGpLmxXNpbG7TgEyoILLN5K5Yqglyz41mVtM40Tl8YkFf3D8jIeELDqMAKNSgxuXh1WF490Oe+uVGpBkKvX3q9X/pZi47VSqayQafg4zqKOi/PvzYgb528LNPJKpHKZjWcKfn2iyflyIkee2dVXX2zJNIxudY/YnJxe8HDXGcLsiQQmzX3clWOrc31UsvaP+vz2THqrQN45b1iKHBbvaIGGIVaTSy13vJh5VdnMjQSGeloK9PZw2554rE98shD98jOHZ3C1wRYVmK2RntZu7ZWwx6Sxx59SGcS5TKo9TGbnNJan5HJ8UG5dP6E9F85JRvX1MsdO9Zp4qTOPjbKer2+euGUnDnxpgwPXJauthp58qEtsqYlJlfPn5LeK2fV4DTJnju22D2p3AzBOCxwi8Cagmul/l4HxjelRuR2BfLA8ap17iUO6/jvxf1n5dyVEWlo6bSBGyVmqTgrujnwAWE5LkGetwkoO2A+zIC1sr5DLvQn5FuvHpMRvmFhYatT3vOXrsorrx2Q0fHJZRmFG2ZAUOwVqqDdw22rACWI6Bp0lLmmo1lnIEnbeWQCNcFbr1s6YFC1GctWJ870yDe/e1oGBifVW/k1F9MZxYB8+4XTMsSLG9WAnL/UL1//zinbk19ZWa0FrJbhibR856Uz8vmvn5RzF/tt3z5ba5mtnLs0IN954ZR863tH5TsvHpXvvnBCDr11XmbiavUZAWMAA3aW2xGQBstX1ZXlsnZNu1OU2g29ob1ZoBQ50+B44Ze2ANyIWt11sOlagpOX5aN1yZZE95qbUbl0ZViuXNMBwSj3K4ivmdnIrlzGJmelVwcA564OSv/ApGzTmUq3zj4SU0OSjE9Kd1eLdLbVSX2tSH1dNSulMjAwZPezNm3okLrKtMYdlnVrW/SaeDFtj606sGmUam0SrW1ttlmCgRNF9C4fjveFEaQy/lWllJdJzC83BIrmtoTWFU8AXegZl9ffOGH9pLKqhgArq0mNvjkvKHvYvX1AacyAqoR4+WJ5Zb2kK5rl9UNnVJe4991dX//OmR929J0+d14SyZRd478UyiU3IK5zizSqpt/QvU7q6urMxzO+UqDYscF1OsDfsK7T3uOSSPA+KhXKkjsUAgz+NA2rSNzbmE6kZVCVTcLJ0sqAwkskM/bkNAM/dg/FEzpiHZmx5y6QtrvpVS0jExmtkGmZjjPKZSSlIWpIkrMxTa8KayCuM48ZnbnMysQM1LlJ6CqMuMuTTqCa1fjEdRbW1tKoyqzDQlzj8u7mIFeafD5isUr7PnSG/YpBfS235DkgA1oD0tMz1o4rKtTQZ+SNN8/IS68dl1f3HdMO0m/3DvhWhN1zUrn39E/JvkNHdMDwqhw6fFq2b22WbRvXyM4t6+WeOzdJbVWZTIwNqGzdtxqQ6cFDb8mrrx6wsGeeuEPu3LlF6mq4jyUyNj4sk5Nj9ozGy6+eluMnz1qZbI89R71wr/UPOf0rhqxvIBTEZH5qxbjHVVmpeZr/yqR2swHvvH+A+43HT1yyAVl1baPVD2WmVH6t/50HWrL1bKt32qqoca2uaZO+gSk5fPS0TAfPerlZ2nLbAPFdGn5Tmj5lM3NHc6lSL7kBoVfB4JqONnn0ofulo731OtfvfMERrYpUS7BxXYc0N9TqlH5G/VBIOm7RKIS7DlvcAS8ou1ReUfgsZYV3BwXVqA07pobAvcDNXt6m00oXj1CIamyNIzFmI2rZzHjg5/ZHMYvhaVq+W1KhMxjO+fY3CZ2UjMQyQb5u6+jU5KjOPtpkbVd7ELSShrV68DkX44A95zEUfTAydyUvXvrCepvjNI4eXD6mcHRUC209x4jP6ICA3X9JdgBSbcHsh9qpqy6XxvqYNNVzE1HrQ/3TszOyZfM6NcRNcvniObnWcxmKEtPAKk2a1hHEeR2tnT19XLo6m2T7tk32Wpvxcc0nnpCLlzTszBm5eHFEBoeGtYx8eNhxqPZiLnw5CpwrkIMl07o0OkqPb91V6TSTFuqXtVyCUKJbHM7ciw64ZuXwkdM6YKuQqmodYNJm9d/KZTG8e+fAldaEYDWKSHgjs/vmUZ0OjE5I37B7LsTdP105yIsuwSYkeyMG1/a7OJYab8WAOYrXWFujI7t10lzvngO5nuYQfgEhdDatbzQjwpKD7d+3hqdYRK5hHjj315YsSJvt0HaBCypUz53Ta474EcegHuoPvP8sPKtfuY6MLcychoQ0hUsxP1wsh+y5pZ+VWVV65WVJVXzd0hY87e+UymJUbxw8JzS6+vpaqbbt1xh8p0hWzqnWdzCSR/lAbXomLVNxFLZ2uhi75Colla6QqRl2wlXY+eRUUtZ21soH3vWIfOxDT8k2NQRvHL4sZ873SG//qD0LtGPXLrnjzgclVhVTAzElNbXVcueePfLwYw/I5q3bZXQ8I72Do3LxSr8cPHxOquva5P4H7pe9D9wtO+/YKlVVNarv+YIgfAa1toyCZqNqUt9s0rMJu/Ffr32K8HC7cJjrcyvCtU+Rs5eG5OipS1Lb0Gozex6GzRmPMAqvFwZSCEvCX3u/cNhKcL3plwKnbdwvm3m4FxKrbZLT53vlvLY5ixPIcXkgTS7d2vZ22b1ru32zaTnlqviniuC8pHDdWhWoFpbxn7G+knIrUBJeOWJ8q3QUeak3JW8dO6tTPB3d66zALx0tiFD+uVOfxiu14DrID18fI5Q8D4W5+lFnsfie4ny0wsjF4cw50paXpyQ+OSItNQn58LsekN2bgxkInXBFjWt1keM2h8lkubx04JyMTmS0zmo1kPqaqzLA4iVw1Cmrm+vpbyotV3qHpad/3B7I4jUvrCMPjcbl3OVBMy6zqXIZHZtQQyJqWDLqPyz71Qj0Dk3L2HTGRsbxVKXymLY1Z54HGp6Ykdq6Bp1MVtrDo8fP9Mqx01c1TkL6h8fML11WJ/FETAZG4nK5Z9h2tpQz9TEsXpriUOkoCXaPJaeGpb4yLs88erd9UgDk1/NK87ixgOe4Vte3Xz0lL+w7JXUtG9xW+aAurxeuVeTgr71fOGwl8OnD/f16ac6FUswyzLJ9ubaBjEyP9cqGrma5+87Neu36zfJlRjq4L5Pa2lrpWrNGWptZQnR5Fu+N+ShTZVyo71YNRjhQ9teGRuTChcuybetm6WhpXAJr84MZiBVO6XKbgknXN/ZPyH/6zc/JTLpGGlrXmbKwqZ1GyzckC+fsxOnPyMenNVWtLpe+GCUf246WtwMThdWb7pGzy527LjGZlpH+c7J3e6P8wl/7mOxc32BhHjmDe+ORk14+esfT8k9+7Uty+PSoNLd3S5qlwXkkZJOsBRFQtzLyQB+vLUEJlavxUB9Nzx4FbkOU60kikUQoUl3JMpr6aTqy4J1qiVQqMPg60NHZIvviebUJ34xOaptivd5uYOsoyJR5clbTaCaahmdBqqqqlK7ODJQI3oT5Hua7q7skk2yAPysC1+KQAfe5KnWwMD54TtY2TMnf/uufkMfv2Wjr1tSvr+ObWd9LhfVhrZ+BSZH//Dtfk6++eEJa192lxrd6AVl4LLVsnpKLb9KnMpANdc56/yrIqZDf1ZS81zc+DzRSLD0jiYHj8uieDvm7P/cD0tHoVL2L436dz9JACk/fp1pq6tXTafOAtxCAvoFheWXffukfHF5G0YrDzS4U2hjY989elD3b62XPji6JTw+qd/AEsGbkBMOvNpasmOZHTvC5lN4BH7pQGSy+RiBHYJ0/OF8dOAVB5VXqMTU1JtWZabn/rs2yodN9ktIDZVLCMcKioNzFys69h7UdzVoG962U+RSe8/U1MI9TAbu61nM94VU0idlynT0wQ0VKbhdLcpZ7IsxRuI9VZa9FH58RGdXZBjOOaZ2RpMtrtM3yAFu1xJXG+PSsfQVwSuOSHjpxtT+T02kNy8hMisXjauWhShtivc1YxjTN6HTKNmO4/J0UPMdLhY9vjjpkaUe5TyWnpaW5zravg5tZvyuFZ3lwaErOX+qTWHWjyjG2DPk4mS7k7I+GYdfOx7UGdc7LEM6Tc+8WBnWRcw4hoquMLGXaus6mkdflq8OqVyeuO1e4n4mnZGo6rk0sf7i9GJDlDUE8mZKRsQmZSbhXUF8vUDgUlALQGNc1l8nDe7fZi/GmpkZM0DQYh1znXZ54isddaoWVrjm5EjGhLcvEZXpiQLaua5aH7t1pO4PCQC/Po5tvKqrU6m/Z1K0DgISO4uPZ+pwr8fyOWsz5ms05BRrCWrfz8/XObCMrDs61M2Yda0RBcuKwG4gPXYXDSV2hUxlmJ+ys42a9i20htlRmjntdpqVczp5bFxcEGc2DwlCom6FQY5uKT9tmCR52tLBbsYIXheOZ709wv6mypsFk7WS1Osi3q3qRdm9q4BUz7l5prkZ8vsjSO89jIRxZrVfe5KyOjKif0kNzJi9tc3x9dIgXavYP26wYOA7m53s+EPv8pSvy0quvy8j48gxSyQ2Ir0TUXUpHA9e3AysfpnS0tNQ1H3rae/dG2bVtvUxOjGi+wajW8kckOC4ChkoMZh3h42qAEjg4ZVJWlpbpqWHJpMbl0Qd2y85N7SZvL/MwivndLMB7pba87VvXS43ORBKJGfMrCvWmcy74F07qq9zDV/18rhDmVxipwNl0x+Wb3YqrM42yjBoZO3o/olsBQuk5WELn1M+psWIgHKfQtoyxStk+/bRs3rBOmmrccyBmFGnrtwnCdT08PC5TOvrlDcMsNV4vvMTMqUhsByRLkGo40D5VFTr/LE+rIUlov1FjYrxoRJWff9odZzCR8uNdQFfTsMJRqY2Y1ygxoIBM1vl4JFhVUM/kVa6TtWrbXciKDkulBs0wx+nSQfyegUF589gJGZ2YXlb6khsQLbIdWRtuqK/XhsIt9NWDNQB1yHDjmlp58rF7pbGmTKYnR03BWpyiIsFvOaJaOjxV0w+rCNcoXSNP85dJyehIn2zZ2CaPP3KX1NeobF2kAP4EjrKeNx1e8uu66uwtxens9+QJDfPpYi7OuSW0o6vrnHPyWsBptDynfuH0zgE9+khZvzC8fyhMGwC8m1PvbH7mF4SFoofh+k3O8cvMZnp6Upqb6mTzpvW2GcVwGxkP4Ef4KL6+vkEdQevcLaazD+3HSzeExVtFTmLQwnjw9dCkdHU2yH1375BHHrhTHtPB1r13bpb2llqtIoa0OVos4XDvFGNm9aV+5vBXp/9Kt1xmU0nZunWDPPzQHarX6mx5sSKYodrgwf7cPVNPY7koTONoM0BRujzHpO5qb7/w9dEVIciAA49j8TEpPtjlsRSeS29AtDZhZH1Xu7znmcdlXefqfg/EmltAEP351IOb5ZF7ttpOlVRi2m6a2lTVGi2xrGnZ8UZhdXLK8YzqKS/PyMzkiDRUpeXdTz0gO9Y3WwMniu+DXOLhO+ytAFOcygqsdTSJ3L1rs73tNm3vMqMj+NYBvyjcpTkff2FXDIX+5D+PY0QQcvahqjzHfTeOGptjHu0g3ZLg+HUr9sxqgrabTkpyelS2dLfbJwMAuRTiVqnrhQCL0zMZ6ekbkrLyStVE7JJzZVmce19mjvnOXomD07ZUbm9UnpYNXfXygXdtl8ceWiebNrTK9s2t8twTm+W979ol7a1ss45rGm17LG+lErZNmqUp25ygNFmqmtU4+NvMhZvvGr+loU462lqtL/KKG97gLDoYknQwu1FlzO671eh/pKb5uLJxwSykSnr7+mVqOnilzbKyMGJ25pOZAV8ekdIbEIBaaGmsk3t371ClEdz4s9/rh68cZMGIbGNrtXzomXtlfVuljA71WKXm1joprp5Z5vysFhc5ePG7/PKvrw9KAUWiLMd0Ci6JMUmN98iDd66X5x67Q2q0DxLF2un1Z1ZSoPSYMzYqz3vv3Cq1sZQae97B4xuwqxenHOnCqIP5nYu9lEIXi1PYBrj2hswfC/1wYYT9fTyPcJ6eFn7eFYOPpzGwRopyrXhe8lhdFpc9O7ulS9t5EMN+b0fEkxkZm9CBg23dZdekSi80Al4YXkZzHfcG2Z1Ypkq/oWpWHn9wh2xXw3H6xEnZ9/rrsu+1V+TqxbNy3+52eWDPJimfHZPy1Lg0adzt61rkjk1qoLsapKFSZyepKWlrjNnLOHduapWt61uke02T1NWU2zvQLp8/K/HpYTVUU1JXmZRN3Q22tXrT2iapLk9Khc6AAq2zYlhL0aLRP6yPqKLn/lwsVm3vrkoyfVg2lGrQtkBjbbWsUWNYVbE8k3BDDAhAscWUufJg+0OO9esHtE1xImQV7oO72uS9z+zVzjYtMxODaljYSqnqyEZyQcSsW30Ulm1VymqjAxqOHmenJDF+RXasq5Hve/fDsqHDvR6GCbSHK69ztxrMMGR4mlp0NNgiWzZ26sh6Ur3o+JgQG/e5yHbUctHY53NWbuKthgPQCx89CPf5FaKQRiEKwzyNuWmcj/vNmk8dNExNDEtnW43s3aNGl2cwLfbti5TWN5tqbAYZjNRXB07JMmPjs9N7VB9cPD8qr73u3iF16nyvvLb/tIwOJ+SeO9ZIa63GaxR5+pE75EPv3i7veWKbfN97dMayd5vUYxTUGDz3qPo/vl0+9dHt8uyTW6Whtky6td/duaPFPkJWW5mSR+/fJu9+Yqc88eA2efaxbTpgXi/VFTo70BkMBmA14IZL6AG3kWNmhu/UrMSA5ADF7Vs2aLkek3Y+TRDwupTauCEGBEYmpuJy9nKPjE0u7ybNUgA9c/xo4RtqRD7wzE55RhtEeXJMEtNjGqZGhED9zzXU1eYkhyxPdnX9YBbFZ1nL2XU1ckXaauPyyQ8+Kg/evc4qsVg+fnZ2K4K6oJ22t1TIg/ftkvI0n/nVtqGtF55pxITrhcVe3IFi/oUOFPMPO1BUokXc6sNRZdDjXHnZrH28KqEj3Tt2bJDdu9ZZjNsdvPyUV9IzYGAjAINLq/sg/HrB/Y3GumqpVX1w8nSvjE5qm6tokHR5gwyOpqSvf1ram2OytrVKHrhnizz8wDoZHRqWE0ffknRiRp58bJ3s3LpWRvqvyZkTR2V8qEdnGM1SU1Ur8akJPe+Qu7Z32fv4tm3qlCcf2SAVs+PSc+GYDV7f+8wmWdeplinF8hZGLb+FXReCfoL8eNPB9aKjpVkHcxulXmciy2nVJTcgKAIy4W2o33rhFenpdx+UWq1GEgYFt6coFevbq+UT79sr92xfI1MjV7XzjWqYW2JgTOdcDr5inVrzKI2CWApobOTuO1esQg1IZlqmx69qIx2wZatnHt6lU09XhcR1SjnH/61oPHyZvKKoi4mO3LbLxu4mmZkaEbZYUl4rhT8Cl7C4s1i5ci8PeYRCx2Lw+YSdRyGd64PJCCVhyzEpmR7rkdaGtDy8d5e0N6jGsrDVyu3GwkuNkXOKt1tSVh1Rr0pplISTDCJKCysy9KXJySl7GJQbzzxvwhdHE5o3CyItDdWye/tmHc1n5HsvHZH9h07J6/uOSlVlhezatkEG1YAcPXJKDVy1DAyIHHjjrExOzEhM26d2S3Vx2bG1W7o6Ku19aTWV5VIZi0lXZ7U0MZplg4hxlCthuOXMBx8XhM+thNa3MzqL8zvJVoCAKAfuP/FG8yxjSyRZcgPimRyfSsjlnn6ZmFmd50DmA3IlS3u4cGuLfOIDD8udWztkZqzP1tkJt1Vqq4B8OJnxG5be3HilALmEHW2CezbWsZjeZ1IyM9EvlekRedeju+XD73lIWhqdIglWBTW++7PzIuW7NeC5rFCnvKvP9g0N8q7H75fy2RlJxKesQ7hyuLpwRnEht1xAez7nMV8+4fOVw3JTMuEc8+G6JqPyTHpGklO9snd3t84411sI9Tt/2tsDfIkyVlFp9U17NxeErRSkz22u4KHPFN3HdvtxQz0RH5NUfFyV/Kw0NdXL6PisfU6hqbFOhodndFYyoNcJGR4dFh5Zq62pUPnHZdOm9bJh0wbZf/CcHDt2WnMJZk2aISsDpKc+kmqUYlX1MjwyLfsPXJaR0XHNnwdZNWKowpZad8SjnXhYb1BPtwtTDaRaSFYnrhfXegflqJZris+mWqbOfzG4VlpC+KJlEKJmx03PGwEKVqtW5OE9a+SvfupJ95T6xKAkZniDZXGB5zjz4d6n9DyTY9jRuTAebN3kba7jo4OqYMfluUfvks989EnbiWO4MeJcVaD63HtkKWtG6tUOPvHINtm2uVNnIaO2RdLW/bVj8HfjgDDnCtTqIzDIjh/vrgM+uR4Lc3RBjDIxIGmZnhiSjuYKee7Je2VNM89LOMN7O8FLLFRs29JfXVNtss3er9P/uTWwPEAbXSPllTI8EZf+wZTce3eX7LljnbQ3xaSztUoevHe7dK+plmMne+RK75gMjoxJS3OlbNnQJW0ttbJ18wap0clDT89Ve+Pyu565T2csGTl7/oryXKUzDPpnRmJ2LyqmBmfCXr7ZNzAmJ89elWOnrsqREwMyPD7tdJ8toefKvzL41GwpdgaktrZaypd547sYLlzpldcOHJaR8anAZ2koeTv0jYEXgNVUxaTSD5dLDHJhhFtfnZGH71orn/nIYzYjSU702o11tvjBihvJ6Z+a9dz+bf8HDXcsJXzDyjlVEFozLFulkxMyNXpVqjMj8uzDO+WTH3pIdmzoCFXcjZFnKeDkq9BCb1pTpbOQu6WmPC7JmXEb1bG18qaXjvYRGA8ON4YfjIe2gYq0xKdHZDY+Ig/s2WY71qj3knfaGwBWASoqyqSKVxLQ4tV4BGJeFdgctqJaFWJKXtl3TjJ6/vS77pGnn3pAjcHDsve+XdLTOyWHjl6QkekKOXzsojJUKc88+6A888yTct/eO3VUnpSTp6/Ilm07ZNOWVqVXLnfs3iEPPXSfNDY2ymQ8I+NqNOKzGKIrcqUvLd1qeDZs26lus3Ss3agka93SmbZxN/hwyJ0tDr9XxDsPlgCrq6vtZvr1YlJnYYM6W4ovc0fXDXsbL1vNeMHd1o3rpKme7y4gwlVsMUVgDVJrjk+Krm2vl661LTI6NiU913ollUjaNrgKXuIXGA43Kg7xFGrRnDlTEgpfIhYqabGGRLa8qG92ZkyNR4+01afkfU/cKZ/+wL2ybX2Lhq2Ei1sXyKBGrXlTW71cuToi5y5ek6rqGu2wKBfqxEnwRpXZ52aDi8BloecL1edSkZe+gJjaDm2Xqm5mp2Rs8LJs666TH/jIk7Jrsw4cNG4eP7chkB+OBwgPqeI+dWlUquvbdNZNfTtcXwmh7uSEPhwYHpFR1fQVVTU6KWnQkXtMrvQMyP5DF1Tpj9sLHIfHpmUmrjqqtl4T1srA0JS8ceiixWtta7eHHgdHEtocaySZKpe+viGZ1XyG1UCdvTgkQyPjMjWTVIOhs5PqZi1bhVzrH1Y6o5JMqjkrVyXPWloISykjhtCVxrfLwKUTkpwalJ2b2uTxh+6SxuCtBCvFqYtX5NLly3LXXXdIW1O9481nuADK1PJ7/lYdEPbEZxIpmZ6e1ilXjdRUVlhHyImjVHC5p81A6EhBG8HRS0Py5e+cllf3n5ChCdGGu0aVFc+mMI3moEdutmfFokft0XRqlJmtrXr/bOnmQ67ysyXFQ09yKctsSQI/Rp2MJXg/FJ9JTU0NyJZ1zfKB5x6UJ/aul828KNHiuvIEp7c9kAVlSWlZvvfGkPzm//mmXBuOS01zp3VYOpEV1OokXGDOcfivHlwugfHQhsqf2yqZG0mGuVgJXHvihB9H19O0pZGypIwPXZJKnXn++KffJZ947m5pZE3WQP7Xy8GNRbiGOOf9TTzy8Qd/sV9+609el6Y1O6Wcb6cs+TmQYijMBZmmbWMGs/mGhnr7DHA6ldKZ3ZS9CiRdVqXyZpk4ae9na6ivUt1UIXHTV9xUTktdbbl9nph4IlU6GC6X6akpYXwDvakpvu+fkljVrNRW80neOjNcE1PT6k//pt7gxHGFW0rtEYeaJh1Am+BsEJFUgzVwSj75/rvlxz79nLTV8YSIj7d8fOe1N+TQ4TflYx/5oGztXhP4Lk7xhsxAYKNSp391NYz4uekDSzC1kqIuBy4Py08dI/f21lpVym32YOP42Ij09Q9qQ4nbB3p4nYJjSTkO93D8AiI51UG4j1MM3nhY4sBBYq6v3YzjRBsxhiMxflUaq6bkoTvXyMfe/7A8++BW6WxW2WkcU2oaFcDS2wEUA6kgg5aWWu1wlXLi1El7O2hVNV9tpOMWylvlwGsdTAarLwiknB3pG4NB3iGv60EuvW8PrmUhg/JMSlKTg5IavyLPPLpLPv3hR6S1AUVnUS1erhXcHghza+f6w46lKwNxeWnfSXu7LDPO3LNay4VvG+E2omADiuqedFqVvhoEntrmK5W8qTmjM560PSWm+XHDXacZ07yVVh1vXObronxmYCY5K5OablINBWEzM7M6+ygXvig7k2A4oQZI2yiv+5/SUerktMab0TpMo/x5CaeGKyues6WUzuKQICQLzpwB0d/UlCQn+uS5J+6Ue3att88SWHSLmTsujHAKsc9hb1i3Vmqqquw6x+/81G6IASF7BDo8MmZKmm8sLMxWaUBdsGuiqb5SNne3Snd3u8zqUCiuM6OpiTEddcRZO9BI2uhMo2tFUVkcA2d858nd+S3mXHqHLB1+uVGuPqnEhMxM9ktFalh2rK+T9z19t3zfu++Re7Z3S1ON61T5+b7dQEdkC2SZtHc0yujolJw7d0FS2ilj1Xzm1MnQSc1JkkXH4GTV4fLJkXYTdb0KPK43y2x6GiV1a06bnpZtVttCUgcR9+1ql7/yyefsNTU8uW9R7S+cf+7sVkeOb5Wl/qMIrw0n5OX9JyVl3/vma3j2rPUKS+XaRe6oVDAg/HFUg2HLZEwdVKnbjfZsTo67ipjOQOzVKi7MeOEz1fjZJ6y56e82BPH6FWqMinF36yrVkJC2UslzxHCovyuuxVgqHDfuTJt+cA4Vd380Ex+TWGpE3v/sXtmxqS1Lu/A4P7yMHOpqa6Sjvc0G+UjM6z33Nz9KbkDod+jiC5d75aVX90lTU5O0Nzda2OKFXGUoMz7P2qoKWauKilccrN+whjGETKgRGRsflUR8WtsE905odCxbaSFISCOEhgqXY7hRcB40VfsDFo/zrPLBub3pFTqGSaemJRWfkvjkgFSXTciWtTXy5P1b5ePv2ytP3LfVvjhWzTDN6DgSHlD0CHnftrBRp8qZbttQG5PutW0yODQm5y9elfJYnb2+mq2/LPe5ZSVAbNLZxarCcoBuWNAGn/fyUFhfec4IUva0pBOTMj12TXZsqJMf+f53yd471ll7cTNXl8KnyyH/6taG1h99x/qRjtgTFXLg6AUZ0AFDbWOLhrvR+vJKRAov4fA5VII2Eri0ytGWkiwDlaUKH0Nm7c+8UJwutoXbEVAJbpnIer4GEOo23igszKWFhjkX2UAc75aCXFxnQIDTOIxx05LUwWZHfVo+8p5Hpas1/zO0S8+HVEpfD7GKCnt2xWY3XhaKxWiV3oBo7lTh2Uu9sv/AIdm0aZN0d7Za2NIKuYqwig0O+sOSUFNDtSrqJtm2sUXWdLRIVXncXo8+Nd4v8alRiasxsdduqNKiHLgY54ESc8tP/tzTdi4bZo1sViStM5zUhKRmhmVmvEfnv/3SUDkjm9ZUyuMPbJYPPX2vPP3gFnvvTn01aZWopqSzWQOBVlDpYeRf3d6gfJSytalGWlra5VrfoFztHRK+lc3o0K8HAyd1TsLd5/pRCnlC0ztA+7Aj5VX+K8pmtd1NyNTwBVnfXi6f+b7H5ckHtts7zojrorsSe+eQO7v1QT2pQ2NZudVk6mzgxPl+OXWhR2rq27R+eT4oV6bCml1aab2E8o0HtPwH7oCXq28+/kl4+7MKyuXuZqDw7K59eHBpes5iB8k4uAdB3flK4YxHQEEPlgff0NEZ6p1b2uQDzz2guoJyOvi8lpKnK52m1bIMjk5Ib/+gVNXUSCxGHUAD/hemVHoDoo7iXR0YlrPnLsjOHdtungEJRBbOmXagkxFpba6WjWuaZZtWyqb1ndJUV27LKen0rN1wS6qbTcQllUzacwppe2qTbwxok1cadn9CDU1G/UTTYDB4o2ciPmPfu+B1KqmZISlL8D3rhKxtKZe7d3TK4w9ulfc+tUee2rtFdm7qsIcDY9qiabA2GlAe3Q5y37iN6+AYLsntj2yptLiUta2lThpb26RvcEx6egclqb0pVuWWEADyufUFkGtz9mJEeA5g9akzUl78l0lO2qBirQ7Cv//Dj8q7H71D6nUmRuxcveeKG6ISHG8XwC+KWI9aj+zMvDIclwNvnZZYdbP6Vbowg5OdV9Pe1x9zKAzhWOgC6Kn50MbcZfbEzg25M5DlIlR3ehEcAxekKfQOLleGUGLsl8tfNU5ySsehl+XdT9wlT+zdls0TLD1PFwvZ0psOnzwnBw4elq513dJcX2thLnRhajdgCcspwqs6kjx1+pTs2rFdDUhuze7GIl+8CD6oE/OtVoPBp0LXdbaYMt+5c709ULRWZybtTdXSpB26Qq1/ZZkaj9SkJOPjttU2zZq1HuNTw2poRrSCx0WHCFI2OynVOqNprBFpaxTZtr5Z7tm5Vh7du1Pe9fid8vRDO+SBOzbK1g1qOBrU8qshC9gJcQlcNZrCDIXkx3m7AKXqylup8uCzrR1rW2VoaEIuXr6iQqiUWKUOyw0uLj2cFCYeg+vyDreKlOiowUjRWKJf6GlGByMJbTuTvbKxq0a+/0OPy3sf26UDCQxlUOcUx2SS+3NEcLcTAp6NbTe+5ebvZKpSDhw6LpMz5VJZwyeZAzn5egzi+9L6Yz7wDccIX3s4eviSQ2HsMEzk7tSF24WP6QZ2hfXgfsM+1w/HsUqKp86VCV6imJgZlabKcWsrW7tbZJaZjrWPpeebk4T7PXrmspw8eUruuGOnzv6pA7ec7DA/1ZJv42XJAUbOXr4mr72+Tx6+/37ZsWV9YFGJdevA8wvgj22lvM5gcjJpW/IGRxPS0zcuYxNTMjE5LaMTkzo7SdiDQolUytbnmYlUaq+owlVX6symSZqbm6Wxvlq619Tbe4zq62rUqSJUBekqKdcAyJi/XHfJwY1A3jmgDqgPtl+/cWpI/vgLr8iB4/2SLKuVxqY2u9nJDU7iubm+kx33mTyQ5EIdoPQw5pQD7p8Fta3DX16QqFNaSUzqzGqqV3Zva5OPf+BxeezezdJa72YebglTAYmbWYRSwNq5a9NXxmflP/7Wl+X5g9ekuWObZMrdLiAKzl/aZpwqQRLY2TsFrqRmrjKz9u4t7k+MDZ6Th3dUyi/9zY/LxvY65q+0rmXJJRClgXRfe/GQ7N//unzm0x+TLevWKD1ieD00P+WSGxBPPJ5IyujIqDQ2NJgCvVWR5ZkflRvrmAatOF7ANhOflUQyZS+B45icZakqo0YkWGjSeIyqqOwytSY1VdX2NUaMCp9vdbcIgRvFGDQfp1o02wWq451mQIB71Z62n5TIm+cG5YvfPSPfefktic9WSn1Tl1RW8WyMN8MqOzUewW1STUdKN9J14Q6rLcX56Dp/ctczPnertWwzCthNTcnU2DWpSA7Kndvb5VMfeVIevmuD1NcG688UZbUZvcVgbV0LmdDq+tw3T8r/+MPviVR3SVV9q4W5N2jrIKLAgIC3uWgCWEuwXzZYxFQAifikTI9ckL/2yQfkr3zkQalWvUJr9/pjqQiJ0uh/8+VD8vprr8qnP/V9sn0Db3t2MRYzSzfEgJgY/MltgOIC8QrJoVgcP+4lFhWaLbKeOOXmrk3iIe2QOyOsGGWHd6IBQRq280qLnkiXyYW+KfnaC2flu68clWtDKYnVtEhtXZPG404CCZAzqbwcSy2zvNoLnP/1YW6EyBKWlSM+IdOjV6WrtVwe1RnHs4/vlHu3d0ttFS0sv529neGlhTt2eUb+3W99Q45fGJOWzs2S0gEZmwtsKGDt3hmQd4ZkwgjKrpKolLiMDffIulaRX/m575N7t7Wo7JDeylsMqcGxc1fkwvnzcv99d8naNneP2lFeGDfMgPDKekbrPFDIq0VuVXieC+GqUeELpEdXeTn4K4urP6gCgxdxEQMw1ydCIZxhVmmrGFMqw8GRpBw40iffe/WoHDp+SSYTFVLd0OG2+pZX6ojVhG/14dVxaL4XOrsezK253MyHqsZkwDPGTw1IJmXfmOCTtGWzY7Kxs0re88wD8tTDO6S7vUEqVTsyQHBU9RwmfXuxc3f6doKrH/dU+ozOMP/359+S//P5l6SqaaNU1jTawMEbEOSx3FH2bQ+tc9q8PVLALr3pPomPXJSPve9h+akfekaadcDBCxV9q1nJABP5g8l4QpLq6upq7Dm9pVK6YbuwegZG5I3DR3S0WGvvwrpVAb9eqB4I07usZItIOBsHaGV6OqYYcJwXuAiLw8lJfwMZ1tdUyPo1TbJ5Q6stC06MD8noyLDEZybt9dbcbNR/czww5uQfXAegbkKXK0B+6vBgwrKl05en1XAEGy4meiU+dlnWNKXlmYe2yPe9+z55/P5t0tVeb0ueLo2n6Y7Za+/9NgQGFiVZEyuzB0ZPnLqoumJMausbtdzu2QqADsmXztsbtCa3aYb7ZWokMnE1HhdkU0eZfOojT8vWbp11IzjfVnDhBr5E+BRVsQrtS1XCm0I8lkLtBhgQN30/c6lHnn/pZVnb3SXdHW1B6K2JnCpwsMoJXDH4SVy4Av//7b33d1xHlib4pTdIeA/Qey+KFJ0oivIllVGVurqnq7vPnNnZc/b/6D9jz9kfdnfO7I7Z6emZrqquUpVKnjL0ThS9AwjvE+nd3u/Gi8wECAIgCIAkmB8Q+d4LH/feuDci3nvxppw7roInQzkduW9RU10Iazoa0C4yReGPRSfEkIwgl03r27raGdSAsFOUuOqwS/ST5CZ8KnXDx8HUFOQ3WW6OovjyMuXOTiIdG0AmPoC6UBr7tnfigzf34Sev7cCWda36YIVdsqKysDkWj8xwhaPIFWFKbSSAcZlNnr9yS2Yd3FOKL8iRqIYmRbo4x5UMtpFPXHH+7XFlkYoNw5Xux8/e3Iu3Du+Ez2fecjd/BguRFyv7sXgSE9FJeL0+840RDZ0bJXOzZDBVyWQLuqEin1giioLzDII1nu5mg1Eac8WqYLFgKc2X9Nsawjj60mr85ud78W9//TreOrINa1oCcKeGkRzvQz45gUI2KSO4nOGRwysaD8qgNf56rs6o9NL1o5z5NS8B0jnvc+QzyKTEcMRlRjTRhxp/Aod2d+A3Hx7Dv/ub49L5t6GztU6/dqfpp0mXvXpR5Mn0HZ7lIfYURw9vwM5taxCLjSKXyzh0WNm0KJerqeDMIwtXLonU5CC2rm/HG0dfQSTk0/fTFpMq97of4LtTZzAmRuRx8l2290AeDI3hxs3b2LJxAzpantZ7IHPDiqt15ZitztM7vL22vrOlrWBulNOP53bkw3Nu9VEd8YtirsWGtY1Yv6YFNVVBFDIJGVnFEI1yR4GUPi1nd3vlFjVcVzcKzC5z8SY3jzM5hlknpYqjbPP5/Hwmpe8EpRNjSMpI0VNIYFVzGC9vaRODtgNvv7Yd+7atRltztW5Nw+T8MX+mDY8G6zt7jOcZ2jKlhfBGaBsMe1Hw1uHGrS6MTSQQ4PbquoZhaPUiQKlB2eQdIC5dRfsRdk/ib392DAd2r1V55/0hQzeHhjyqYM0fpieY9D/cuI3LV37Exg0bUFcTKeY5F5bUgJhKSCPlZHgijqGhQWzesA4tDbUa8jyAbbBuOsoVjL0uP5ZjpvQVPD4sHafTkyTnshbf5O9sqsaGVfVYvaoZqzrbUVMd0ncuCrmUKPioGJNJMS5iUGSEm5cZA/J29wB2WJlJ0LJw9Cd+BZm56DeteZS4mobvb6TjSCWiyCTHkU+Nwu+Oo70pgF2bW/HqK5v1JdE3Dq7FS5vb0dEc0b3XaPRYb5UZ53xuzC/W84hyGpAmnI/xv6E+jGTKg6tXb+q26IFgWGJwWZBPZq1cehhQNqhT2OIcsolRIDWANw9uwa9+8gpqwj5nSFGSIZWnBdCFKawRuX6/B91dD7B9+1Y0PMZehUv6FBZhMx+OJtHbP4C2liY01ZjvB1dQwWKieCNbe5hLt+TmJx2GZSTLDwf1DaXQOzCCwZFxDAyPY2R0ErFkBtkcb+RSgXGk69HzHI2HZsUZtIy0POyw3MTbfKCMG7HyO9itTbVobQjL7KIWqzvr0SnGorG6CqGAV5yksx1A8qjI/OwgqcSU04zj/mAK//v//Tm+PX8bVY3r4PFHdBmcS49ubnA6D7VVHuNZpv3UekpNxYP3P/KpEaTGb+GVbc3493/7HnZubNRZs5FKA7brSYwqac2BzZ9OnMG5s2fw13/1S2zsbNX82SPmotySGxCCJfAZ/bwMJygA9qmTuSpXQQULgQq0TvHNBa8zeTEo6QImk2mMTSYxMhbD6Lg4GdhEowlEJ+P6vQh+ACibySGZTukb4x6fR28qBnxeXX6qlcFPbSSMUIi7DETQ1FAtU35ucxNQP35JkHc3TJ+WH6kHT1f+yHlxQF5xlZEbC5y6NIj/4//9Pa73JFFVvwYub0Qf+dWHFEz0FQZzT8wts+BCPo3owDVs6fDif/u793Bgz3rd2sdQyIHI1JNIlap+J4+zP9zUraaOvXYE7Y3cFZl1YVkqveJmxvIYEHEUChoQN0dvTn2erPkVVDA7OE6j7HGERagciszx44J8mCMr8pjJ5pFOZxBPZ+WcX5bjO0sSlpUZiBgQfoyIu7TyiS6/GJBqvw9+cdzqn7uWemU0xDVpzZ3/02Vb/HRxpmJA5gXyiCC14qkCPjt9C//xX75B92AO4doO4UdYaCyjc41oY68AcKAh8sbZbSETR2y8D42BCfwvv34D7x7dLrNZsR6UIUddL4Y86ZIgZ3NyPiYDqIloDI0N9QhLWVzOZQnmA1+2Bz2MpV/CktzZ1oGRcdy/34W1a1ajuYEfyDFCUkEFS4Op03yC13RcqLJhFjbMBmivmCagHPjQq+htu454cLxWwrTEEq9iQOYHh6JCPUPDsUQOn5y6j//0379E72gB1Y2rZCYS0nsj5HCJqjyzqUvQJR8JejjkWQErx2VSmbm6OXpJICHGoyaYwa/e2auOX6O0bTXqmkq91PLHhkMTlsuXNHnJpSwXrTLz5XsnNCAaj73l0Qbk0SGLBtaCH7Yfx5nzFzEyNq7XT9D8CiqYB8wcwMiZObN/JZ+SY0fgCgGPes4OLbJLx8eF9al7dl52Osfx3GRXKsu4adcV4zFvlChlFFsk6MEb+9fgl+8dRn0VMDE6iHQqRaIq+fmjNNaLqSjmRTZZVj1T0JpLU8weaXzcfGK4CzX+JH713gG8+/ou1FY5G0tK+xbFeJTDycchoy4PskpGeulPj9mx5AbEjhGS6RyGxyeQyvI2WQUVLAcoe0b+LKZePQz2KeNMR7WddaZOq6O3uftYBY8JUtqSlbO+xioP3ju6Ab/64ChaG4KIjg0ilYjJiJ38kUjKhBIjimdywuAi50pRniq0Tlwa4nqnOLYxl4khPt6Lpgjw83cO4IPXd6Ctng8bTTUcM8nhguDQggcagXvdPfj21Gl9mVBKkT8+rm4en54NS25ALLIyPeJ6M48VVPA8wnbg6a6CxYelKo/UGI21PlGqG/APHx3BplURxMe6kE2OyeyQSz/kgzNDdNLYY/l5+XGpwBqUO2L6NevA7QBZb850+Q0hbnOztsmN3/zyGD58cxea6wIaZme7Rs4Wofa2Eg5srt29/Thz7gLGozG9NtHmLnPJDYgtnk9eBfx+OS6bzaqgggqeY5SrLmqNlloP3nylDf/w4QHs2RhBdrILk2M9yOeS02YjU2Hz0ePDwYsKliE1Kf6VrpwwGgNx3BzRk48hHe1BauwWtnX68fcfHsI7RzajuT4ocZz48rMkg5RpWebyLqQzOX24hCRyFgb1bDYsvQFxKtrZ0oQ3jh5C2zO+D9bzAcPi6TDr8s7FE8KWMN09yreCCpYCVo1RUXlEvuuCwNGXWvDv/+YY3jm6A2FfXIxIL1LJcd1Gxn7XnGJZklD7K3+OPloc2BKIsoydpSlTGI9GHXOpijMPbrCZToxgcvQuqrxjOH5gHf7+r17Ha/s2oj7iZQbSBubLtnApiakXCcyKzqm2zZk7NBTUmaevjMljtPI2PgwxhtQ6Sw++rJXJZuDzevURyAqeBJZlwmQ5NUx26aONdoJHn6z8ZDJAOisuQ/pndYCm22Rnc6WXsiShRx9J9cDvdwmPRNA9ZtZIcaYo6Q02yZUP/aloqVBbMavg6cJIgOGU/V15YButo0z3DU/iqwu9+Ozri7jXNyryHkIw0gyPLyyR2B9Ezh3lbeTVpF082NyYN51Tln7gzJRnnm+S2Yb0Na8rj1wqqlv6F7ITaG304e3XXsZrr6yXAXY9Qj6bivnYPJcWbAFL+erMZVy+eAE/e/8drGlv5a5uarRLNZi5LstmQCpYJFiOl5/KCc/T4iaTwPhkCmPjcYxHE/q29fhEQl+eiyVSSPN9h3Ra94YyRsMrxsKLYCAgzof6+jDqa0KIVPlRVx2W6XRE95UKh1wI6jcrWCBhnpKxlzOLVwVLA1KeINWt8eDZcqmdpwuqZGotDvDHYnlcuT2Ab07/iO8v3MFIlKOeGhkIheDxy3TF7RUjYmTV0G0xqVPOB/4KB9TL3Hw2swixdDLjyGVTui2JOzWGhhoPXtq5Hof2bcXure1oqg1qWp2pSFZLzUVLBaUhPeSib2QcY6OjWNXRgkgoJDSmAeGfA43ooKxqS25AbGUn4lRqUdTX1UgF/UtInpUKh5LCLk4yKWh8u58f4hmdyKJ/cBy9IxO43zOMnr4RjIzxu+0pJCRCVqYi6Rx31uEWEC4RZn6G17zUyekxt03gTIQC7/eI8xZkFlJAlQyJaEBaG2qwprMR61c1o7EhgvragI6WKFwUNPYTTs+LkmWZXsEiw3ZVS2BD5JIJMapnpYPtNQsthgKcjQyI7J+/OYKvT97AjbsjGJUBVM4dhC9UDX+wSgTUrzN0ukdhOu2mRp2ekLFLdOe5yyU9TLw8+kC4nHBn5gxnHKPSWROoDeawfUMzjh7YiZ1bO/WN74DM+I3hMHmVODi9NosHlqQ1puqXE50jySlXItzOIJFPYdEMMrIOGk31DHjtYMkNiC6rSIE/3OnFd9+fxmtHDmDL2jYNK6tHBbOAHYZsonBR4XOmMTiawf3eEXT3j+L67X7pNH0y+kprZxL7IAaCb65yl1mvODl3+2Qw5tNzCgqFguvFetPMeSOVopTPpsXgpKQkmcTmMiJEOQREqMK+AloaIzJCiWDDmiZsXNuMdavaUFsTAF9zYt20jiptFSwdpndXO7p+zP7ERI9KMGeGCypxEVEyIIQ9k/ESugZGcfVeDKfP38CVmz0ycBWZdoekK4RE/oNiRwIi69IfKPeSpsBtQ2xzCJvZ9CbOGEnOeCqOXHCLAeE2B4WMDNrSCeTFaHgQQ124gE1rWnQ7kt2bW9DR0ohQyKvGxtZB792YHJe8H7FM5q6qX050Ruc4M+MgdZ1HeOeoy7IZkFM/3sW//vET/OL9d7Bv+7piIyqYHUXmCJsyQrChkRxuPxjEKZmuX772ANF4BtFkTmYibukoAekkAXhoLGg4OKuQzsJZh1Kb1/JnWc6Xl/TmmfzpdgUShbvPUqDZIWhodKdaMSTIJeU8CZ8rhqpADs0NIWzZuAY7tq7GtnWr0d4cgN0n1NZa5bMofDasgsWBoXGJpqVroxisQpoeTzCFFeXh5QHWfyaUpynLdxnxcO2MQeCeypNiSHqHx2VQFcW16724da8PfYMTmEhkkYH0EZ846Rdejx9enwx/aFBE/k1PMNCvAQodSy21bRUf+dcZt/STXCGrHzDjwKuQjesuzx7xqw770NpcLTP3BuzduQ6bVlejo7FG/bVjMC8WwTO5floDL5ZPNzg2gdGxUXS2tiISCogfTYiNYfFwHZfBgNAyu3Dy8k384WMxIB+8h307NjihFTwSZIvQjczhCGFwLIOL1+/j3OV7+PFmL/pHUkjl/fD4QvDIyApev/QBqnAqEGZgmW32uqE/wV/LcDUmZVcGxofCQ5/iiIRTbBqSbEz6jXSUXFy8U6ivDmDHxk4cfGmdTM/bsLqtVtPJuE8NEJfHZuocFLun1WlWDsipchoaXupH22SwwIWUBUOUo8qCZq+LGXpdcvQpd08HpsWEkVs61pxDoLQYkvHxOHpGorjTNY6rN7tk8DWG4YkUklzazXEm4xWjI4Mst8wIPDLo8spR5NLLp0i0XZKvzViJkZNukBXyGMPhdskAS/yCXqA6UJD+4Meqtnps3bQWmzY0oKk2hOb6GoQD3OfZQGWfeTtks20op+Li9o8ZS9BfM9cAvjl3BZcuX8RP33sHq1ubNNTE1oYXr6bmIVdLbUAsIc5duaEG5Kfvv4u92zc5oRVMAVkh/NEZg8OnEdHTV67fw3fnb+HsD/dF+DPIIgiPv1pmG2EVei5VGSbyHkfJJBgYI1TM8DHhLM0qD/UJrAIfleQ9lDSSiRjymQSCrgwaIm7sWF+P1w9vx85t61FXzZGWSccalEo3Z4vbQV4MWL5Op5rleZGeKkfczQi6pX0sUUAylUZGFF8uJwowl0c2m6WNEWc2heQGkX6fF+GwX7eh95bxTL99x3tmclA/FQobOv34dMAaWck3v2bOQOWYEULEEzmMTkTRO5HEg/4M+vtHMSizFG7rPx5NIp7OIJEWo8IZudCPG7/anGg4zFvZQhcPN9X06Et+/B5/fU0V6mojWNXagDXtDWhv8aKxOih+1YhU+fSxXWZjeyH54njJDwMM3cwvvZaqX7DE8nxNO7kxJWn0yTfncer09/g3H32IjavbTRQF6WBh05fyWXIDYtHV04/zFy/hpT27saaj1fGtgCgKEx17tYDjmltdMXx15ipOnLyCvlFR2JDZhi8sHT4sNsMns7tyhpYLx1Qwf6sOHh1rNti0PFKdSI5UIhyl8kNMnMKnJuHJjaC9yYtDL2/G0YO7sGV9E8SMUFS1bewXJo+F1eJFB+lo6DcNJC+PEjQpBmNkNImh0UmMjicwLMcRGYWPTcZEiSZlVJ5FOp0TAyIDAdFuPj6JJ4ajKhzUb7Q3iDJsqAuhsSaMxvoI6uqqUVstBob8c8qYGU+Xp9r+siNrQ3ppl5ILqkFOzLISkpSZSSqRQjyZxng8iWgsKy4jxmQUk7G4PmSSSCTkmNUlXo/MRrw+btXv0ScV62r5IJDQqi6MGplxVIX8qA4FEQkHEOA3YJzytXDWSI2GGHSHRKZuU0E/J3iZQNoIVXifVK7+8s05fH/yO/zNX/0Sm9d02CgCxpmpZsZv2QxISoZC/LxoVVWVjnQqo08DEp+U0Jt5csbp85DMOs7+cBefnriKH24+QDQpo4RgHTyBGqGb0E7+tHNoDoSlpaOey1hqbczCmVzKuyxX/dWyxHFm4mH9MxPIJocQdCeweUMr3nn9JRzYvQmNVYxlBNbwXZxkUZGBR2MqrcvNhuG7uTY8mUgDD3qjMrIeRI+MrO/1jKJ/SAzImCjJhMw8RB7SjCjCwNltoWCeujMKhNlwqVF46MrpuwoBMSz1NQF9aKJdRtbrVzWhs7UeHeIaanz6bpAB1TKhmeiZrV2pvssDbZ45nQKqN72fIZB5s/w6fcSpIZ8+yoq3PqmYSuksjWk4U+OTinIhcsp7iaSZ9E85crbmE6Pi9/OdNslLsmJuTFfectMPxUkEu+stnY1Rijn1fKlBHpnyeGZmVl+fvoQzZ0/jlz//AOs6zENORGnLd5vGwlwtqQGxGU8njr0v8iKiXICKAiU//PYE1yMfDGbwuy/O4cvvrmJoQgJktuENRmT04pc4PolhZig2tcNG/bXWwojqVEzxmUb6h2NPh0kwNZ7NxNSBoy4+sVXIJ2U2EkU6PiIKyI9jB7fi/aPbsLGzXuNakeXIzrxlyzwqmA7DXXsm1JaD8eMgo6Aj6f7hFG7e7cP1+8P48WYfuvuHEUtkkMl5RBSC0s98ovCEM6LlVHXq7JY0N44gP6gkzad7JVcec3xwwtwM9nlyCPldaGkIYdP6Nmzb2Ir1q1uxpqMBYY+mNhUjVEkaeVhOE2KLN/Qpwdag1GNMfafXzfiV4i8U1KQPybPjaetlyyrHk5b7JLD1utczgL7eXmzfsllmnHwRUzxZsSmNsrEJ47fkBsTWI5nJy2gogWDQj7BY8KdJtKeJcmIrfYT8NKY8v9KVxG//ch5fnryKyZQX/qoGeP0h7fj6tFSBwx12B9tRTW5Ky7KMy2lrz6eXa1FcBXtCmGyM8uB4JZuOyYhuHCFvHEd3teKjnxzEzg3NEsI4UnOuMUu7OaqrYGYYdWcGXOQ7Oc8R80AMuPBjD87/cB8/XuvC0HgaCTEa8PBBCt4M5qOqPOdj3ByYGD5rbnJiKC6/5l91BGcjZIVXflxynk2n5WgMCm8WuwpiUFwZUS5erBbj8cru9Xh5+zqsagsi5Gho5s86uyVDa6CWA6ZcA3sk2Lby2ThRmfVOhaVdWmZe+WxW9yvkx9PUkyzksUiycloazyU3IBRejk7v9Azj8pUfsXvnVqxrb2bwCwnSxBJcR4WOu3BtEP/fx+dx+koPUoUq+MO1wkC+tyGhjKCanibDOONpfGyO6mMzF5gYJZQFaeCU60WEKZe1zCEVG4Y//QCv7GzDRx8cwa6tqxFUwaRBlLgSudKpZ4HQKC9GgGp/PE7DcQ9nbgzg1KUuDAwnkc154fVVySxVRo0e84go53jKBUlHw2ANCKHmYwrjJW8JNKm4O6zxy+fN9hs649U8c8ikksjwUdVcAk3Vbn0pbv/2FhzasxmdzWGJwagFcw9gGXlqmzP9qH1DZ7qmLqwbzyvyNhXshxSLIlVKBDTnDwUQxnPpDYj8UCjP/ngXH3/yCd5/9y28vO3FfYzXEpt0YafmflWXrg7gP/7T57h0axiuUAs8wToZPfImuRF4dl8yTM+1sxc56pzZXA3Ub6pXCRL4qKDFQrF8dtZ8CrlYD9zZYWxdV68fyjl2YDv8opdIg0dNQMrF8kXs8Np6pSGQEAtw70EcX3x7ASdO/4jBSfrxCbwqBHxy9PqFkB6dneR5X0OZLM6lpkOzeVhmSjDX9tfEVq2idDfOhOaRy2XFgKRFcKNwZ8ZRF8xi7/ZVePPITmyXGUlNUKJJUs5Cl5NvTq2nQEufpt4qxmNmjI5PYFxcS3MzwnwMjxDSkXolkpXT0nhyqLKksEVSuFPcLrjI0PLKvBhgi41QG6bw/MKVXvyn332PczeG4Ao3wReu05mHeYucNzqZwOnW8mPyMOrAsFAjTIHGtRHKHP3KY2u8MrdYYO34eKDW18WluBa4Qx36hvB/+90JnLxwS0erKpjTOngR0+r6IoHtJn2ImJx8deoe/s9/OoF/+ewHdI1ImLdBZqiN8Aer4aLxoLrWJU7eRbPsJhfMmfmz/iWUX9PM8I8mh7nod8flaK7pL078XF6fiCe3CKmXwU4bxtI1+OL0ffxfrN+fz6B3hO9GmFIfxdqlwvT2ETQY5a6CmXH3fjdOfPedGhIF++48+LfkBoSCTPDFG31bU6bGBmRmqYbLLGtPBSq+Dld4fvH6MP7L//wK56/3wVPdAV9VE3KicM0SBGkisVTojTNmw4L5zE41G2O2mOVhj4qzMEhuWm1Rbp4gvKEmeEThXL8fxX/+H1/gwrU+E43tc2gyVWCN5CxunZ4HmBkDSTeUAH7/6WX8h3/6Et9e7OamGAjUdMIT4Aw1IEqesw6XzGIL6kg/QzP5I1n13LiZMD28/NrMXaZec0ZsyqBx8cHlr4Gvuk0MSQdu96bxz/96Gv/5nz/HtdsDWr6KLhMQzmGpwKLoiPLzCh6NcpZMTMbxoG8AiTQ3ShLMk4hLbkCMFAENNVXYvmkD6qur9Lq8+kssW88UuATF58Fv9iTxX377Lc7+2At3oAGBqgYZdYrxcLaC5k1zje9w0vzNi6fPAFh34/jLpnAjRz6K7I104Ifb42JEvsKlmz2qmNioGVdS6e+cvghQxS+NZpvv9CXx//zP70RGvkf3UFYGF80y62gAxBhzJmAfC6Us6exALoyfNbzmby5YmXocx3slNCIcCmZkwEO++oWvk9lafPLVNfyH//opvjn1I9J2mqmzIzlfBkyvawWzw7IlT1PgbH/0OFhyA0ImspKdrY04fvQQ2lsay8TasPhFYTbbzQ7/YAT4p4/P4+QPvXBVtYtOqJc+xmUI6ZhiYFSZOoZ3qVFO+6Up0SyL8Itn3DbCx5lIZBXOXBvGf/3DSdwdjEsMCeOQVc7Y9qJz0q90sIWcQaSFDtS5t/py+M//egZ/+Oo6hhMhBGs74QtUC4M8xlDY6YXEt8MKXaIpXTnHOZzkMcXNFGeaUx7x5rw6DgxcakRynjD8MhvJBTqEt+P4j//8Hb49d9+8f0JZNokreIZQzpJsLodMJg239kOD+bDM848C53zJwIrwjdeqqhD8Xuc1JPE0Yl6Cypo5XXFg2+gmxf2Pj6/gD5+dR9ZbjWB1oyhWnygFseWiRLT9jvHg71LSw+a/tOWw1QJbgChBPmaak/Z2d3fB4y5g25a1CPDRHRFeKkJDKyMN/FvJ7wxZueB7Hdws8zaNh8xMP/v+OjI+juybUBB6OVQUWG6V3Fzr++WxCT2XDM1ctyzMRpgFWl/HeFijY3PgkprPH9JZ0uDwGHp6B1FdXY22tjr4KN5OzAqeDViZIk9SGZnlio7etG4twqHgFGbNLFrGc8lnIBYqeBQyFswaibJ8YeA0NSXuuwt9+OPnZxDP+BCoqhdacLMPYzw04hRm8cK65xVT28CXezkT8YfrRWlG8MU3F3H6wi3duoViYZxRiDQcK9N4GF6bP9JDrqSZd7ms+S9f44vvryDtksFWuFaMh3kaz8QkSA/rCEduis6iFM/2OzM8KfXBcn+7/FWezrjpED8aejr9o09evFjDvMywxS9QBW+kBdfvj+O//I9v8O3Zu0jJ1Epzo5wXq1le3wqeFihf61a149ihA6itiagf5XE+3FlyA0KxouD0D47i1JnzGBwZM0KnisERJsepgK0k2LYJ2Lbe0YLOPHqHYzLzaABf9ir/WprVlUof5/f5h20H2+lWBcMnfGg4w9XNGJ904ePPTqKrd7zYXBNb30CwXisUxixw8jWeAD7+9Cy+PnUFOXcVQjIz5aw0z8cXaUDUlWg5u5sbRaNh3UN5zJyPCZn6Z/zzIr/O01py7fZH4K9uwZ2eKP7770/gxr1Rjaf2gz+KmcuoYHlQpL7wPxTw68f+PB63SqX506BZsfQzEEdWhsRwnDp7AcNyNJCaaYdwsBJliW1yHJ9t+PL767h49YG+Yc7Pbarx0M5kOp8yTJxBOUFsh1sJMAqLbff4RMmEm4UmPfjzl6f1Y1gKaW5561cejFCYd3qAhPx8/u1NfH7iEvLuGgQjTTq44Le1daQv9NI3u+mKZvVRbjExc57lviWZLckoBwl5txfeYC18kWb8cHMQv/34WwyMJrUtXPsqGZEKngUk0xlEE0m9R1vk7jx4tPQGxAFvEnL3S+7BXwTrad0KBFtq3fV74/j8m0uYTHHk3aDfH9BRoITZ5pvRnHXlqVcWtHWiDPnUmctfhwxq8KUoT36vQVHe9JXX/CJoSDNyPH9DRun/+h1GYh6EIi1wefg2HjfNdIPfUzHddLrhmAvTiVjuCHucDeXxZ4aR4FIclWm5LLjdyLL+QRnVVrXim3M38McvTiKaSqsRMUteFTxtWGm6efc+vvj6G4yPRx0/O7ecHUtvQJxaZLmnDtdIXyCxsQyIpoDPvrmCO13DoiAa9eUvsxxh8DBFrM/KpRUVjfmQT1BG3K3oHkzhz5+fQiwpbXZIY0apK4sGRc46zewe4kMV53G3L4Fwbaf0yDDyeemWGrG8/fZ8vm422PDpaaa7+cDKMU2JOafqUSMix6zwmA8CTGRC+OOXF3Huyn19YMDE0Ye4K3hqMDwm1/oHR3Dphx8xPhFTP8JydjYsvQFxwK2PQyE/d1xQPI6IPpdwGkcmXLsfw/cX7orCDCIUrjKdS5XjbFjR1BFI+4Q4eb5x768GAvX6wazrd/qLkmtGqc87HVj/qW3QK2njZJbbaN/FyYv3RMm2wSOjdW5to61W5WrSGtVsnHlHfTY3X6Vs8p7bzQdkmGGaPeMmhkzNFx1zrgD81R14MOrB7/9yDgOjGYkjsbQPzLeMChYXU+ludr3QO1mODzE3f5bcgOhIQ46drS14+41j6GjjjqwG5VVdqUiK+/rMbdztnUSgqlan7/qdAYcKZiz24kGlQhSIvmQoRiRY3YT+8TS+OnkRSd4wEqKY9fKVQh3y2/CcbaYEXLsXw58+P4tkzodgVY2Emr6i7dYY1pl0U/0e5Wzc5UQZj6R4sftlPrwp69YvaHqCjToD+fLkZaeddqZVwdMG+cVdeMv3ppvP4G1ZZiCsRl1VGNvWr0NdxDwmVlbPlQdpMFeo2J3v9Bdw9sodpBGCn9/1kDDdnrsClQvSgjfU/aFq5NwhnPvhJu71DCudjHF93iXFGAXr+MsWxWT2ceLkDdzpHhLjUQeXh9/s0LmHxjJGxKCUnn7zcU8Dpuzin/DU7PJr6s09ev3hGmm3B198cx4PBuNT2ljB00VNJCyD+1bdzr2EufmzbAaENwzdfInwRRAaaaLujCqnl270oqtvTJREvVDb3PvgX4k5pA7xAtBlChwaaLOFIm4ffIFa9A/HcP6H68hYsqwgWL6zC3T1ZXHq3HW4vFXw+c2Lgs7G64wqcOjj4HHIwbjlrhyPk8/CMbXuLFXvfXr8YkQacLdrBKfOXjUrWKoPjNlU81kZXC07SPENa1bjtSOHUFdTbTwV0/n4MJbcgKiMiBudiOHqjTuYmEw8VCUjPCsHbAsfh4vJyaUfbiEaSyIUrpbOQXJbplgqlFOj/PxFgRmlcisXf6gWiYwHZy5dx2TKSMTzLxeldtj5RSIHnL5wGw8GxhGUUbl+MGwOxTk/yZgey5Rq60AsvYSxBDqjWsyVlM9/4XGVDKSSaTe+O3Vev9dO2KW7p7UA92KiJAkUvbraKqzubEM44DM80J+5pWXpZyBSOxbSPzCCr785jcFB80LRioQqAbOuT9zvz+DmnR4ZZPng9XCjRAlQI1JuSIi5GTU7njT90wXJkheL6/GH4Q3V4e6DIXT3GTl5vltWAtthlqCkL4zl8N35H5F1+eHjh6AEvOlc/vW80iyVZ6U/6zezI0w8I4kW5eGPRin+wmHLNXmV6kTH2bfHG9KHBW53DeDitdu6A0EJi1GDCuYPwx9OArlJOr8SSh2l3JKfhxeLNMRxBktvQJyy4skUhkZGS9sFl2FqlZ5vsAtw9sHR1N3uCYyMpRAIRCTATM/NGLS8tbb1C6VAefqF5vF0wVqbN/L5rYlqjMX5XHqf0nBlQFqoS5fmOakbd4dx894gvCIXbg/3QbPcM2Nx5eKUpc6p53M7/pauTa4GJnRmmDQGRlIXoNCL73c4aaUdPDUrVXyslxtq1iMqs5Czl24hLurA1NK6BZRZwROBdO/tH8D5i5cwMVl6jHc+WHoD4oDru9lCFtm8GXOsRDExbTJdICna75YowVgqj2C42nnyarFR3vWWjZVLAtKMGyy6vGEk0x7cuNUNZxXrOZcVo5atkUiIwjwvijORcsMnMy5nvMeIS4Dpec9WTimsRO/HV+cmvjEiU9KSAJIflyrd/ipkCkFcv9OHoVE+p+iUbqJU8BTwoLcfZ85fwEQ06vjMD8umdbweF0JBLuU4EqICtcIgTWPXYQsTGaCvfwSpjIyrddsSaW+xlywcTK05yJCOT7FY96T5zhdLVwqViwikNyBHP7p7BmXW6gQ951CeOWI/NlnAtZvd0iHMp2iXphuUyYZbjLKLTs4lhOWZMq3cWCe/EmDmK3qlvwuBtnW6kx/+camSX9zkY719Q3HcvT9YlCmtoSVUBcuAkvBxKxPOPrJlA12GzvVQw5IbEAoFq9DaWI/D+19Gc0O98VfhXVlgi6wBiclMcGRsUq48cEsnLo00n6TdTgfnTC4dRzIRRSI2hlRSyinkJISYrRwVCXM6JZ5RGzOnL09D3/Iwovx8gZAsqDfUgHAPKFcAw6MxxOJTV8ifZ9huOTgWR8/AGNyeoLTVeatWUZKQMnI/NpieX/9Mi0ykEhPiosjIeS6TVH87N8hnM8hlhb5alpYqB8qWLdzWxjiTav5VK4+vTrJhC83ncr3wBGsxHvfg2q0eDVfoiVOXCpYV3GIqmxMpnUb+Im8egWWZgVBoWxrqsG/3DjTV1Rq/OSzb8wozzgKGhhMyHYzD63yzWjmjPWlh7bYd340MPPkEqgM5dDYFsaatCo3VUmaBG9XZWKyBNQpTnUR6yJVq9HA85qi58lJK59fo9E/CSiNb+WMUE22esKWaOhevmacvKLOPnNDQ+T7zCgDpwvsfbFM0npZBOB/dpVyw3UrxWWGp9UiQXwL2K687i+ZaF9a0+LC62S8ugKaIDGUKCeERNxJJoSqYR1WA/JOyJamphTgnH/7aOpmy7ZW9fnyYyQWfOJN2ywwsVQjg/oMhffveYKE5V/CkCIdDqK+rg9dTPqgp5/rMWBYDQgS8XlSHw/B7TQVX4gyEoIIlUQeHRhEVA+LzlRmQolsYXC4ZIeQSqIu4cPzwTnz0wUv46P2X8O7rL6OtsUpGlSlHIfBpCn4rjmmY0jEC9JFDQaapOmMRRw9jBOxRfLhvWT5j8ij6SQ40ftxigyPZnIQxS3X8cVB2OjcejsylPo8YXS79DQzanZtXAISInIXwacSskF3lQmj7WOSaBcofOWZkZlFX7cOv3t+Pv//lPnz0k73465/vwUfvvYzt61vgFiMScKdxaN9mvH50l/RJLqOVyYE48x0WIzsqT5rzk9W0PLUaTn7KgDPN8RgmJs38zMR5snIqeBywZxtsXr8Gbx4/irra2hIHRKYoD+Z0Zr4siwGhCppMJNE7MIik7lOxckEy08USKaQzWV2mMIq31EEfF8xP0/FZO5l97Nm5Dgf3t2NidAJ9PSOojdShuaEZeX6SUsI9uQmEvHIsjMOVHYNXlIbXlRPlkYYrM4kAYgh74vDLMZ+elPlrUsKyon0mJS7TxhD0JMQvJmGSD7fEkxmOOz8p+Y1rWEicKyvhOe6uaur5xGA+0lgu+fGb8LFY3PiTAM8xbPX5edfegSFnGYd7D9F3kYjHvCTDXC6DxrqQzPYb0FRbhdGhAcTGx7FjYwN++s5WdDRVw+8uoKE6jJamevj8XkmXkcGAyGtyAqnkKJKJISTjQ3I9joIdlJhSngimuc6Mk1+mlFkY+8nImHnyZ6H9o4InA/VTQ10EG9etQTjEmbHDo3lgyQ0IK0eR6HrQj48/+QLdfQMmYAWinOg0lFxX9MiUkJ1C+/e82fIwONp3ycyBn35dt7oN/oAX5y/ewGdfnsOfP/0WvX0j3NsWdVXAK7vX4O3XduPgS6txYPcqbF3fiJA7A18hjs1r6vHa/k146/B2Pa5rr1Hj4MrGUR3MYu+ODrwhYW/IDGfvjrWoCYmIpKNobwphr+S1bVMjXpfw1yV809pmrc9i7qpKChkDkkc84RiQFaJTUhl+F2cULq9P2sT7YuV4uJFzSQvDbRzqXcoZcw363AjKBKdvYAJff38JH//5a5w5c04URBV279gkRj+LKz9cww+XryMRj8ukMgOvDBKa6gJY21GLNR3VWNUWwer2OlRXSUYSX/X6E/PBqbHIi0umOG6PVz/xMO48+VMxHssPcoQDGvLD5/U6nw8QfeUMeDVO2fl0LMMMxBQci6fUeERFYFcibEe2SKXFgGRlBsI1xTJG0D0umJrGh0zk+nFXd5+MNIF9L+/B2jUdmIyOYnykH9Uh4NA+MQxHNqGzvQm7tm/Ch+9vweF9mxF0x7C2sxbvvbMDu3auRXtbsxiEtTIq3YnORp/OWF47vAfHX9usb6SuX9OOt1/fgFdf2SYzmijWrarBhz/diEMHdmJVZxP27GrHT97aLHk2yCg1KRV0jMjMcjZPmMQ0IDmZbSUSCb1eKeBDAnGZibu4A7F2VAPO0E3bHUd54eksMIMR4/hL2eBMQUhnlp/EM512i3LOoLd/CLdv3Vb/Zpl1uF15dHS0YN36Ni2Hs9OdWzrx03f34Z03XsIvP9iHf/ib/Xj/nV26+Wk2KzMUq0DmqNdsYFKtMWch7AdCg7T0kSQtawVPBeQHGTMwOo5rd+4JL2TGSS/5UV4xfBYsvQGxAidHCvAyWKynCNtYGbSJhs9zyUnALm4YxaUL9VoQuHacKwRw8cpdnD9/T0aUzfjVz3bjvTf2oiGSR3NDALt3tWFkNInf//EzfH/ygnT+EGrDHvhdcezbuwXVtdX45tRl/P7PJ3Dh8k2sF8OwbV0NVrcEcGB/Ox70JfCnv3yHTz87gehYCvv3tKFWZjVhXwGNtUGMjIzjT598hlOnL6KltQob1zfrfRlwHZ3t03rOHyQHlR1h0+oXC2UGkpWR70qAZTlJlBADwkZypEfDwQ0HNYY+piS9Q46WDg+jSCF1VMQW6kOlzNG9OLecesVQBLwutDbXY/v2rTIbBvr7+6W0NNataRbe1ch5HvXVfrx5dCM6WmrRfe8eYmNj2Li6DrXVNYjHYqWBD6u4gAEQYWlgjmyjnCmfC8hkjAHRfrLA/CtYGMgP6uSbd7vx6VcnMCyGxPCIfDC8eNTsg1gGfe5UgiNUUagr24DY1kI6q5kWqinXziJhEvhoVswOVTbscC4/hscz+OLbK/j405Po6xnFoZfbcXj/FnS21SJS5cW9+0O42zWIW3d60d8bg0sUsc+dlfBG9A1M4trtHnQPRHHjVi8yyQLWdtRgjcxOqsTQXLp8Hz39UXQ9GMKdu72oq/GisS6sy2OTE8BtETS+o3H9ZrfMKoGGuqDoLL6wUb6XbIkO80WJLmb6TLpx+W9lwCzjsll5GXHb9hVbPU9iTZUdJhJ6O0bE5Cbl0HgIL0i51cLXt944hA8//Al2792My1eTuHDpmiSjYSkgFOBpHrWRANa0hzD44C6++epzXDp7FhkZE6RTwOjoiJE7yc/o9qm1eBxMTenUWDLlYIuoGI/lRkl2JnkvamQC6Uz5oJdyOztPllyfU/ERTQ212C2joNopuz2uNBhi89fvD8Dn8+kVdcVsVnzekDy8Xg/CVdWIxsxurp989r0o8hy2bN0gBiCkhefzWWR5Q12K9EsdXC6vGDMPvD6P+HkkLIVUkttpyyhVRqhZ0Q45GQmyhlRAqcQkkhKu7ymIp84ExN/DAbJ09lQqqYIl2emuw2xv6eNPdE8AKY+KhMtYgSA/7fr8w04UaA/9Pr/S3SpLysVcolGiqHLInD4Skp+Td02NH61tLXAH6nD68ij+5x/PYWhYBhTS7VknzlJ4Xy0j/OSmVGs7WnBw7y6Zxe7U7Xi6Hwwglc7ATcYrd0s1WQyQBmy/l7t081pksGJEnhKUF3oogw4bzOkjsCwTAlahvaUJx149hDY5rlwRKXVu7qvPDRSzonAXo1Ow83Ituirswysvb8fx1/Zh7+6t2Lx1KzxBL4bGs7gjsw7ej9y7ezWOHtqJQ69sQ2enT8TAjVTWj/vdw1i7JoDXDu7C4Zc24LVDLyEnEvDD7WHc7p7QGcXRg5vxyp61ePXgTuzcsQr3HqQxOGJeVKytAfbt2aT3WY4e2Q/uA/igb1KUTVCcESWdKelx4eDyFRVLICBD5BUALslRAnh/IhgMKIWoLNlh1YDo36NpZv2nSpGTwlkTNWEsR5zkyXHkrfuj+O3HJ/DffvcN/vjlVdzvFz66A2I4aECYVgYQYtWCMtjhFnVcVtuydTtCNS349kw3zly8prLjkUFIqeyptVgo2HbmRePhd75BYYypaU8FSwsrL5baflcePhlRcKWB0EGGhs7Oj2UxIITP70NtXa0oVo7KVy5IbrIgEolox+D6Lt9tKI3eFtpBmEMeuWwSAXcG2ze241UxEtt3bMHN+1F8d+Ya7veM4sLFG/B7A2IAdmFVW70YHRcyUn66EMC3319G970J7NiyDscO70ZLYy2+O30f1++Oo3c4gxPfXEM46Je0O3BQjATfpv/y60uYiOdF8cjMRUapDbUhCduNVZ3tOHdhAD/efACXr0o6PkeRVuAW2kZJKWTKi9HlTKum2nx87HkGuW4dyRIMBWS2x2UsvotDz4XA0Ji0KlJazq3x4GeCOYOYiLnRN5xUNxrNymxRpkAyqOHNa/MJUxo1t75AFpLJXl//sAwYhkQe+nH19iCGxyYlDUsQNeGUVSzvicDK0uV1hmwHCmo8KgZkWWCpLFxQrOlsw4GXX0JdrbNCZPk+B8c9/yhwzpcMrEImm0eUQ1wRWK9MiVeymJApEym/fr5zcCyJYKRG+otp8ZOMsLgkxS0oxsdGMDo6huHhMZl19OP85Xt40D8uPPdgZGRUP5A/ODiBO3fvobmpWZSJVxR9L3r6TZrB4REMDAzj+s0uXLneixhXMApeDA6NYJhudBxdPUO4JPW/92BYeJfF5s3r0N7ehBMnLuNe1xDu3h/AhSvdGJpIweXhCJLt4pjl8dpXjC0nPPcIfZKTI6gJ5fCztw+io9EsYz1ers8WKA/6jJr0xys3BnD5eh/8VU1qJE3LSDWqf6dDz7uxJq09I3K5LNqbq3H4UJvw24sLVx/ILFj6nC9g6iAzn6Anhz0ye43UevH9qbsI+/PYt3c1AiE/0oigrr4Wq1fVIxxqxIjIWSKZER5z1+ASf+ddxSJM+wi21Y0s4tExtNb78P7xvWiodj53wPCKEVlWiEggEg6jraVZj7x3q7acOmsOViz5DIQiwTr0icL69uQZVVIvgng0NciMq0o67aK9aMdMuBwVxEhUFNHtEZy72o9LN4bQN5JW/7wrhLG4F1fvTODCtQHceTCJaJJd1ScKQEa+Ev5gKIMrN4dxXtJeuz+O8ThHrEGZYYQQTflwrSsq+Q7iwvUhdPXHJK20wc20QSRkBvJgKIvLN4YljxGpR07SmfVrqwCfBLouL5nwpn+V3yszJDsaMofnEaQJHTtaSE5WtbdIO4VueT4ayxgLg1HlRp3bbMgBzgTHJjO48GMW93pGxJfvnHgdA+bRQUZKBgt3e4Zx405cZpUp+AJenW3euz+IO7fv4P7tWwhKpm8fa8Xmte3IJGPCF5bFVixUZVBCTF3Nt0+y0jdS+iZ8fV1pBlIxHssLpbb8BP0+RKqq4JHBfXFmPA9WLLkBsb1/aHQCl69cx1jUvHX6HOuEWcBWGUVaG+ETSjVcj9Enb9gxTOjC2s482YULfOVLlHkqH0A8F0BajgW5hkuMiygGKvoUQkhIWDIf1BHo+ct3EE/ldQO/rMRP58NIF8LISLycyy9GwgNupV5w+9UvkQ9p2qyGiwLyhnC3ewRffvcAw5MuUUASnvVrfLc+77M4UN3BG/a5DJrr60SgnbznIcjPMpR30ivZmvbmRumsotCdBxM46i5f4HwiSF5urw8Dw3H88+/O4syFmzL7kFkdDQeDxXEmkc77cPLcNfzlszPI5LPYsGGdPpF15dJlnDv1Nc6d/Ar93XfRUudGU2013Hk+Fky5tm6hkJQyqtVBghhRVyGN5uYaRGitGKpGqoLlhMqEuGg8hb7BYaQy5qXR+crj0hsQZ+mGN1nT2bwosEXpKs8k2FLbAYIyMF/d0Qy/p+A88cSux7YvrAOalPwzXZjr3NwOwjhuUFeKpyNF8ecN0x+udePspTuIJXNwc/8lN2+IMo1Xj9xSQyVGtTfXxr3iGIcPg0o5Ylg8vrAakK+/vSYDgLRoJNE2HonH+FrqQiGpHflQurh4j4dbp6T1RUYZnCqerIxnC61N9WhuqEZed8flrW7hqTPkc1j4BDCzhGS6gAf9UYxMpKDbpyudTQweOCMdGk+jf3gSKbFjVB5chXxl/z4cf/0ojh8/ji1b16L7AdDTMwSfjzMElQYnh8eHkXrOMETKxGWSUVQF8ti0vgM+BjHOkxOggnmDxDYEJ/lv3n+AL7/5HqPjE3pNmNDZmbKkBoQVobpTyGgrm02jwJHXCgTbau5zGPKzU2xc16TvUSTjwhS5pjNGYGHQp3lM9kUmE8yP/gynf8l5kcnRcemL418TQDVAg2PrwaNZOpD8i56mLO34YlSYRzonMxVJrFEYxjyKbaZbCKxqEXMmBiSbHhfjm8DG9U3wL8P8eDlQTp3GWq9uF4LspDSdO+NKiMNXS/oFQ7Pij4xeaOQ5SNBrJ1wYxj8OPrhkWfBExJgEcfHaA3x1ehAZTzPa1uxEffs2PBgJ4ZOv7+NOzwjcfu6PpFLDTDSrx4FJYcqmseTyVS45ivpQBts2tC2tEqrg0SAv5EA3NDYhg8QHiKcyyi86+hf1wSOw5Lyzsss9ddauakOEc+UVClWozjnbvXl9BG1NVcik4jpWLyf2HHyZE5bxFpoff6wmEsf6uMRw8H0O89RNXgyHCI0mLqUuz4cJqcyN3jEGqcA3pCU99y6ih6MKiirF5GBzcQqfF7SCGtuUlBFaTaCh1oMN65qLOa4E8B4CUVMF7NmxTmQhiVwmJW2XP6UBqf5kYAmWt5ofL3S9yAlTZ3irmznS0LiD6B9J4ZMTN/Avn5zDn7+6gr+cuIp//fwyLohhSeTF2PAGuqQ19WMuCwPbygkv7/8gF8Pa9gjWtDufd2CYfWGmgqWHdroSL/lCaSbDVw5KskLMxe2lNyAqzEBHawvePPYqWluajL/+rjRM7WKt1aII164SIhdkZM2b6aImHaYtV/t1ecRUSzFfNcX6PVRH5mVOnOOTgvmIk4JIlnSSy1cZbNnYgY42cwN9sUp6VsCXL3ft2IiGuiqkUgkx6PY+iGCRZeNh2tHHziLESbkytNBlrtGJJLr7x3CvZxRdvaPoH44inpbRqNbJGKSF1sykNH8cSHFJ1+fOYfe29air4lIqa2Nra48VLCkcvlrwBeIC79U6fVxDeO7I5KOw5AaEYBWqggGsam9DTZjfgV6ZUOPgNI5t9gl1d23biNrqIJKJGLwy/DIjbRNtpdJhPrBtN4rDjD7TolgCvgJ279yMoN/c+F2JaG0KY9vmdUink8jyuyvSdl0JVNkoydDC4eTjyFo5TNYOzcVxcOOWwrnBo9vjV8f7YPx0mNmZVepGA8c4j8hzJszUBJV+UVTJeFS3T3l59zbtI8V7QCxHzypYFli6i+OXYnds34JIVUj96Kt/czBkWQwIa8iC+P6Hm1PqFQprrG03Y5v37KzD+jVtSEmnMRbeRDJxyJ05OLRCYalg/kRQs0lkkmP6DgMNiNdEWHFgs+ojwOFXdsLvyej9Me2lRTFYLHmYKR9DbVMLpbrzx2uRVg5wRIjZR+l0SalYNZtufpgekyNbzjUKWX6DZhy7t6/DhjWtRgFJZBoorcdiNb+COUBCG2LzUY7161bh2NHDqKspvbyr0jIHyxfdgNhq0ekaOTuHVKJ/cAgnz5zF4OgYL1coDEPYZBKW7eyo9mDfno0yss7q96m51shoZimLndcsKbyIy7+kAIXUK7TIpqLwFSaxf9cGdDRXKf1InZUGtjnkAXZvq8HWDa1IxUZ0VG4UOwVDfp9IGJi2bJlKYShtHCnLeYcobKF7Xh3LNMMZLqnpshr/nOSqSDQtYfOcHVqaRpUzyVv+UcilkI4OoqXWjdcPv4RI0NkrzvmzcStYPpglVKAqFEBTXQ18+nIreW+WVufCohsQwhZLIcxSYQr6hkdx4tQZ9A0N6/VKhKE3f8yYjo4j6SMvd2DD6hokE6PCMPMCGfd7MnQqdp0XD0IwVVv5NJLRAaxqDuDY4V0ICdH4yKhRaYZKKwXOOFsGFi68+/oe/bZ9Th+y4MDCKG4T70kwE92YozEeJUc8ir5WKq17HEieylv544w77zwUnksinxrG/t1r8fK2DngkyEi/HHn+uMVU8AQgsUUahVWkezpbQEocpYFb7PPE3q+dDUtiQAhWRCGV4Hk6l0c8mUGOz4GucCjZyQA50J6vb/Ph1b1rEPKZz4a63KIolC6GiYRVHC8SaCR8rhyyiTEUUkNiaDdhU2etCqWRmpUJzjgCwvaDu9vwyq41MirvRyHDt73NuxZ0lAgjGQtBSa6mopym9pzHxaZ1qWy2xS1TEY8rg2SsH401wFtHZfYR8tFeOnEqeCoQHcSnA6mjbt3pwudff4vRiZgxHNbNgSUzIISOQFgPOTddgj+LLazPDkj4kqMPR15AxAu8eWQzNq1pQmpyFIVshluCKX0MdTTyCweOSgu5BNLxYaxrr8ebR18RIyuEEc1iaLMyYR/p7aj14r3XX0FznV9oMAr9Zr2jzPW44L4ym0wxz3K3VCAHJX/hpTufRToxot/oP3Z4B3Zv7dDaTdlQUk7MkslS1qmC6VBdJceB4WFc/uFHRGMJ9eMuzPPBkhiQcvG1iiDg8yEcCq6gjwTNB+wMeXAnovXNIbx37GU0VMlsbHIYXnYsCbV0Kj8zsFSc7p43zFR3R7HITCydGEXYm8B7bxzExtXTH/F+Hts7F2ybCrq8uW9HI35yfK8o1wkZoY+JEaFcCH1oZDTq4yrUp00z1ldmT1oNfkOGg4RJpKK92LO5FT99+zCquU2DgDsBL9xIVvDEEFmz4K7L/JYUd9wucmQerFl0A0K5sY6Zc7TFana2t+DN48fQ1tosV8TKExyOoPTehtMp7C8pwIH1sQMdOLh7rcxCBpFNxaRz0bwaapnn7aejnJo2fKZ4zypsvY2p1LaSNuI8Xo8+xhqPDWPPjtV4/chu+HX2IVHF6a0zjSvHFQdDCzaxOuTCW8c24aUdaxAdH5AOzNkpH2EWWolMmKXNx1nOehoEM3U0vxbGiHC/q8nxPrTUefCr949iXVutMJezDWk9w52nMjnqNRs2zr+lFcwXljMl7lhYn1y2gGyGEmk4QN7NZ1l90Q3IdBjVAdRFqrBj43rUV0ecaq1sQSm10TqgqcqLn737CtZ31iE2MYBcJqn0cexNGUpppmImv+cBpj1GDfIRURqKLGLRIbQ2hvGznxxFh8zQiq2j9JoT57gyYfvG6sYAPvrZEWxZ14LY+CDymVRRLooqle9hOI+AU1ysmxmzhy4myutiSjR1dLvJ7Qzik0P6Pf733zyI/Ts69aNFpj0arYKnCX0vzaAqGERjfR18+vVJcnF+DDKxlxisJEcX/PoYlcdKlR17/8PCGWwL6GdavWN9NT766VE0VrsRHRuQ0Zi5H2JmLYxn3coAW0XHsU1e/thWboyREEUZdE3gZ2/vx57NzYYGTKDNN0ZmOj1XGtj5uJjDidfeDbX4qw+OoDGSwcRwl262yO7NLxeCW8nIFVWv3mIXkugeiQJL33L3tKBV4hKcOJ8Yj2S0H67UMN59bQ/efX0XwgFpLaeW5CsZ/lRr+yJBO5XjylA2ct2+eR3ef/cNNHKjT/HWLffnwR9ycVkwGU+iq3dAjmZ0tVJhFR5/7c1SywdeBXzA0f2rpFPtQADjSE4OCD2yojANuyzbZmbd3Ax91mAoYJ4s4qjU58roU0eeRB/eP7oV7xzdhoif7z2zdfOZNK8s8I4g285XIo7ua8dvfnEYrdVZREe6kMsl4dHNoxzOqzxRPhy5EhifqW55YWqjb7QLj33uPPzuNOIj9+FKPMCbhzbho/cOoL0+JPqKTx8aPhssf20rmBmNtSGs7WxCSIy80UDCm3kM3pZcl1sjR+Pxyedfo3dg5b4HYlE+auYmhgolhOlsTdVefPjeDrx7bA/yyUGkYqPiL0pWArVzPcS3cg/b+R4FU87c8ZYKrGtZfaUapIDHJQomnxODOYRcoh+vH9yCX//0MDrqgk4KGZnOc9SzksDWsv2kUX3Eg58c3Yi/+eWbaK7zYmK0F5l0TA2v/klkjUuaOnTly3pl1F4GGG4RrJMOkpRvUh8+rluQmcdEPwoi128e3o7f/PJVrO+ISH1N/RlzJc8qny9YPgI5mXZkcmazVVVE8+TR0hsQ5xhLZtDd1y8zkLjj8wLBGhF2OFGUHmHSahmR/fqne/Ha/nVAckg63SA3X9dwfVu9SLnHgOW5ahWmX0AeiwUz1JQqccO+LPwy80BqBJnJbuzf2Yp/8+ERrG2p0SeR9E1siW/2Xpqf4D7vmModYzh567w+4hcjsg7/8NdvYV2rH4mxLmRSY2JEshLKrXC4RGQeD7fGw7LbXi89tFTlseqaQg4ed04fyU5M9CIoM+ufvrkXf//r17G+vRZ8udnoJOf+VwXPBDgAMLfNgQcDI7hw+UdMxpJlMlQ6exSWjZvUJ7RyMz9t9AJA2y0dTn45UuNxQ0sYf/fhURzdtwGpiT7Ex4dViXD9kWvf/JsPE0tYNg0yK9hKKgsz0hSFl08jExtEeqIL+7e34DcfvY7NndUl4aPheAHlgtylI9h6e0uztsqLtw+043/927fw0tYmxCd6MC6ywV0MqH9JKg4UCaYod0sBW0fC1Fn+1JMbLvK+JjdIHMHIwG3UhpP49QcH8Le/OII1MkAo1UsSLFUFK1gQtI865109fTh59iLGY483wF8GA2LEj0/r+X1e+PhNiRcSpa5E6OZyrhy2rakThXoAb766G9nkKCbHh6RDmpFaIS/jUiUfx6eltKYTW8qWQ+IUPUvxF4qZyzCwYY8KJ8zNuDxi4wPIxQfwys7V0ta3sXN9s4xYJWya9M2W18qGkQ2Sw7qakBuv7mrCv/vNcRw/uA1BTxLR0T6kUvw4Ge8niXyIAiCNbXrjDCxv5utmA3M1cyTnjLzjdEeEM5uKK3+ziSFsXluDv/urN/Czt3ajo1kGCBLdjguMsirVr4JnC4l0ChNiPNJZmUk6fjyZaz8szz8KnPOlgSNB2VwewYAPa1d1oKa4ZfCLheKMQjsWnzISZSG9rD4SQOfaJiQzLnT39iGWyMDj9cHj8UkcM9qb+WM7xs90TPnlNG8K7LUWaI6PdCVMLcmEU72VjJgt0bip8Z0rqS+/+52cHIEnPYC3j27D3//6KLasaUTAS2VkBhUWNo8yrxcOpu2GyqQw37ltqQ1h44YmNNQ2YbC/B0NDYoylL3lFNvz8RLHEzyv1jIrXXMy/XjOf0p/1t2E8Gv/ZYfJWJ3x1885/PoNkYhzJiV5E/DG889oO/M0vXsXB7e0qz9ZwGJTKquDZgiMxuNHVgwfdPdi+bQuaaiOGU8Jrs4rwaMhAeA4Tswig4kyJZUsm0wgF/PB7+YW8F0+YZlOSaQm8O5TAn07cwR8+PYv+0RSq69rhD1aJAWEKKnCC58YU2RxVCXA9Wq9KoeUlPWRbZkR5ruZokmkJjk8ZNIJNwyNvqorQFcjrKJKxcdQHc3j30Hp8+N5+rG+v1g30CN6sMy+OGZTKenEwjZoOSpTQ2YXQKS+WNhrL4dKtMXz67SVcvNqN4YkMCu4w/IEIfIGQDEQ8OtDQLw2KrOiXJ5lTcZpXKk1f4uO1FiM/TGd81MvcYeE586ASYQSe87PUCaQSY0iLiwQ92Lq2Ea8f2o4j+9aJ4qnSPb60XM3C5ko/K0MVPEuwPP/s1HmcP3cBH/78A2zoaJk3p5bFgLCaRpxNZSnAKkwvoBF5GLaTuZGSw/BkGl+e68e/fnIKt7vH4PKGEQhVw+uPSPcVJaF3vQzdjNI23ZJ93FJzugGZn/Fg7FJKHk3u/LWr80ah8FozlX/zRjErBXjFOy8KJh4dQS49jg2r6/H+8X14fV8HOuqrNJzgFtJEZVnjYRial8BrKm9SPp0F+icmceVODCdOX8HFK10YmcgKK0Iy0AiKjIjzBuHy+EVWTC7lOyOUILnpC32mNAbbGDzyE8Yer5fKQUJzyKZT+llm7p7gRgJhXwZrZDBw5MBuvLK7E6ubqlEdltmyJGappW6tuYkzHhVeP3uwfL/fN4jBgUFs3rQBteFgOdtmxTIZECCRySA6OYlIOIxwwH4XfZ61XNEokZ+dnqp1PJHH1e5x/OXrH3H63FWMjqfhCzfBH25U5cCHEXKSbPosjldmQlDGUvHkFd1clNa0ZfHNpfk1aalQCCodhpgZBx/RdRWyyKf4XssgqkPASzvX4YN39mPX6lrhOb9w56SV7JhOc60YkHmD9CIoHymZrg5NxHDpdgxnzt/Czbt96B8a1e243R4xIL4quH0yK/H6ZGZi7jlymct8VVCsuJCc91E4s7D0p1G3vOZ23nmZReb5xcR0ArlMQt/taKgOYsOaZuXtnu3NWF1fjaoqv84qrdyVZNLW2KLC52cR5BJdhvc+cjn4fD7dYskRhTmx5AaE2VOobtzvwplz53Fg/8vYuGqVDRVXESzLRvPLzu5GMgcMjcdx6nwXvjxxDjfujWEiE4QvVINAuFpmJkGJK2pZ6EsOGvXs3KkoZ6n07LIrxfRrk1KjahgnFzY/e0bQvOm5RFLlz7wLGeS4XDUxpI9vbl3fjGNHXsL+vRv064IB0VdqYJhSlJRWjad6YB429wpmA+nFX6WbMIhfkYuLIRmNJvBgIIlrN+7j+s376BsY0+WtWBpIpvO6SZ5HZiZur8xK5Nzt4r01mWGoAcmLsTA3TbNZSUCjkTOPCruQRcjv1k/PrmprwLpV9di2aTU2rasXv5Bux87PQdklSV1VmJGXFf4+yyDvOSjh4kCRU1w7Lb9BOQuWzYCcu3oTH//lU7z/7tvYu2WjDRVXETBDB+v4S5rw/XRRAvEMuoejOHG6C1+duor7vSPIuILwBGvhE+dx+0Thc/3bGT+S3sykmJf8lXVsnpmQqeCLaSbMOSFsnuZKZxv8ZgWFrZDLYHJyREaoUUQCebTXB/HSlla898Y+rG6tRigcUGNGeGz5jqjx15yZvCtGZG6UKOfwSU+FP3KREUGJJ1KIJhLo6Uvhfs8wuvtG0TMwiqHhMZn955EWi5OWn6xMXQv8Jo/MGPV+laTnhoZ+MRYBvxfBgEdmjCE0yexiVWcL1q5qlVlHBHUBP4KhAEISrpDymdasSrIydNP5OP26gmcNRqKA4bEo4vFJtDQ3ISizkPli+QzIj7fxh0/+gg9+8jZe3rLBCa3AwLLAdkSCytt0Tw4IxidTuN4bw9nL93Dp2gPc7hrFRJydmOvfEQRCYV2yYHLzXI78Ce15M5U3Vu3NVNOl6c/zUgdXJa+iQCejSYdvvKK/h4+Nygg1m5xEWmYc+UxClE0Oa9prsG/XOhx6eQPWNgZRVxvRex2ajtA8nZK0CBNifA0qBmR+KKcZYWlp6cerdKaAVDorLiMGI4OonA+N5ER+YqIgkkil0uqfSaeET274+Gi9uOrqKtTUhFFfF0RNUIyJ+AXEaNAFxbgQxbK1WFO27d+mDtNrWMHzgm9PX8Kly5fwwXtvY3VHq+M7N5bNgJy5dB2//cMf8fOfvY9Xdm5xQiuYCrLC3GAudUQzjqcvl7Wi8RT6xpL44doYzl26hfv3hzA8HkcyLUbB44c/UAWv36+PAbs9Hrg83LqQ7wtIftrRNVNd5+ab38p84RENBI96F0ZGp1zG4HIGt1zPisvoDdQcgt4cGqoDMjJtwu6d67BjSztWtYRQHwnpd0/I6+IeYALy38rAbJgrvIJHwTzEyx97NHw29KTcZDJALpczN9TF6aBCjoxjHb/T4xXL76ZTfmlyhTk3HvydrjIqvHv+8dmJczh1+hR+/Ve/wMbV7UaW5LfE9ZmxDAaEAgbcvN8rFTyDAwf2YxMr6PhXUA6yotyAWAKZm+s2NCs/KbEmw5MJ3OuSmcndXly/9QDdg1FMxjOIp7LIZHmjXWYebq95OscXkHM+Ps3ZCGcWkpvkY5e3+AZ8LpdBNpNGPpuSMNE6MuPgOnnIz3dVfFjVXo91nQ3YsqETG9dWo7k6BF/QD5/HmDnmZJ/XspiveFWU0EJA2k6lL7lgKCk8doKKpHWuiwa9nOQSxmB661E9H41iHhU817C8/vSb8zh99iz++qNfYH1ns/hTIHgvjAMMMwOdCUtuQAgWwCl1LJ5AKBySKbGMjk1QBVNASlkDQgo93EEZwzKMx3QaSCTTGE2k8GA4i66eKPoHRjEwNIqx8UmheQrJVEZmKDmkMjmks1l9ES0rI1JmoFvse9zwuV269BQOBcT5EQx4UVcXQVtzI5obImI46rG6zYeagA/hYACBgDEVpi7mvkgJKnbOucFcYlZRRgsBafooupKeFZpWMD98euIMTp48hb/+61+aAb76GgMymxwtmwGxVeA5l0/0UbEKpoHUseyYnXEWvJdB5CRqLktDnUMmk0Usk8FENIdYLIOR8XEMj04gnkiLEcmoMc+IIeFSE5/351M5vHFGw9FQV4P6+jpEwmIsIl5Egj4EvR74/TKT8YlZk/JMrbgE5sxkxE03GNPrXjEgS4VH0bVCzwrmj2u37+Hm7TvYv/cltDXVF6VqLilaNgPC9xYy2bwoK450S+rGHMur8KIL/nxZV0KRepaVqthpqMUJ4TMy28iKwTDP93P9m2rfxFVOyL8aEz7eqWvhYlSER9yvylajvDYP16xYAwcPx6hgKVFO/wrtK3g8cM3DPHSRRjAYhI/bJwvms0q0bPdA7vcO48q169i+bTPWtjVNCTMdgI4XlQ4wX8zGOFLRhFtTYTEzfS3lbVx7PnPsCiqoYKUg5yhi3eLMeBX1wVyYj5F5IliFNDQ6gfOXr2B0Iub4VJTT44B0LHdk9HS/csdwzjboaKk5JzGO65r6CqJzbpxFueBM58/0Mh7XVVBBBc8euPrAR7yHR6PI5KgX5o8lNyC2MlRRrFyO6yoWU2rKi8ep+ouJ+Srj0iIVUTozVDZ0thQ37tG52jIX6iqooIJnF+z/9+5148Q33yEajen1fLFsMxA942OhhTIDUoRVYxU8CpY6llJzOT4jZZ9TMIrccML8kgclzswX08uYryPssYIKKnj20D88iqs3byGWSDg+88OSGxCrqLiNe3N9rRxLr8k/vgp7MjirOVPc84TpinkuZ4yIcaXHFuzcZHrjp/vZ65Kbnv/juAoqqODZg+3xWeml2YIL3OXmcbD0S1iivFjJttYmvPH6UbS1NBVVEmGPiwE+D1Byjud0LEXBzzCM4ShX4+bc3BExZHiYFMbEWJQMwPNFNMqB3c585m3NK6jgBYDqw5KbCdwMkzswc4cCotTnZ8cyPsYrlRfzlndzq4S87r009QP7EmtKVaQJEqeE8nDHXw/yw7xnSG/eLSjPYzok/kNlOMdiGTOFl0GDbRwnsDzOlHAGzcBEKaN8hjATSuGCYnrn+FA7xd9G4Y655kR/DWyggHlpkDEoppyycIGtr9ZyCj0ENqqTRwkSUKyn+BeDpsdxTolH8sLBI9vJH/EvBjknWn5Zeo0zPb0Nd/wfap/Nw4YXfwyK6R1MD9cynFOiGGRPpoUTU/IoD3dOHkmHMpS34yE6CKbkMVP64o8DximL9Mg68Mfxn0LL8nBCwjTYxmG4DXMwYxnlcZjHo8Id/xnrUAYNLotTTO8cH9nOMpSVYXvbw7Bx5gonTBzpugYaNP86lMLLIzGczvhpPTWJeSH47JUbuH3rFl579TDaGusYMC8siwEhaNe4BTWPHinSq5XXHwGrYM8fD6qQJVPuKDr1RrDJT5vneDPO04OphB35W5SfWzxqWjhb7UtKnj8zx1RaSbSpRsCkI1+YB4NISbsliQnVlHrBtPx7FEx8px4vNEiJp0wF4WeRH9NlYl7VewbaMC/MXs/FasVc+TCcmB7H+tv0M+Vhxv0Gj4rzxKA8cIbBgbv24xJiyRTisSTq6yLw8lvK88SyvQfSPxrFzXtdaOvoQGtTHVzZPAI+mY2wFRKJu4imxc8llWcar7uAoISrupUMaHwSaSE0p1ri58rnEOAb0j4Tn2t33KpaZzp5quk8vBLu8/LbB4YhKd3WWnLSvV2YRx7hoF/rRyKQiYmU2ZyO8bndtV/S+x3Dwz2oEumshPMjSsIAqQtfuvN6pJ4ShbxhG/jiHhvGZPycD/PgbIs5Mz3zYQ31X1zQ59U6EmxnWurJb8jze+n0Zjv5TQ2WmZW2MVxbyNfQpQ6kAcvQVkgcfliI6VXZ00v8SUvmRyRJB1sHAb2DPlNf0oD05PYn3MVXM5AyApI/2+kR08I6cK8t1oKPCbNkP3d1lROJrY5P3LGe2kABHxsOSj1ZTY0jQSnSiktL4sgnvvFu60gaJeUnl+e11FQSMA7rofWUTLJCrDRntVIH0oa7y/IdKLt1Dz+jzHqydPKS1A1yo0lThOYRSws32QYJJ4fIC+1f8sd2poRQeacNpI5faEBak0akFbeH4Qe+uDEl6cwXMP3cG0z5bXiZymSlTpQR8xKtT/JgG+hIIr5gy7pwmY1yy3b6+UVACadcp6Ud/K4HyyThLB2UkhJJaU2COfzUb3lIO1get/mXYCmD9WQNC8qnoFSSsemk6yEhdWQd9J6Z+KncC6H0MXCJxTIoVySOyr0kNHIttWD+0pCMZGBrQXklvy0/2U7ym32EPvwsAD9tTXrQg9Vn/qQlwQ0dfVIIdQTjM18RSZVr3b+NnlIPyjX7p4ZLemGHhElgIaf0DUk72R6CZVCmCFJC2yG84ItzWoYUTX4qF9hU8WMbudebRZplUPAU5Dc0PfnNmjN7ukyWe8lJGzzeIp1YBvlpyqDcsSSml74jcXjOPEgnxiNYNOXVJz92EMDyU6pjRLtoPUWP+YXfzFPiMGk8pYRQ3pAOEiy6SNrMcJGJpPYb9nmJI7qUdAgIvbUWphhJy/g8czxmwDIYEFPpi7e68M+/+6O0OYCG2mrUhIJ4+42j6Gis0e9enL90Hd+fvqidlhUOB1x4+/XDWL+mU6vfPRzDb//4F1HAaSGDED6fwe5tm3H86EFV0vyIzpfffo87XV3weHzIpZPYtGENjh56Bc01YVXMX31/Hucu/yiU9CAvTKgS4fvVLz5AS72pw417ffjki2+0w4s+FeEEDu9/CXt3bNU69I9O4ncf/wXjk1FV6shmsUvCjr16UIUtlszj6+9P4odrN3Qb7HwujdXtLXjztaOorY5oHb49fQGnz12Cy+tTIQpJIR+8dRyrW5u0Dg8GRvGHP32GuIwIqIxoSA++vAd7d21HQJjcPzqBz7/+Hr0DQyKUXiTjMezctgnvvfmaKmfm8emJU7go7QwGQmoka6pC+Mlbr6G1uUFCgQtX7+DEqXNCS+lkItnM94O3j2JdZ4uGdw2N4o+ffCnGNCNClkM2Fcf+PTvw5pFDSoexWBqfC53udHfBFwwgl0ljy/p1ePXAPmmnQ+vvzuDC5ev6BUV2lKqgB794/x20NtSIQsvj+o27OCG0mEwKP+U6JEw8fmi/ftSf6BmawMeffY2RaEKVUD4dx57tm/HGq4e0Q8fE0J/47jQuX70Gj88vPTMntG4VeTiCxnpTh2/PXpA63BA2UcHzCcAMfvXzD7CqxbzIer9/BL/901dIikz5hM4hbwH7X9qJl/fslHa60D8yjr98+Z0+ocKBQjoxiW1bNuCd46+pIZEq4NOvvsWVqzdVibCj10XCQus30CyDJHbkC1duCc/PiiHiwANCBx9+8sbrWNXRovzqHhzHx3/+XPidln4inTqbwi5p5/HXjqjyGIkm8dnX3+J+T5/ItVfkOoV1qzvwxrEjUlZI23nilMj1hR9EXkSmhJZh0vonb6OtqUGNw43bXUKrU4gLv6kiAp48jh9+RdqyXlIDvexbf/5EeJFSOeYGa7tEpt6S/kd+T8rI7cT3Z/CD8MwvMpVJJbFhdbvQ+gDqhd+Uue9PXsDFH6/pt/3Ji5Aoo1/99F20NDcyR9ztHZAyvhRDw9UHGZhJHfbu3IaD+/eqgusdmRS5PokelWsX0iLXL+3cInQ4rEaEtPzky1O4fOU6AiGpg8h1ddiPn793HO31tVqHcz8KrU9e1L3eCvm00MGHd988JnLdqrTsHhrD76VvJZJJkSGPyG0Ke3ZuxfEjB7WdpPWnX32D7t5+4afIdTaN9aT1awelrKDEAL747pzoqh/gFZnL5zL6ca133z4utG7UT1JfvXEHJ89cxGQ8IXXIih7z4dWD+6SPblY91Tcaw8effIGx6AQKInOZVEJovVl03THVOZMyYPlKeHXlqrTTHxR5yIhcN6uO4UNIJO83p8/jvPTvrEvaIPrSJ63/6P23saq9TcPv9g2rnsrmxagJ4fyeguiwTThyYK8OtPpHoviz9N+BoWEpw49Ugjpki5RxwBl4sKVGdxPWcM0Ezz8KnPOlgVN4XpS6PxRGdW0damtr0dhQhw5RrvaprKQIlqgzCa9FTX0dmsStamtGVViUoOQRz7lFcSdQ29iAuoYGmWpJ+tZmNDXWaxHZgls6SAZeEfDG5mbU1FSjraVZlGYjfKJxSIoxmaLlpB61jY2ok3o0Sto1qzp1nycKaCon5YjxqKlrQENDvThTRr0YPLaCo6iJVApVkne91IFltLe1iLIwipmR4kkZbUpHb2hsknbWoEnyaGtpEUaJUZMosWRORgke1DFc2lhXU4M1ne2IiCJmHdPC9Gg8jRqpX4PUr07LaBalWKcdjXWIizIKVlVLeKPUISLhreJMR2VHinKqJsaloakJdfX1Qut6dJLWMttiO7n1OxVLRNpZI3Tk/ldrO9sQCZs6JEThcgQTqalDNffGkvZ3tLZoJyE4Vk+ksvCI8NVpHarRImHN4vhtCZYRjaWUDvUN0k4po14MB9sZEjqQnxyFJYQg4dp61Es9G2ojUobUV2hGpGW0HBUDFqiKoEHa0FBn6qBGUOjAkVaMxkcUQX2T8EjKaBLZaBXjEAhwrCW8iqeQcwm/Gxp1f696GSisXbNKnwgkP1MsQ/hFmaM8kg4tkn99Xa2OzFgHfozJLR25nnmIfxvpIGV4JZz7j5FXHmlTI2VKwhukHqs7O8R4C7+lEin5kbGo0LJeaClyJfVYvapdFJKhNY1QNJFCRPhNua5jO4WfLSJTVOZiVlSufdJ3GiS8lrQWmaZMUa4pU9FEUmgidJA6qtxIGeukDtq3pI7sWxw5s3wtQ/Jgv+BAjkhKQ0jrKuGFoXUt2iX/JmfAwRlYTPhdcBu5rSO9GinXzaLcZTAmDYknZbAh/K6W9tfVN6BR8li7epXSgaDcRhNZKYN8kPRCa27U2dJUr/JCWpNW1BGsI+tAOrS2CB1E8CnXE3GhpAy86kSmqiUP9k8jU0bmYtJO0rOunv2b4fVYJXTgKgONe0JG9qR1tchYfV296qF24Sf7L+UhIzqEMuUPhrQO1aRTS6PQollnCOQX5bogfatOaM182LdWSR04YOQQIS1tSJLWql9IK9FDItdGh4hMFTyISf8MRSLS/42OaRcd0y4yxTqQ1ux7eYef9VIG60dak5+sQ4wDO6F1RNpQI3k0k99i6MJBMTgSLiIteWSkDtK3WIbIPfNvEX1CUMdw8BioElqTX+LaHD2m20yxImWYzYAs0010Iay0LJmRhsvogKMBdlCfEN3Pusk5p2VpLu9obGfpRzomd4kVCTLpZeTAuAyXiuuoz+fs7MvOmpWOxl1mqVxcItX8voHfZxQWCcuNBLNSjqYXx6wDgYAyVqKoNU+m0hqXpXCaHpSRJ5dn2Ap2AoZnxaxzqseHAagwPZzCMkepZ4YbFYoR0jpIGs4iaOVLSxpZDec5wbpT+LisQT/OwJIyEiRYR+bBMvzScWwd+UEgfapIPLj8w6UAv+ShdBCXJB2kDLabeXDU4Rfh029+CLhkorRwOE91G5b0FJ6s0DUjqdKkg4ZLG5x2cllFp+rirx8l4s6+krdZbhBekNaSB9tBOuSUDmwXl5iElkJr5aeAfKA80JCxnl4pIyDprQHi8hxnQKQ1qUBfTvUpE1yNEn2jZZCehtYkv7RTRoa6bCL/pINZbuA2DTR7oqDEUJMnjM+lhqQoDEqEyiTDuZwg9aAUUqaUllwu0DpKPGln0KE1DUNa6pjjZ2A1R5bhQlDKIB1IJ6YlrZkXrw0dhN9aRy7ZiJESfkuQ5kB+sw5sJ+OzjIzMCDiq1nDWQWTFK/xkHWR+r/JEfrOOpI0cZLBg2sl8Lb8NP007lZ+SD684p08Iv1lHSjppRX56hQ5EQfIjrTkzzws/Ga5LdUJrtodtzUrfVXnQFMzDqQMrI/+UW66zsww23ZTh1YEV5ZBLz9oO0loSqMyRDqo0C6IXpJ0qU6Z/049yw8EAjTnL4JIlZ3oEZZLlsG9R7lnPtPQVzvTYfvKLqs9LOogBIt9YN35wKyvxJLoyjH2LdaS+Iv0yQkfKHInMOrPPaN+TBFT+3HuO+0oxzFBX8hA6ep11MC5FpoUOukuEDWf/pdxKHmw928ByWAbvF5PfPun/qtzFkQ+sA1sqVYLM8ZXWOlOXmusyN2ktYUpLCbf9k2VQj+lKjtNOyhRn2NSl2k9IT8F8ZiDLYkDYTBLMVMR2NQOZtcu5hGnjhQnijJoTSCTjK8yWtLYZTEs3vVkmT/NrY9uyyHxLByOiRogI3jMh0RjOuHQMoSvWRXx13VJ8eGRHVQGRRLk811uZm6SwhTiwefGkIIn4V54rz7T98seWmm9LqzlS2PR6X8dJRj/6mrxMuHXMyaKYVq94LGuz/ppwrYNTLuOwHgTPmYLh5JMaJCd7So3mIdf0crxNG8SV05conRmU6mRQoshU2LrYcCOtpgT+kxc80TaIo2GlkSNs3gTLt3Wgv3YeaYxRRiZ/hptOJfQXD82Pfk5YuSNUDpxQ42dDJEy8DX9YhrmmErP1JL2NzBga27ROCnEm53JeGH8Lk8ZeazztY8ZXUzMDnomfybcEnrPr6z0OZ3BDWDpoOD2chPbaxuO1QjxtfOtZDGOg/GsZWrFSCAPYh5yzYh35a6XfcFF8hFZUzpYmFoxlc2Qc5m8pVKSzeFNpsiyVZ15YMELxki0z6Q3fCCNXth4WDH2IDpqKIab2JrfyNlDvGJkzd1xMPgSvbD42bx5ZE+bGMO3/cqLq2pFvWweaJvrzb7ZvdxDMi8aNAzBDUQN7ZEWfQQMi0GK01nKuPlMh/vR2YpVFI0t5Zc5NSPlZCaYl8jMlYFosCVbmqvQ6zCknWvG3VKqBCWFnMMaMI2/xsL2gHOovqeVoT4tgJcVD/Y2H82sjlbd3Jpj4ROnMyauY6fT0KlrOOWFT2pIeyklT8M/GeahOpSymnJdyMmcmlRPg0Hx+cHKyGU4hYgk6MJGjCaYRLikgW3+iPHUxSyeGiSUxnAAnK0UpvOhVBieU2q88kQMnO3OUH9bRxjBhliuldDP5lzhRHrN0RjCcrqQ+5Eozk3hTo06BRtEjzyyvy2AjCO+MwjKhZKVliUZx4qlkz1CeCbYBTmSFKZM+xrfU9qnZmBqWY3q4+aVvKS19i/GmXJTAnOlt8y+VMwM9HJTilDA9j/K0vJ5uVB4FxqVOIi3toLsI6g9C/G1ZGqp6SS+FN2XxnVMbtxz0K4s55Xy+WD4DsoIwhXFFlPnOHKGCCp5jTFc3FVRQMSCLgOnkq3SyClYqKkakgqmYazZVwQxgN7JuKuboXA8nqKCC5xylnvDwWcmngpWJigF5YtBoWFdBBSsZs8v41F5QMRwvAipLWBVUUMEiY7pKqQyuVioqBqSCCiqooIIFAPj/AY0OSVIeisKaAAAAAElFTkSuQmCC;" vertex="1" parent="1">
          <mxGeometry x="30" y="110" width="241.72" height="310" as="geometry" />
        </mxCell>
      </root>
    </mxGraphModel>
  </diagram>
</mxfile>
